<svg width="44" height="44" viewBox="0 0 44 44" fill="none" xmlns="http://www.w3.org/2000/svg">
<path d="M14.6703 35.8069H15.6927V43.6477H14.6703V35.8069ZM21.4886 35.8069H22.5111V43.6477H21.4886V35.8069ZM28.307 35.8069H29.3295V43.6477H28.307V35.8069ZM33.0795 15.8635C33.0795 13.1335 30.8661 10.9202 28.1361 10.9202H15.8636C13.1336 10.9202 10.9203 13.1335 10.9203 15.8635V28.136C10.9203 30.866 13.1336 33.0793 15.8636 33.0793H28.1361C30.8661 33.0793 33.0795 30.866 33.0795 28.136V15.8635ZM8.19273 28.3069V29.3293H0.351913V28.3069H8.19273ZM43.6478 28.3069V29.3293H35.807V28.3069H43.6478ZM26.9427 22.0002C26.9427 19.2703 24.7302 17.0571 22.0004 17.0569C19.2703 17.0569 17.057 19.2702 17.057 22.0002C17.0572 24.7301 19.2704 26.9426 22.0004 26.9426C24.7301 26.9424 26.9425 24.73 26.9427 22.0002ZM8.19273 21.4885V22.511H0.351913V21.4885H8.19273ZM43.6478 21.4885V22.511H35.807V21.4885H43.6478ZM8.19273 14.6702V15.6926H0.351913V14.6702H8.19273ZM43.6478 14.6702V15.6926H35.807V14.6702H43.6478ZM14.6703 0.351807H15.6927V8.19263H14.6703V0.351807ZM21.4886 0.351807H22.5111V8.19263H21.4886V0.351807ZM28.307 0.351807H29.3295V8.19263H28.307V0.351807ZM27.9662 22.0002C27.966 25.2948 25.295 27.9659 22.0004 27.9661C18.7056 27.9661 16.0347 25.295 16.0345 22.0002C16.0345 18.7054 18.7055 16.0344 22.0004 16.0344C25.2951 16.0346 27.9662 18.7055 27.9662 22.0002ZM34.1019 28.136C34.1019 31.4309 31.431 34.1018 28.1361 34.1018H15.8636C12.5688 34.1018 9.89781 31.4309 9.89781 28.136V15.8635C9.89781 12.5686 12.5688 9.89771 15.8636 9.89771H28.1361C31.431 9.89771 34.1019 12.5686 34.1019 15.8635V28.136Z" fill="#333333"/>
</svg>
