<svg width="25" height="24" viewBox="0 0 25 24" fill="none" xmlns="http://www.w3.org/2000/svg">
<path fill-rule="evenodd" clip-rule="evenodd" d="M2 13C2 12.4477 2.44772 12 3 12H23C23.5523 12 24 12.4477 24 13V17C24 17.5523 23.5523 18 23 18H3C2.44772 18 2 17.5523 2 17V13ZM4 14V16H22V14H4Z" fill="#2463EB"/>
<path fill-rule="evenodd" clip-rule="evenodd" d="M3 6C3 4.89544 3.89542 4 5 4H21C22.1046 4 23 4.89545 23 6V12C23 12.5523 22.5523 13 22 13C21.4477 13 21 12.5523 21 12V6H5V12C5 12.5523 4.55228 13 4 13C3.44772 13 3 12.5523 3 12V6Z" fill="#2463EB"/>
<path fill-rule="evenodd" clip-rule="evenodd" d="M6 10C6 9.44772 6.44772 9 7 9H11C11.5523 9 12 9.44772 12 10C12 10.5523 11.5523 11 11 11H7C6.44772 11 6 10.5523 6 10Z" fill="#2463EB"/>
<path fill-rule="evenodd" clip-rule="evenodd" d="M14 10C14 9.44772 14.4477 9 15 9H19C19.5523 9 20 9.44772 20 10C20 10.5523 19.5523 11 19 11H15C14.4477 11 14 10.5523 14 10Z" fill="#2463EB"/>
<path fill-rule="evenodd" clip-rule="evenodd" d="M5 16C5.55228 16 6 16.4477 6 17V19C6 19.5523 5.55228 20 5 20C4.44772 20 4 19.5523 4 19V17C4 16.4477 4.44772 16 5 16Z" fill="#2463EB"/>
<path fill-rule="evenodd" clip-rule="evenodd" d="M21 16C21.5523 16 22 16.4477 22 17V19C22 19.5523 21.5523 20 21 20C20.4477 20 20 19.5523 20 19V17C20 16.4477 20.4477 16 21 16Z" fill="#2463EB"/>
</svg>
