<svg width="26" height="24" viewBox="0 0 26 24" fill="none" xmlns="http://www.w3.org/2000/svg">
<path fill-rule="evenodd" clip-rule="evenodd" d="M5.3999 9.99997C5.3999 5.91307 8.713 2.59998 12.7999 2.59998C16.8868 2.59998 20.1999 5.91307 20.1999 9.99997V15.6H18.1999V9.99997C18.1999 7.01764 15.7822 4.59998 12.7999 4.59998C9.81757 4.59998 7.3999 7.01764 7.3999 9.99997V15.6H5.3999V9.99997Z" fill="#2463EB"/>
<path fill-rule="evenodd" clip-rule="evenodd" d="M8.6001 19.6C8.6001 21.9196 10.4805 23.8 12.8001 23.8C15.1197 23.8 17.0001 21.9196 17.0001 19.6H15.0001C15.0001 20.8151 14.0151 21.8 12.8001 21.8C11.5851 21.8 10.6001 20.8151 10.6001 19.6H8.6001Z" fill="#2463EB"/>
<path fill-rule="evenodd" clip-rule="evenodd" d="M10.2002 3.6C10.2002 2.16406 11.3643 1 12.8002 1C14.2361 1 15.4002 2.16406 15.4002 3.6L13.4002 3.6C13.4002 3.26863 13.1316 3 12.8002 3C12.4688 3 12.2002 3.26863 12.2002 3.6L10.2002 3.6Z" fill="#2463EB"/>
<path fill-rule="evenodd" clip-rule="evenodd" d="M3 17.6C3 15.9431 4.34315 14.6 6 14.6H19.6C21.2569 14.6 22.6 15.9431 22.6 17.6C22.6 19.2568 21.2569 20.6 19.6 20.6H6C4.34315 20.6 3 19.2568 3 17.6ZM6 16.6C5.44772 16.6 5 17.0477 5 17.6C5 18.1523 5.44772 18.6 6 18.6H19.6C20.1523 18.6 20.6 18.1523 20.6 17.6C20.6 17.0477 20.1523 16.6 19.6 16.6H6Z" fill="#2463EB"/>
</svg>
