<svg width="26" height="24" viewBox="0 0 26 24" fill="none" xmlns="http://www.w3.org/2000/svg">
<path fill-rule="evenodd" clip-rule="evenodd" d="M2.8335 7C2.8335 5.34315 4.17664 4 5.8335 4H6.0835C6.63578 4 7.0835 4.44772 7.0835 5C7.0835 5.55228 6.63578 6 6.0835 6H5.8335C5.28121 6 4.8335 6.44771 4.8335 7V17C4.8335 17.5523 5.2812 18 5.8335 18H19.8335C20.3858 18 20.8335 17.5523 20.8335 17V7C20.8335 6.44771 20.3858 6 19.8335 6H19.5835C19.0312 6 18.5835 5.55228 18.5835 5C18.5835 4.44772 19.0312 4 19.5835 4H19.8335C21.4904 4 22.8335 5.34315 22.8335 7V17C22.8335 18.6569 21.4903 20 19.8335 20H5.8335C4.17665 20 2.8335 18.6569 2.8335 17V7ZM10.8335 5C10.8335 4.44772 11.2812 4 11.8335 4H13.8335C14.3857 4 14.8335 4.44772 14.8335 5C14.8335 5.55228 14.3857 6 13.8335 6H11.8335C11.2812 6 10.8335 5.55228 10.8335 5Z" fill="#2463EB"/>
<path fill-rule="evenodd" clip-rule="evenodd" d="M5.8335 10C5.8335 9.44772 6.28121 9 6.8335 9H8.8335C9.38578 9 9.8335 9.44772 9.8335 10C9.8335 10.5523 9.38578 11 8.8335 11H6.8335C6.28121 11 5.8335 10.5523 5.8335 10Z" fill="#2463EB"/>
<path fill-rule="evenodd" clip-rule="evenodd" d="M5.8335 14C5.8335 13.4477 6.28121 13 6.8335 13H8.8335C9.38578 13 9.8335 13.4477 9.8335 14C9.8335 14.5523 9.38578 15 8.8335 15H6.8335C6.28121 15 5.8335 14.5523 5.8335 14Z" fill="#2463EB"/>
<path fill-rule="evenodd" clip-rule="evenodd" d="M10.8335 10C10.8335 9.44772 11.2812 9 11.8335 9H13.8335C14.3858 9 14.8335 9.44772 14.8335 10C14.8335 10.5523 14.3858 11 13.8335 11H11.8335C11.2812 11 10.8335 10.5523 10.8335 10Z" fill="#2463EB"/>
<path fill-rule="evenodd" clip-rule="evenodd" d="M10.8335 14C10.8335 13.4477 11.2812 13 11.8335 13H13.8335C14.3858 13 14.8335 13.4477 14.8335 14C14.8335 14.5523 14.3858 15 13.8335 15H11.8335C11.2812 15 10.8335 14.5523 10.8335 14Z" fill="#2463EB"/>
<path fill-rule="evenodd" clip-rule="evenodd" d="M15.8335 10C15.8335 9.44772 16.2812 9 16.8335 9H18.8335C19.3858 9 19.8335 9.44772 19.8335 10C19.8335 10.5523 19.3858 11 18.8335 11H16.8335C16.2812 11 15.8335 10.5523 15.8335 10Z" fill="#2463EB"/>
<path fill-rule="evenodd" clip-rule="evenodd" d="M15.8335 14C15.8335 13.4477 16.2812 13 16.8335 13H18.8335C19.3858 13 19.8335 13.4477 19.8335 14C19.8335 14.5523 19.3858 15 18.8335 15H16.8335C16.2812 15 15.8335 14.5523 15.8335 14Z" fill="#2463EB"/>
<path fill-rule="evenodd" clip-rule="evenodd" d="M8.8335 2C9.38578 2 9.8335 2.44772 9.8335 3V6C9.8335 6.55228 9.38578 7 8.8335 7C8.28121 7 7.8335 6.55228 7.8335 6V3C7.8335 2.44772 8.28121 2 8.8335 2Z" fill="#2463EB"/>
<path fill-rule="evenodd" clip-rule="evenodd" d="M16.8335 2C17.3858 2 17.8335 2.44772 17.8335 3V6C17.8335 6.55228 17.3858 7 16.8335 7C16.2812 7 15.8335 6.55228 15.8335 6V3C15.8335 2.44772 16.2812 2 16.8335 2Z" fill="#2463EB"/>
</svg>
