<svg width="24" height="24" viewBox="0 0 24 24" fill="none" xmlns="http://www.w3.org/2000/svg">
<g id="icon sections">
<g id="Vector">
<path fill-rule="evenodd" clip-rule="evenodd" d="M20.1585 6.24743C20.5741 6.61111 20.6163 7.24287 20.2526 7.65851L15.0026 13.6585C14.655 14.0557 14.0586 14.1144 13.6403 13.7926L10.3903 11.2926C9.95254 10.9559 9.87064 10.328 10.2074 9.8903C10.5441 9.45254 11.172 9.37065 11.6097 9.70738L14.1156 11.635L18.7474 6.3415C19.1111 5.92586 19.7429 5.88375 20.1585 6.24743Z" fill="#2463EB"/>
<path fill-rule="evenodd" clip-rule="evenodd" d="M15.2741 5.62169C14.1339 5.08364 12.8619 4.88877 11.613 5.06081C10.3641 5.23285 9.19213 5.76438 8.23992 6.59065C7.28772 7.41692 6.59636 8.50227 6.25004 9.7145C5.90373 10.9267 5.91742 12.2135 6.28944 13.4181C6.66147 14.6227 7.37576 15.6931 8.34533 16.4989C9.3149 17.3047 10.4979 17.8112 11.7502 17.9566C13.0025 18.102 14.2701 17.8802 15.3985 17.318C16.5269 16.7558 17.4675 15.8776 18.1057 14.7903C18.3853 14.314 18.998 14.1545 19.4743 14.4341C19.9506 14.7137 20.1101 15.3264 19.8305 15.8027C18.996 17.2245 17.766 18.373 16.2903 19.1081C14.8147 19.8433 13.1571 20.1334 11.5195 19.9433C9.88185 19.7531 8.33487 19.0908 7.06697 18.037C5.79908 16.9832 4.86499 15.5835 4.3785 14.0082C3.89201 12.433 3.87411 10.7503 4.32698 9.16511C4.77985 7.57989 5.68394 6.16059 6.92913 5.08008C8.17432 3.99957 9.70686 3.3045 11.3401 3.07952C12.9733 2.85454 14.6367 3.10938 16.1276 3.81298C16.6271 4.04869 16.8409 4.64466 16.6052 5.14412C16.3695 5.64358 15.7735 5.8574 15.2741 5.62169Z" fill="#2463EB"/>
</g>
</g>
</svg>
