<svg width="32" height="32" viewBox="0 0 32 32" fill="none" xmlns="http://www.w3.org/2000/svg">
<path fill-rule="evenodd" clip-rule="evenodd" d="M4.05234 16C5.83787 21.2858 10.5434 25 16.0007 25C21.4581 25 26.1636 21.2858 27.9491 16C26.1636 10.7142 21.4581 7 16.0007 7C10.5434 7 5.83787 10.7142 4.05234 16ZM2.04652 15.7009C3.98386 9.52062 9.46825 5 16.0007 5C22.5332 5 28.0176 9.52062 29.9549 15.7009C30.016 15.8956 30.016 16.1044 29.9549 16.2991C28.0176 22.4794 22.5332 27 16.0007 27C9.46825 27 3.98387 22.4794 2.04652 16.2991C1.98547 16.1044 1.98547 15.8956 2.04652 15.7009Z" fill="#2463EB"/>
<path fill-rule="evenodd" clip-rule="evenodd" d="M16.0007 20C18.2099 20 20.0007 18.2091 20.0007 16C20.0007 15.8827 19.8104 15.8606 19.7539 15.9633C19.4136 16.5813 18.7561 17 18.0007 17C16.8962 17 16.0007 16.1046 16.0007 15C16.0007 13.8954 16.8962 13 18.0007 13C18.1747 13 18.3156 12.7329 18.1695 12.6384C17.5447 12.2345 16.8001 12 16.0007 12C13.7916 12 12.0007 13.7909 12.0007 16C12.0007 18.2091 13.7916 20 16.0007 20Z" fill="#2463EB"/>
</svg>
