<svg width="25" height="24" viewBox="0 0 25 24" fill="none" xmlns="http://www.w3.org/2000/svg">
<path fill-rule="evenodd" clip-rule="evenodd" d="M1.65573 9.21374C1.53168 7.47714 2.90708 6 4.6481 6H10.5001C11.0524 6 11.5001 6.44772 11.5001 7C11.5001 7.55228 11.0524 8 10.5001 8H4.6481C4.06776 8 3.6093 8.49238 3.65065 9.07124L4.3126 18.3387L5.69801 11.4117C5.69801 11.4117 5.69801 11.4117 5.69801 11.4117C5.97847 10.0094 7.20972 9 8.63976 9H18.6845C20.5151 9 21.919 10.6254 21.6526 12.4365L20.6232 19.4365C20.4066 20.9088 19.1434 22 17.6551 22H5.36239C3.78847 22 2.48215 20.7837 2.37001 19.2137L1.65573 9.21374C1.65573 9.21374 1.65573 9.21374 1.65573 9.21374ZM6.01995 20H17.6551C18.1511 20 18.5723 19.6363 18.6445 19.1455L19.6739 12.1455C19.7627 11.5419 19.2947 11 18.6845 11H8.63976C8.16308 11 7.75267 11.3364 7.65918 11.8039L6.01995 20Z" fill="#2463EB"/>
<path fill-rule="evenodd" clip-rule="evenodd" d="M16.0001 0C16.3137 0 16.6091 0.147092 16.7981 0.397322L17.9106 1.87041L19.6554 2.47327C19.9518 2.57568 20.1829 2.81119 20.2798 3.10942C20.3768 3.40765 20.3281 3.73407 20.1486 3.99114L19.0914 5.50442L19.0571 7.35011C19.0513 7.66364 18.8988 7.95628 18.6451 8.14059C18.3914 8.3249 18.0659 8.37954 17.7659 8.28818L16.0001 7.75035L14.2342 8.28818C13.9343 8.37954 13.6088 8.3249 13.3551 8.14059C13.1014 7.95628 12.9489 7.66364 12.9431 7.35011L12.9088 5.50442L11.8516 3.99114C11.672 3.73407 11.6234 3.40765 11.7203 3.10942C11.8172 2.81119 12.0484 2.57568 12.3448 2.47327L14.0896 1.87041L15.2021 0.397322C15.3911 0.147092 15.6865 5.96046e-08 16.0001 0ZM16.0001 2.65926L15.502 3.3188C15.3823 3.47723 15.2182 3.59645 15.0306 3.66129L14.2495 3.93119L14.7228 4.60868C14.8365 4.77143 14.8991 4.96433 14.9028 5.16283L14.9182 5.98917L15.7087 5.74838C15.8987 5.69054 16.1015 5.69054 16.2914 5.74838L17.082 5.98917L17.0974 5.16283C17.101 4.96433 17.1637 4.77143 17.2774 4.60868L17.7507 3.93119L16.9696 3.66129C16.782 3.59645 16.6179 3.47723 16.4982 3.3188L16.0001 2.65926Z" fill="#2463EB"/>
</svg>
