<svg width="33" height="32" viewBox="0 0 33 32" fill="none" xmlns="http://www.w3.org/2000/svg">
<path fill-rule="evenodd" clip-rule="evenodd" d="M17 4C10.3726 4 5 9.37258 5 16C5 22.6274 10.3726 28 17 28C23.6274 28 29 22.6274 29 16C29 9.37258 23.6274 4 17 4ZM3 16C3 8.26801 9.26801 2 17 2C24.732 2 31 8.26801 31 16C31 23.732 24.732 30 17 30C9.26801 30 3 23.732 3 16Z" fill="#2463EB"/>
<path fill-rule="evenodd" clip-rule="evenodd" d="M17.1756 6.55474C17.4703 6.45375 17.7952 6.49588 18.0544 6.66869L21.0544 8.66869C21.3749 8.88231 21.5442 9.26095 21.4897 9.64218L21.0777 12.5257L22.4639 13.4735L23.9869 14.3422L25.7611 13.2772L27.6315 10.004C27.9055 9.52448 28.5164 9.35788 28.9959 9.63189C29.4754 9.9059 29.642 10.5168 29.368 10.9963L27.368 14.4963C27.283 14.645 27.1612 14.7694 27.0144 14.8575L24.5144 16.3581C24.2045 16.5442 23.8183 16.5485 23.5043 16.3694L21.4377 15.1906C21.4141 15.1771 21.3911 15.1628 21.3688 15.1475L19.4354 13.8257C19.1209 13.6107 18.9559 13.2358 19.0098 12.8587L19.4206 9.98319L17.3563 8.60697L14.9628 9.42716L15.3068 11.3656C15.3128 11.3996 15.3171 11.4339 15.3195 11.4683L15.4954 13.9038L15.9896 17.9709L16.9856 23.8326C17.0491 24.2064 16.8958 24.584 16.5896 24.8076C16.2834 25.0313 15.8771 25.0625 15.5403 24.8884L11.6737 22.8884C11.3417 22.7166 11.1331 22.374 11.1331 22.0001V18.8063L10.3798 18.5219C10.1174 18.4227 9.90862 18.2179 9.80452 17.9574L8.64742 15.062L7.29268 13.7072C7.1829 13.5975 7.10019 13.4636 7.0511 13.3164L5.5511 8.81637C5.37645 8.29242 5.65961 7.7261 6.18356 7.55145C6.7075 7.37681 7.27382 7.65997 7.44847 8.18391L8.87382 12.46L10.2069 13.793C10.3027 13.8889 10.3781 14.0032 10.4284 14.129L11.4983 16.8064L12.4864 17.1795C12.8756 17.3265 13.1331 17.699 13.1331 18.115V21.3915L14.6779 22.1906L14.0139 18.2826C14.0112 18.267 14.0089 18.2513 14.007 18.2357L13.507 14.1208C13.5051 14.1046 13.5035 14.0884 13.5023 14.0721L13.3285 11.664L12.844 8.93343C12.7579 8.44815 13.0382 7.97251 13.5045 7.81274L17.1756 6.55474Z" fill="#2463EB"/>
<path fill-rule="evenodd" clip-rule="evenodd" d="M29.9964 17.9143C30.0438 18.4646 29.6361 18.949 29.0859 18.9964L23.4343 19.4827L22.1621 20.023L22.3773 20.9615L26.2074 24.7931C26.5978 25.1837 26.5977 25.8169 26.2071 26.2073C25.8165 26.5978 25.1833 26.5976 24.7929 26.207L20.7596 22.1721C20.6268 22.0393 20.5341 21.8717 20.4921 21.6887L20.0254 19.6536C19.9171 19.1812 20.1631 18.6991 20.6092 18.5096L22.799 17.5796C22.8961 17.5384 22.9991 17.5128 23.1042 17.5037L28.9144 17.0037C29.4646 16.9564 29.9491 17.3641 29.9964 17.9143Z" fill="#2463EB"/>
</svg>
