<svg width="33" height="32" viewBox="0 0 33 32" fill="none" xmlns="http://www.w3.org/2000/svg">
<path fill-rule="evenodd" clip-rule="evenodd" d="M6 6C6.55228 6 7 6.44772 7 7V24.5H27C27.5523 24.5 28 24.9477 28 25.5C28 26.0523 27.5523 26.5 27 26.5H6C5.44772 26.5 5 26.0523 5 25.5V7C5 6.44772 5.44772 6 6 6Z" fill="#2463EB"/>
<path fill-rule="evenodd" clip-rule="evenodd" d="M24.0882 9.69121C24.5348 10.0161 24.6336 10.6415 24.3087 11.0881L20.3087 16.5881C20.1206 16.8469 19.8199 16.9999 19.5 16.9999H14.4491L10.7474 21.1643C10.3805 21.5771 9.74843 21.6143 9.33565 21.2474C8.92286 20.8804 8.88568 20.2484 9.2526 19.8356L13.2526 15.3356C13.4424 15.1221 13.7144 14.9999 14 14.9999H18.9908L22.6913 9.91178C23.0161 9.46512 23.6415 9.36637 24.0882 9.69121Z" fill="#2463EB"/>
<path fill-rule="evenodd" clip-rule="evenodd" d="M20 10C20 9.44772 20.4477 9 21 9H24C24.5523 9 25 9.44772 25 10V13C25 13.5523 24.5523 14 24 14C23.4477 14 23 13.5523 23 13V11H21C20.4477 11 20 10.5523 20 10Z" fill="#2463EB"/>
</svg>
