<svg width="26" height="24" viewBox="0 0 26 24" fill="none" xmlns="http://www.w3.org/2000/svg">
<path fill-rule="evenodd" clip-rule="evenodd" d="M4.93907 7.55279C5.10846 7.214 5.45472 7 5.8335 7H7.8335C8.38578 7 8.8335 7.44772 8.8335 8C8.8335 8.55228 8.38578 9 7.8335 9H6.45153L4.8335 12.2361V19H20.8335V12.2361L19.2154 9H17.8335C17.2812 9 16.8335 8.55228 16.8335 8C16.8335 7.44772 17.2812 7 17.8335 7H19.8335C20.2122 7 20.5585 7.214 20.7279 7.55279L22.7279 11.5528C22.7973 11.6916 22.8335 11.8448 22.8335 12V20C22.8335 20.5523 22.3857 21 21.8335 21H3.8335C3.28121 21 2.8335 20.5523 2.8335 20V12C2.8335 11.8448 2.86964 11.6916 2.93907 11.5528L4.93907 7.55279Z" fill="#2463EB"/>
<path fill-rule="evenodd" clip-rule="evenodd" d="M12.8335 2C13.3858 2 13.8335 2.44772 13.8335 3V9C13.8335 9.55228 13.3858 10 12.8335 10C12.2812 10 11.8335 9.55228 11.8335 9V3C11.8335 2.44772 12.2812 2 12.8335 2Z" fill="#2463EB"/>
<path fill-rule="evenodd" clip-rule="evenodd" d="M10.1264 7.29289C10.5169 6.90237 11.1501 6.90237 11.5406 7.29289L12.8335 8.58579L14.1264 7.29289C14.5169 6.90237 15.1501 6.90237 15.5406 7.29289C15.9311 7.68342 15.9311 8.31658 15.5406 8.70711L13.5406 10.7071C13.1501 11.0976 12.5169 11.0976 12.1264 10.7071L10.1264 8.70711C9.73586 8.31658 9.73586 7.68342 10.1264 7.29289Z" fill="#2463EB"/>
<path fill-rule="evenodd" clip-rule="evenodd" d="M2.8335 12C2.8335 11.4477 3.28121 11 3.8335 11H8.8335C9.21227 11 9.55853 11.214 9.72792 11.5528L10.4515 13H15.2154L15.939 11.5528C16.1084 11.214 16.4547 11 16.8335 11H21.8335C22.3857 11 22.8335 11.4477 22.8335 12C22.8335 12.5523 22.3857 13 21.8335 13H17.4515L16.7279 14.4472C16.5585 14.786 16.2122 15 15.8335 15H9.8335C9.45472 15 9.10846 14.786 8.93907 14.4472L8.21546 13H3.8335C3.28121 13 2.8335 12.5523 2.8335 12Z" fill="#2463EB"/>
</svg>
