<svg width="24" height="24" viewBox="0 0 24 24" fill="none" xmlns="http://www.w3.org/2000/svg">
<g id="icon sections">
<g id="Vector">
<path fill-rule="evenodd" clip-rule="evenodd" d="M12 9C10.3058 9 9 10.3109 9 11.8462C9 12.7601 9.45476 13.5848 10.1852 14.1125C10.9261 14.6477 11.2476 15.4083 11.3884 16H12.6116C12.7524 15.4083 13.0739 14.6477 13.8148 14.1125C14.5452 13.5848 15 12.7601 15 11.8462C15 10.3109 13.6942 9 12 9ZM7 11.8462C7 9.13309 9.2759 7 12 7C14.7241 7 17 9.13309 17 11.8462C17 13.4485 16.1982 14.8579 14.986 15.7337C14.8214 15.8525 14.7032 16.0286 14.6214 16.2494C14.5383 16.4734 14.5097 16.7 14.5016 16.8457C14.4684 17.4415 13.9817 18 13.2894 18H10.7106C10.0183 18 9.53156 17.4415 9.49838 16.8457C9.49027 16.7 9.46166 16.4734 9.37865 16.2494C9.29682 16.0286 9.17855 15.8525 9.01401 15.7337C7.80179 14.8579 7 13.4485 7 11.8462Z" fill="#2463EB"/>
<path fill-rule="evenodd" clip-rule="evenodd" d="M10 20C10 19.4477 10.4477 19 11 19H13C13.5523 19 14 19.4477 14 20C14 20.5523 13.5523 21 13 21H11C10.4477 21 10 20.5523 10 20Z" fill="#2463EB"/>
<path fill-rule="evenodd" clip-rule="evenodd" d="M12 1C12.5523 1 13 1.44772 13 2V5C13 5.55228 12.5523 6 12 6C11.4477 6 11 5.55228 11 5V2C11 1.44772 11.4477 1 12 1Z" fill="#2463EB"/>
<path fill-rule="evenodd" clip-rule="evenodd" d="M20.1213 5.29289C19.7308 4.90237 19.0976 4.90237 18.7071 5.29289L17.2929 6.70711C16.9024 7.09763 16.9024 7.7308 17.2929 8.12132C17.6834 8.51184 18.3166 8.51184 18.7071 8.12132L20.1213 6.70711C20.5118 6.31658 20.5118 5.68342 20.1213 5.29289Z" fill="#2463EB"/>
<path fill-rule="evenodd" clip-rule="evenodd" d="M3.29289 5.29289C3.68342 4.90237 4.31658 4.90237 4.70711 5.29289L6.12132 6.70711C6.51184 7.09763 6.51184 7.7308 6.12132 8.12132C5.7308 8.51184 5.09763 8.51184 4.70711 8.12132L3.29289 6.70711C2.90237 6.31658 2.90237 5.68342 3.29289 5.29289Z" fill="#2463EB"/>
</g>
</g>
</svg>
