<svg width="33" height="32" viewBox="0 0 33 32" fill="none" xmlns="http://www.w3.org/2000/svg">
<g id="Frame 189">
<g id="Union">
<path d="M6.66602 5C5.00916 5 3.66602 6.34315 3.66602 8V19H3.16602C1.7853 19 0.666016 20.1193 0.666016 21.5C0.666016 22.8807 1.7853 24 3.16602 24H18.666V22H3.16602C2.88987 22 2.66602 21.7761 2.66602 21.5C2.66602 21.2239 2.88987 21 3.16602 21H16.166V19H5.66602V8C5.66602 7.44772 6.11373 7 6.66602 7H22.666C23.2183 7 23.666 7.44772 23.666 8V10H25.666V8C25.666 6.34315 24.3229 5 22.666 5H6.66602Z" fill="#FAFAFA"/>
<path fill-rule="evenodd" clip-rule="evenodd" d="M28.1108 21.0304C29.0772 19.9653 29.666 18.5514 29.666 17C29.666 13.6863 26.9797 11 23.666 11C20.3523 11 17.666 13.6863 17.666 17C17.666 20.3137 20.3523 23 23.666 23C24.702 23 25.6767 22.7374 26.5271 22.2752L28.959 24.707C29.3495 25.0976 29.9827 25.0976 30.3732 24.707C30.7637 24.3165 30.7637 23.6833 30.3732 23.2928L28.1108 21.0304ZM23.666 21C25.8752 21 27.666 19.2091 27.666 17C27.666 14.7909 25.8752 13 23.666 13C21.4569 13 19.666 14.7909 19.666 17C19.666 19.2091 21.4569 21 23.666 21Z" fill="#FAFAFA"/>
</g>
</g>
</svg>
