<svg width="24" height="24" viewBox="0 0 24 24" fill="none" xmlns="http://www.w3.org/2000/svg">
<g id="Lines">
<path id="Vector (Stroke)" fill-rule="evenodd" clip-rule="evenodd" d="M12 0C13.1046 0 14 0.767512 14 1.71429V22.2857C14 23.2325 13.1046 24 12 24C10.8954 24 10 23.2325 10 22.2857V1.71429C10 0.767512 10.8954 0 12 0ZM4 6C5.10457 6 6 6.76751 6 7.71429V16.2857C6 17.2325 5.10457 18 4 18C2.89543 18 2 17.2325 2 16.2857V7.71429C2 6.76751 2.89543 6 4 6ZM20 6C21.1046 6 22 6.76751 22 7.71429V16.2857C22 17.2325 21.1046 18 20 18C18.8954 18 18 17.2325 18 16.2857V7.71429C18 6.76751 18.8954 6 20 6Z" fill="#2463EB"/>
</g>
</svg>
