<svg width="32" height="32" viewBox="0 0 32 32" fill="none" xmlns="http://www.w3.org/2000/svg">
<g clip-path="url(#clip0_15_12)">
<path d="M16 0C7.16344 0 0 7.16344 0 16C0 24.8366 7.16344 32 16 32C24.8366 32 32 24.8366 32 16C32 7.16344 24.8366 0 16 0ZM11.4647 23.9167H7.89881V12.7283H11.4647V23.9167ZM9.68175 11.263C9.28495 11.263 8.89706 11.1453 8.56714 10.9249C8.23721 10.7044 7.98006 10.3911 7.82822 10.0245C7.67637 9.65791 7.63664 9.25452 7.71405 8.86535C7.79146 8.47618 7.98254 8.1187 8.26312 7.83812C8.5437 7.55754 8.90118 7.36646 9.29035 7.28905C9.67952 7.21164 10.0829 7.25137 10.4495 7.40322C10.8161 7.55507 11.1294 7.81221 11.3499 8.14214C11.5703 8.47206 11.688 8.85995 11.688 9.25675C11.688 9.78884 11.4766 10.2991 11.1004 10.6754C10.7241 11.0516 10.2138 11.263 9.68175 11.263ZM24.325 23.9167H20.825V17.7991C20.825 17.4883 20.8741 15.4272 19.1238 15.4272C18.8128 15.4195 18.5045 15.4869 18.2251 15.6238C17.9456 15.7606 17.7033 15.9628 17.5187 16.2132C17.1973 16.6421 17.0256 17.1648 17.0301 17.7008V23.9164H13.5344V12.7283H16.8604V14.2986C17.6564 13.0772 18.6597 12.6302 19.6465 12.4502C21.3982 12.1309 24.3247 13.1973 24.3247 16.3815L24.325 23.9167Z" fill="white"/>
</g>
<defs>
<clipPath id="clip0_15_12">
<rect width="32" height="32" fill="white"/>
</clipPath>
</defs>
</svg>
