<svg width="25" height="24" viewBox="0 0 25 24" fill="none" xmlns="http://www.w3.org/2000/svg">
<path fill-rule="evenodd" clip-rule="evenodd" d="M10.5 10C9.94771 10 9.5 10.4477 9.5 11V17.6363C9.5 18.1886 9.94771 18.6363 10.5 18.6363H18.051C18.6007 18.6363 19.1397 18.7874 19.6092 19.0728L21.5 20.222L21.5 11C21.5 10.4477 21.0523 10 20.5 10H10.5ZM7.5 11C7.5 9.34315 8.84315 8 10.5 8H20.5C22.1569 8 23.5 9.34315 23.5 11V20.222C23.5 21.7816 21.7941 22.7412 20.4612 21.931C20.4612 21.931 20.4612 21.9311 20.4612 21.931L18.5704 20.7818C18.4137 20.6866 18.2341 20.6363 18.051 20.6363H10.5C8.84315 20.6363 7.5 19.2932 7.5 17.6363V11Z" fill="#2463EB"/>
<path fill-rule="evenodd" clip-rule="evenodd" d="M5.5 6C4.94771 6 4.5 6.44771 4.5 7V13C4.5 13.5523 4.94771 14 5.5 14H7.7C8.25228 14 8.7 14.4477 8.7 15C8.7 15.5523 8.25228 16 7.7 16H5.5C3.84315 16 2.5 14.6569 2.5 13V7C2.5 5.34315 3.84315 4 5.5 4H15.5C17.1569 4 18.5 5.34315 18.5 7V8.49158C18.5 9.04386 18.0523 9.49158 17.5 9.49158C16.9477 9.49158 16.5 9.04386 16.5 8.49158V7C16.5 6.44771 16.0523 6 15.5 6H5.5Z" fill="#2463EB"/>
</svg>
