<svg width="32" height="32" viewBox="0 0 32 32" fill="none" xmlns="http://www.w3.org/2000/svg">
<g id="Frame 189">
<g id="Union">
<path d="M24.6061 19.7046C25.0454 20.0393 25.1302 20.6668 24.7955 21.1061L20.7548 26.4095L17.3861 23.7894C16.9502 23.4503 16.8716 22.8221 17.2107 22.3861C17.5498 21.9502 18.178 21.8716 18.614 22.2107L20.3882 23.5906L23.2046 19.894C23.5393 19.4547 24.1668 19.3699 24.6061 19.7046Z" fill="#2463EB"/>
<path fill-rule="evenodd" clip-rule="evenodd" d="M22 15.0619L22 5C22 3.34315 20.6569 2 19 2H9C7.34315 2 6 3.34314 6 5V23C6 24.6569 7.34315 26 9 26H13.5815C14.7683 28.9318 17.6426 31 21 31C25.4183 31 29 27.4183 29 23C29 18.9204 25.9463 15.554 22 15.0619ZM20 15.0619L20 5C20 4.44772 19.5523 4 19 4L9 4C8.44772 4 8 4.44772 8 5L8 23C8 23.5523 8.44771 24 9 24H13.0619C13.021 23.6724 13 23.3387 13 23C13 18.9204 16.0537 15.554 20 15.0619ZM27 23C27 26.3137 24.3137 29 21 29C17.6863 29 15 26.3137 15 23C15 19.6863 17.6863 17 21 17C24.3137 17 27 19.6863 27 23Z" fill="#2463EB"/>
</g>
</g>
</svg>
