<svg width="22" height="20" viewBox="0 0 22 20" fill="none" xmlns="http://www.w3.org/2000/svg">
<path fill-rule="evenodd" clip-rule="evenodd" d="M1.53857 4C1.53857 2.34315 2.88172 1 4.53857 1H15.9232C17.58 1 18.9232 2.34315 18.9232 4V5.48416H16.9232V4C16.9232 3.44771 16.4755 3 15.9232 3H4.53857C3.98629 3 3.53857 3.44772 3.53857 4V12.7692H1.53857V4Z" fill="#2463EB"/>
<path fill-rule="evenodd" clip-rule="evenodd" d="M19 15.3846L19 8.61536L16.0769 8.61536L16.0769 15.3846L19 15.3846ZM21 8.61536C21 7.51079 20.1046 6.61536 19 6.61536L16.0769 6.61536C14.9724 6.61536 14.0769 7.51079 14.0769 8.61536L14.0769 15.3846C14.0769 16.4892 14.9724 17.3846 16.0769 17.3846L19 17.3846C20.1046 17.3846 21 16.4892 21 15.3846L21 8.61536Z" fill="#2463EB"/>
<path fill-rule="evenodd" clip-rule="evenodd" d="M0 13.9231C0 12.7336 0.96431 11.7693 2.15385 11.7693H13.5385V13.7693H2.15385C2.06888 13.7693 2 13.8382 2 13.9231C2 14.0081 2.06888 14.077 2.15385 14.077H13.5385V16.077H2.15385C0.964313 16.077 0 15.1127 0 13.9231Z" fill="#2463EB"/>
</svg>
