<svg width="25" height="24" viewBox="0 0 25 24" fill="none" xmlns="http://www.w3.org/2000/svg">
<path fill-rule="evenodd" clip-rule="evenodd" d="M5.5 4.50024C4.94771 4.50024 4.5 4.94796 4.5 5.50024V15C4.5 15.5523 4.94771 16 5.5 16H20C20.5523 16 21 16.4477 21 17C21 17.5523 20.5523 18 20 18H5.5C3.84315 18 2.5 16.6569 2.5 15V5.50024C2.5 3.84339 3.84315 2.50024 5.5 2.50024H9.72222C10.2745 2.50024 10.7222 2.94796 10.7222 3.50024C10.7222 4.05253 10.2745 4.50024 9.72222 4.50024H5.5Z" fill="#2463EB"/>
<path fill-rule="evenodd" clip-rule="evenodd" d="M12.5 16C13.0523 16 13.5 16.4477 13.5 17V20C13.5 20.5523 13.0523 21 12.5 21C11.9477 21 11.5 20.5523 11.5 20V17C11.5 16.4477 11.9477 16 12.5 16Z" fill="#2463EB"/>
<path fill-rule="evenodd" clip-rule="evenodd" d="M8.5 20C8.5 19.4477 8.94772 19 9.5 19H15.5C16.0523 19 16.5 19.4477 16.5 20C16.5 20.5523 16.0523 21 15.5 21H9.5C8.94772 21 8.5 20.5523 8.5 20Z" fill="#2463EB"/>
<path fill-rule="evenodd" clip-rule="evenodd" d="M16.5 5C14.8431 5 13.5 6.34315 13.5 8C13.5 9.65685 14.8431 11 16.5 11C18.1569 11 19.5 9.65685 19.5 8C19.5 6.34315 18.1569 5 16.5 5ZM11.5 8C11.5 5.23858 13.7386 3 16.5 3C19.2614 3 21.5 5.23858 21.5 8C21.5 10.7614 19.2614 13 16.5 13C13.7386 13 11.5 10.7614 11.5 8Z" fill="#2463EB"/>
<path fill-rule="evenodd" clip-rule="evenodd" d="M18.7929 10.2929C19.1834 9.90237 19.8166 9.90237 20.2071 10.2929L23.2071 13.2929C23.5976 13.6834 23.5976 14.3166 23.2071 14.7071C22.8166 15.0976 22.1834 15.0976 21.7929 14.7071L18.7929 11.7071C18.4024 11.3166 18.4024 10.6834 18.7929 10.2929Z" fill="#2463EB"/>
</svg>
