<svg width="24" height="24" viewBox="0 0 24 24" fill="none" xmlns="http://www.w3.org/2000/svg">
<path fill-rule="evenodd" clip-rule="evenodd" d="M12 3C8.13401 3 5 6.13401 5 10C5 12.4177 6.07464 14.6241 7.47659 16.467C8.87507 18.3053 10.5411 19.7042 11.5794 20.4839C11.8352 20.676 12.1648 20.676 12.4206 20.4839C13.4589 19.7042 15.1249 18.3053 16.5234 16.467C17.9254 14.6241 19 12.4177 19 10C19 6.13401 15.866 3 12 3ZM3 10C3 5.02944 7.02944 1 12 1C16.9706 1 21 5.02944 21 10C21 13.017 19.6635 15.6426 18.1152 17.6779C16.5634 19.7178 14.74 21.2433 13.6216 22.0831C12.6543 22.8096 11.3457 22.8096 10.3784 22.0831C9.26003 21.2433 7.43663 19.7177 5.88483 17.6779C4.33649 15.6426 3 13.017 3 10Z" fill="#2463EB"/>
<path fill-rule="evenodd" clip-rule="evenodd" d="M12 11.6C13.1046 11.6 14 10.7045 14 9.59998C14 8.49541 13.1046 7.59998 12 7.59998C10.8954 7.59998 10 8.49541 10 9.59998C10 10.7045 10.8954 11.6 12 11.6ZM12 13.6C14.2091 13.6 16 11.8091 16 9.59998C16 7.39084 14.2091 5.59998 12 5.59998C9.79086 5.59998 8 7.39084 8 9.59998C8 11.8091 9.79086 13.6 12 13.6Z" fill="#2463EB"/>
</svg>
