<svg width="33" height="32" viewBox="0 0 33 32" fill="none" xmlns="http://www.w3.org/2000/svg">
<g id="Frame 189">
<g id="Union">
<path d="M15.8027 5.01293C18.3643 4.88866 20.8888 5.66336 22.9398 7.20311C24.4472 8.33475 25.6291 9.82733 26.3862 11.5293L24.8356 10.634C24.3573 10.3579 23.7457 10.5218 23.4695 11.0001C23.1934 11.4784 23.3573 12.09 23.8356 12.3661L27.5098 14.4874C27.9881 14.7636 28.5997 14.5997 28.8758 14.1214L30.9971 10.4472C31.2733 9.96887 31.1094 9.35728 30.6311 9.08114C30.1528 8.80499 29.5412 8.96887 29.2651 9.44716L28.3495 11.0331C27.4635 8.89013 26.0149 7.01079 24.1406 5.60368C21.7167 3.78397 18.7331 2.86841 15.7058 3.01528C12.6784 3.16215 9.79746 4.36222 7.56109 6.40801C5.32472 8.4538 3.87348 11.2167 3.45826 14.2191C3.3826 14.7662 3.76476 15.271 4.31183 15.3466C4.85891 15.4223 5.36374 15.0401 5.4394 14.4931C5.79074 11.9526 7.01872 9.61476 8.91103 7.8837C10.8033 6.15265 13.241 5.13721 15.8027 5.01293Z" fill="#2463EB"/>
<path d="M29.2056 17.8388C29.2837 17.2921 28.9038 16.7855 28.3571 16.7074C27.8103 16.6293 27.3038 17.0092 27.2257 17.556C26.8612 20.1072 25.6126 22.4495 23.6976 24.1741C21.7826 25.8988 19.3229 26.8963 16.7475 26.9926C14.1722 27.089 11.6448 26.2781 9.60631 24.7014C8.02584 23.4789 6.81704 21.8564 6.09538 20.016L7.88832 20.4964C8.42178 20.6393 8.97012 20.3227 9.11306 19.7893C9.256 19.2558 8.93942 18.7075 8.40595 18.5645L4.96215 17.6418C4.90524 17.6208 4.84621 17.6049 4.78572 17.5945L4.30668 17.4661C3.77322 17.3232 3.22488 17.6398 3.08194 18.1732L1.98354 22.2725C1.8406 22.806 2.15718 23.3543 2.69065 23.4973C3.22411 23.6402 3.77245 23.3236 3.91539 22.7902L4.37212 21.0856C5.23711 23.1206 6.61268 24.9143 8.38269 26.2834C10.7918 28.1468 13.7788 29.1051 16.8223 28.9912C19.8659 28.8774 22.7729 27.6985 25.036 25.6602C27.2992 23.622 28.7749 20.8539 29.2056 17.8388Z" fill="#2463EB"/>
</g>
</g>
</svg>
