<svg width="24" height="20" viewBox="0 0 24 20" fill="none" xmlns="http://www.w3.org/2000/svg">
<g clip-path="url(#clip0_201_37)">
<path fill-rule="evenodd" clip-rule="evenodd" d="M21.1665 11C21.1665 8.79086 19.3756 7 17.1665 7L7.1665 7C4.95737 7 3.1665 8.79086 3.1665 11C3.1665 13.2091 4.95737 15 7.1665 15L17.1665 15C19.3756 15 21.1665 13.2091 21.1665 11ZM17.1665 5C20.4802 5 23.1665 7.68629 23.1665 11C23.1665 14.3137 20.4802 17 17.1665 17H7.1665C3.85279 17 1.1665 14.3137 1.1665 11C1.1665 7.68629 3.85279 5 7.1665 5L17.1665 5Z" fill="#2463EB"/>
<path fill-rule="evenodd" clip-rule="evenodd" d="M12.1665 0C13.2711 0 14.1665 0.89543 14.1665 2C14.1665 3.10457 13.2711 4 12.1665 4C11.0619 4 10.1665 3.10457 10.1665 2C10.1665 0.89543 11.0619 0 12.1665 0Z" fill="#2463EB"/>
<path fill-rule="evenodd" clip-rule="evenodd" d="M9.1665 11C9.1665 10.4477 8.71879 10 8.1665 10C7.61422 10 7.1665 10.4477 7.1665 11C7.1665 11.5523 7.61422 12 8.1665 12C8.71879 12 9.1665 11.5523 9.1665 11ZM8.1665 8C9.82336 8 11.1665 9.34315 11.1665 11C11.1665 12.6569 9.82336 14 8.1665 14C6.50965 14 5.1665 12.6569 5.1665 11C5.1665 9.34315 6.50965 8 8.1665 8Z" fill="#2463EB"/>
<path fill-rule="evenodd" clip-rule="evenodd" d="M17.1665 11C17.1665 10.4477 16.7188 10 16.1665 10C15.6142 10 15.1665 10.4477 15.1665 11C15.1665 11.5523 15.6142 12 16.1665 12C16.7188 12 17.1665 11.5523 17.1665 11ZM16.1665 8C17.8234 8 19.1665 9.34315 19.1665 11C19.1665 12.6569 17.8234 14 16.1665 14C14.5096 14 13.1665 12.6569 13.1665 11C13.1665 9.34315 14.5096 8 16.1665 8Z" fill="#2463EB"/>
<path fill-rule="evenodd" clip-rule="evenodd" d="M12.1665 2C12.7188 2 13.1665 2.44772 13.1665 3V6C13.1665 6.55228 12.7188 7 12.1665 7C11.6142 7 11.1665 6.55228 11.1665 6V3C11.1665 2.44772 11.6142 2 12.1665 2Z" fill="#2463EB"/>
<path fill-rule="evenodd" clip-rule="evenodd" d="M10.1665 15C10.7188 15 11.1665 15.4477 11.1665 16V19C11.1665 19.5523 10.7188 20 10.1665 20C9.61422 20 9.1665 19.5523 9.1665 19V16C9.1665 15.4477 9.61422 15 10.1665 15Z" fill="#2463EB"/>
<path fill-rule="evenodd" clip-rule="evenodd" d="M15.1665 15C15.7188 15 16.1665 15.4477 16.1665 16V19C16.1665 19.5523 15.7188 20 15.1665 20C14.6142 20 14.1665 19.5523 14.1665 19V16C14.1665 15.4477 14.6142 15 15.1665 15Z" fill="#2463EB"/>
</g>
<defs>
<clipPath id="clip0_201_37">
<rect width="23" height="20" fill="white" transform="translate(0.5)"/>
</clipPath>
</defs>
</svg>
