<svg width="32" height="32" viewBox="0 0 32 32" fill="none" xmlns="http://www.w3.org/2000/svg">
<path fill-rule="evenodd" clip-rule="evenodd" d="M24.799 17.7994C27.9232 14.6752 27.9232 9.60992 24.799 6.48572C21.6748 3.36153 16.6095 3.36153 13.4853 6.48572C10.3611 9.60992 10.3611 14.6752 13.4853 17.7994C16.6095 20.9236 21.6748 20.9236 24.799 17.7994ZM26.2132 19.2136C30.1184 15.3084 30.1184 8.97675 26.2132 5.07151C22.308 1.16627 15.9763 1.16627 12.0711 5.07151C8.16582 8.97675 8.16582 15.3084 12.0711 19.2136C15.9763 23.1189 22.308 23.1189 26.2132 19.2136Z" fill="#FAFAFA"/>
<path fill-rule="evenodd" clip-rule="evenodd" d="M29.7485 24.1627L24.7988 19.213L26.213 17.7988L31.1627 22.7485C31.5532 23.139 31.5532 23.7722 31.1627 24.1627C30.7722 24.5532 30.139 24.5532 29.7485 24.1627Z" fill="#FAFAFA"/>
<path fill-rule="evenodd" clip-rule="evenodd" d="M3 18.0004H11V30.0004H3V18.0004ZM5 20.0004V28.0004H9V20.0004H5Z" fill="#FAFAFA"/>
<path fill-rule="evenodd" clip-rule="evenodd" d="M14 10.0004H23V21.0004H21V12.0004H16V21.0004H14V10.0004Z" fill="#FAFAFA"/>
<path fill-rule="evenodd" clip-rule="evenodd" d="M15 19.0004V28.0004H19V20.3048H21V30.0004H13V19.0004H15Z" fill="#FAFAFA"/>
</svg>
