<svg width="24" height="24" viewBox="0 0 24 24" fill="none" xmlns="http://www.w3.org/2000/svg">
<path fill-rule="evenodd" clip-rule="evenodd" d="M3.9519 3.9519C4.5614 3.34241 5.38805 3 6.25 3H8.5C9.36195 3 10.1886 3.34241 10.7981 3.9519C11.4076 4.5614 11.75 5.38805 11.75 6.25V8.5C11.75 9.36195 11.4076 10.1886 10.7981 10.7981C10.1886 11.4076 9.36195 11.75 8.5 11.75H6.25C5.38805 11.75 4.5614 11.4076 3.9519 10.7981C3.34241 10.1886 3 9.36195 3 8.5V6.25C3 5.38805 3.34241 4.5614 3.9519 3.9519ZM6.25 5C5.91848 5 5.60054 5.1317 5.36612 5.36612C5.1317 5.60054 5 5.91848 5 6.25V8.5C5 8.83152 5.1317 9.14946 5.36612 9.38388C5.60054 9.6183 5.91848 9.75 6.25 9.75H8.5C8.83152 9.75 9.14946 9.6183 9.38388 9.38388C9.6183 9.14946 9.75 8.83152 9.75 8.5V6.25C9.75 5.91848 9.6183 5.60054 9.38388 5.36612C9.14946 5.1317 8.83152 5 8.5 5H6.25ZM13.7019 3.9519C14.3114 3.34241 15.138 3 16 3H18.25C19.112 3 19.9386 3.34241 20.5481 3.9519C21.1576 4.5614 21.5 5.38805 21.5 6.25V8.5C21.5 9.36195 21.1576 10.1886 20.5481 10.7981C19.9386 11.4076 19.112 11.75 18.25 11.75H16C15.138 11.75 14.3114 11.4076 13.7019 10.7981C13.0924 10.1886 12.75 9.36195 12.75 8.5V6.25C12.75 5.38805 13.0924 4.5614 13.7019 3.9519ZM16 5C15.6685 5 15.3505 5.1317 15.1161 5.36612C14.8817 5.60054 14.75 5.91848 14.75 6.25V8.5C14.75 8.83152 14.8817 9.14946 15.1161 9.38388C15.3505 9.6183 15.6685 9.75 16 9.75H18.25C18.5815 9.75 18.8995 9.6183 19.1339 9.38388C19.3683 9.14946 19.5 8.83152 19.5 8.5V6.25C19.5 5.91848 19.3683 5.60054 19.1339 5.36612C18.8995 5.1317 18.5815 5 18.25 5H16ZM3.9519 13.7019C4.5614 13.0924 5.38805 12.75 6.25 12.75H8.5C9.36195 12.75 10.1886 13.0924 10.7981 13.7019C11.4076 14.3114 11.75 15.138 11.75 16V18.25C11.75 19.112 11.4076 19.9386 10.7981 20.5481C10.1886 21.1576 9.36195 21.5 8.5 21.5H6.25C5.38805 21.5 4.5614 21.1576 3.9519 20.5481C3.34241 19.9386 3 19.112 3 18.25V16C3 15.138 3.34241 14.3114 3.9519 13.7019ZM6.25 14.75C5.91848 14.75 5.60054 14.8817 5.36612 15.1161C5.1317 15.3505 5 15.6685 5 16V18.25C5 18.5815 5.1317 18.8995 5.36612 19.1339C5.60054 19.3683 5.91848 19.5 6.25 19.5H8.5C8.83152 19.5 9.14946 19.3683 9.38388 19.1339C9.6183 18.8995 9.75 18.5815 9.75 18.25V16C9.75 15.6685 9.6183 15.3505 9.38388 15.1161C9.14946 14.8817 8.83152 14.75 8.5 14.75H6.25ZM17.125 12.75C17.6773 12.75 18.125 13.1977 18.125 13.75V16.125H20.5C21.0523 16.125 21.5 16.5727 21.5 17.125C21.5 17.6773 21.0523 18.125 20.5 18.125H18.125V20.5C18.125 21.0523 17.6773 21.5 17.125 21.5C16.5727 21.5 16.125 21.0523 16.125 20.5V18.125H13.75C13.1977 18.125 12.75 17.6773 12.75 17.125C12.75 16.5727 13.1977 16.125 13.75 16.125H16.125V13.75C16.125 13.1977 16.5727 12.75 17.125 12.75Z" fill="#2463EB"/>
</svg>
