<svg width="24" height="24" viewBox="0 0 24 24" fill="none" xmlns="http://www.w3.org/2000/svg">
<path d="M10.3963 2.27431C10.4673 1.90857 10.9907 1.90856 11.0617 2.2743L12.339 8.85091C12.3654 8.98656 12.4715 9.09265 12.6071 9.119L19.1838 10.3963C19.5495 10.4673 19.5495 10.9907 19.1838 11.0617L12.6071 12.339C12.4715 12.3654 12.3654 12.4715 12.339 12.6071L11.0617 19.1838C10.9907 19.5495 10.4673 19.5495 10.3963 19.1838L9.119 12.6071C9.09265 12.4715 8.98658 12.3654 8.85091 12.339L2.27431 11.0617C1.90857 10.9907 1.90856 10.4673 2.2743 10.3963L8.85091 9.119C8.98656 9.09265 9.09265 8.98658 9.119 8.85091L10.3963 2.27431Z" fill="#2463EB"/>
<path d="M17.5984 14.1366C17.6695 13.7709 18.1928 13.7709 18.2639 14.1366L18.7833 16.8109C18.8096 16.9466 18.9156 17.0527 19.0513 17.079L21.7256 17.5984C22.0914 17.6695 22.0914 18.1928 21.7256 18.2639L19.0513 18.7833C18.9156 18.8096 18.8096 18.9156 18.7833 19.0513L18.2639 21.7256C18.1928 22.0914 17.6695 22.0914 17.5984 21.7256L17.079 19.0513C17.0527 18.9156 16.9466 18.8096 16.8109 18.7833L14.1366 18.2639C13.7709 18.1928 13.7709 17.6695 14.1366 17.5984L16.8109 17.079C16.9466 17.0527 17.0527 16.9466 17.079 16.8109L17.5984 14.1366Z" fill="#2463EB"/>
</svg>
