<svg width="24" height="24" viewBox="0 0 24 24" fill="none" xmlns="http://www.w3.org/2000/svg">
<g id="icon sections">
<g id="Union">
<path d="M11.2196 8.07686C11.9956 7.92252 12.7998 8.00173 13.5307 8.30448C14.2616 8.60723 14.8864 9.11992 15.3259 9.77772C15.7654 10.4355 16 11.2089 16 12C16 12.5523 16.4477 13 17 13C17.5523 13 18 12.5523 18 12C18 10.8133 17.6481 9.65328 16.9888 8.66658C16.3295 7.67989 15.3925 6.91085 14.2961 6.45673C13.1997 6.0026 11.9933 5.88378 10.8295 6.11529C9.66557 6.3468 8.59648 6.91825 7.75736 7.75736C6.91825 8.59648 6.3468 9.66557 6.11529 10.8295C5.88378 11.9933 6.0026 13.1997 6.45673 14.2961C6.91085 15.3925 7.67989 16.3295 8.66658 16.9888C9.65328 17.6481 10.8133 18 12 18C12.5523 18 13 17.5523 13 17C13 16.4477 12.5523 16 12 16C11.2089 16 10.4355 15.7654 9.77772 15.3259C9.11992 14.8864 8.60723 14.2616 8.30448 13.5307C8.00173 12.7998 7.92252 11.9956 8.07686 11.2196C8.2312 10.4437 8.61216 9.73098 9.17157 9.17157C9.73098 8.61216 10.4437 8.2312 11.2196 8.07686Z" fill="#2463EB"/>
<path fill-rule="evenodd" clip-rule="evenodd" d="M22 12C22 14.4013 21.1536 16.6049 19.7429 18.3287L20.2071 18.7929C20.5976 19.1834 20.5976 19.8166 20.2071 20.2071C19.8166 20.5976 19.1834 20.5976 18.7929 20.2071L18.3287 19.7429C16.6049 21.1536 14.4013 22 12 22C6.47715 22 2 17.5228 2 12C2 6.47715 6.47715 2 12 2C17.5228 2 22 6.47715 22 12ZM20 12C20 13.8487 19.3729 15.551 18.3199 16.9056L14.3509 12.9367C14.7301 12.7946 15 12.4288 15 12C15 11.4477 14.5523 11 14 11H12C11.4477 11 11 11.4477 11 12V14C11 14.5523 11.4477 15 12 15C12.4288 15 12.7946 14.7301 12.9367 14.3509L16.9056 18.3199C15.551 19.3729 13.8487 20 12 20C7.58172 20 4 16.4183 4 12C4 7.58172 7.58172 4 12 4C16.4183 4 20 7.58172 20 12Z" fill="#2463EB"/>
</g>
</g>
</svg>
