<svg width="200" height="88" viewBox="0 0 200 88" fill="none" xmlns="http://www.w3.org/2000/svg">
<path d="M68.0001 38.9855C68.0001 53.0696 58.7917 65.4978 45.318 69.5989L44.2912 69.9114C44.1014 69.9691 43.8987 69.9691 43.7089 69.9114L42.6821 69.5989C29.2084 65.4978 20.0001 53.0696 20.0001 38.9855L20.0001 21.1412L44.0001 18L68.0001 21.1412L68.0001 38.9855Z" stroke="white" stroke-width="1.5"/>
<circle cx="44.0001" cy="43" r="14" fill="#00DF82"/>
<path d="M38.0714 43.8264L42.9778 47.5382L49.9285 38.0525" stroke="#333333" stroke-width="1.5"/>
<g clip-path="url(#clip0_4610_3709)">
<path fill-rule="evenodd" clip-rule="evenodd" d="M132.373 51.3466C133.34 52.7966 134.5 54.0532 135.853 55.1166C137.98 54.5366 140.203 54.1499 142.717 53.8599C142.427 53.0866 142.233 52.2166 141.943 51.3466H143.2C143.393 52.2166 143.683 52.9899 143.877 53.7632C145.52 53.6666 147.163 53.5699 148.903 53.5699C150.74 53.5699 152.48 53.6666 154.22 53.7632C154.51 52.9899 154.703 52.2166 154.993 51.3466H156.347C156.153 52.2166 155.863 53.0866 155.573 53.9566C157.99 54.2466 160.31 54.6332 162.34 55.2132C163.693 54.0532 164.853 52.7966 165.82 51.3466H167.367C163.5 57.4366 156.733 61.3999 149 61.3999C141.267 61.3999 134.5 57.3399 130.633 51.3466H132.373ZM149 54.8266C147.453 54.8266 145.907 54.9232 144.457 55.0199C145.81 58.2099 147.55 60.2399 149.193 60.2399C150.837 60.2399 152.577 58.3066 153.93 55.1166C152.287 54.9232 150.643 54.8266 149 54.8266ZM155.187 55.2132C154.413 57.2432 153.35 58.8866 152.287 59.9499C155.477 59.4666 158.57 58.0166 161.083 56.1799C159.343 55.6966 157.313 55.4066 155.187 55.2132ZM143.103 55.1166C140.977 55.3099 138.947 55.6966 137.11 56.0832C139.623 57.9199 142.717 59.3699 146.003 59.8532C144.94 58.8866 143.877 57.1466 143.103 55.1166ZM145.133 29.8866C146.39 29.8866 147.647 29.9832 149.387 30.1766H153.833V35.8799H149.29V34.7199C148.613 34.3332 147.067 33.9466 145.423 33.9466C143.297 33.9466 142.523 34.5266 142.523 35.3966C142.523 38.6832 154.703 34.9132 154.703 43.2266C154.703 46.7066 152.383 49.5099 145.52 49.5099C144.263 49.5099 142.717 49.3166 141.073 49.1232H136.917V43.9999H141.073V44.7732C141.75 45.1599 143.297 45.5466 145.133 45.5466C147.453 45.5466 148.42 44.9666 148.42 44.0966C148.42 41.0032 136.433 44.5799 136.433 36.2666C136.24 31.7232 139.817 29.8866 145.133 29.8866ZM165.723 29.8866C171.813 29.8866 176.067 33.3666 176.067 39.6499C176.067 45.9332 171.717 49.4132 165.723 49.4132C159.73 49.4132 155.38 45.9332 155.38 39.6499C155.38 33.3666 159.73 29.8866 165.723 29.8866ZM135.08 30.3699V34.9132H131.987V44.3866H135.08V48.9299H122.9V44.3866H125.993V34.9132H122.9V30.3699H135.08ZM165.723 34.2366C163.307 34.2366 161.857 35.7832 161.857 39.5532C161.857 43.3232 163.403 44.8699 165.723 44.8699C168.14 44.8699 169.59 43.3232 169.59 39.5532C169.59 35.7832 168.14 34.2366 165.723 34.2366ZM149.193 17.8999C156.927 17.8999 163.693 21.9599 167.56 27.9532H166.013C165.047 26.5032 163.887 25.2466 162.533 24.1832C160.503 24.7632 158.183 25.1499 155.67 25.4399C155.96 26.2132 156.153 27.0832 156.443 27.9532H155.09C154.897 27.0832 154.607 26.3099 154.413 25.5366C152.77 25.6332 151.127 25.7299 149.387 25.7299C147.55 25.7299 145.81 25.6332 144.07 25.5366C143.78 26.3099 143.587 27.0832 143.297 27.9532H141.943C142.137 27.0832 142.427 26.2132 142.717 25.3432C140.3 25.0532 137.98 24.6666 135.95 24.0866C134.597 25.2466 133.437 26.5032 132.47 27.9532H130.923C134.693 21.9599 141.46 17.8999 149.193 17.8999ZM149.193 19.1566C147.55 19.1566 145.81 21.0899 144.457 24.2799C146.003 24.3766 147.647 24.4732 149.29 24.4732C150.837 24.4732 152.383 24.3766 153.833 24.2799C152.48 21.0899 150.837 19.1566 149.193 19.1566ZM152.287 19.3499C153.35 20.4132 154.413 22.0566 155.187 24.1832C157.313 23.9899 159.343 23.6032 161.18 23.2166C158.667 21.2832 155.573 19.9299 152.287 19.3499ZM146.003 19.3499C142.813 19.8332 139.72 21.2832 137.207 23.1199C139.043 23.6032 141.073 23.8932 143.103 24.1832C143.877 22.0566 144.94 20.4132 146.003 19.3499Z" fill="white"/>
<path d="M146.228 69.1672V68.7806H144.585C144.488 68.7806 144.391 68.7806 144.198 68.8772V68.7806C144.391 68.6839 144.391 68.5872 144.488 68.5872L145.068 68.1039C145.648 67.6206 146.035 67.1372 146.035 66.5572C146.035 65.8806 145.551 65.4939 144.875 65.4939C144.101 65.4939 143.715 65.9772 143.618 66.7506H144.101C144.101 66.1706 144.391 65.8806 144.875 65.8806C145.358 65.8806 145.551 66.1706 145.551 66.5572C145.551 67.0406 145.261 67.4272 144.778 67.8139L143.618 68.7806V69.1672H146.228Z" fill="white"/>
<path d="M147.291 69.1672L149.031 65.8806V65.4939H146.421V65.8806H148.161C148.355 65.8806 148.451 65.8806 148.645 65.7839V65.8806C148.451 65.9772 148.451 66.0739 148.355 66.2672L146.808 69.2639H147.291V69.1672Z" fill="white"/>
<path d="M150.771 69.1672C151.545 69.1672 152.028 68.5872 152.028 67.3306C152.028 66.0739 151.545 65.3972 150.771 65.3972C149.998 65.3972 149.515 65.9772 149.515 67.3306C149.515 68.5872 149.998 69.1672 150.771 69.1672ZM150.771 68.7806C150.288 68.7806 149.901 68.2972 149.901 67.3306C149.901 66.3639 150.191 65.8806 150.675 65.8806C151.158 65.8806 151.545 66.3639 151.545 67.4272C151.641 68.2972 151.255 68.7806 150.771 68.7806Z" fill="white"/>
<path d="M153.961 69.1672C154.735 69.1672 155.218 68.5872 155.218 67.3306C155.218 66.0739 154.735 65.3972 153.961 65.3972C153.188 65.3972 152.705 65.9772 152.705 67.3306C152.705 68.5872 153.188 69.1672 153.961 69.1672ZM153.961 68.7806C153.478 68.7806 153.091 68.2972 153.091 67.3306C153.091 66.3639 153.381 65.8806 153.865 65.8806C154.348 65.8806 154.735 66.3639 154.735 67.4272C154.831 68.2972 154.445 68.7806 153.961 68.7806Z" fill="white"/>
<path d="M157.151 69.1672V65.4939H156.668C156.475 65.7839 156.088 66.1706 155.605 66.2672V66.7506C155.798 66.6539 156.088 66.5572 156.378 66.3639C156.475 66.2672 156.571 66.1706 156.668 66.0739H156.765C156.765 66.1706 156.765 66.2672 156.765 66.3639V69.2639H157.151V69.1672Z" fill="white"/>
</g>
<defs>
<clipPath id="clip0_4610_3709">
<rect width="58" height="58" fill="white" transform="translate(120 15)"/>
</clipPath>
</defs>
</svg>
