<svg width="60" height="60" viewBox="0 0 60 60" fill="none" xmlns="http://www.w3.org/2000/svg">
<path d="M38.1818 21.8181L41.6793 24.6184L46.1971 24.3573L47.3384 28.6272L51.1508 31.005L49.5 35.1136L51.1508 39.2221L47.3384 41.5999L46.1971 45.8698L41.6793 45.6087L38.1818 48.409L34.6843 45.6087L30.1666 45.8698L29.0252 41.5999L25.2129 39.2221L26.8637 35.1136L25.2129 31.005L29.0252 28.6272L30.1666 24.3573L34.6843 24.6184L38.1818 21.8181Z" fill="#00DF82" stroke="#333333" stroke-width="1.02273" stroke-linejoin="round"/>
<circle cx="19.0909" cy="25.2273" r="1.53409" fill="#EEF2F0" stroke="#333333" stroke-width="1.02273"/>
<circle cx="15.6818" cy="17.0455" r="1.53409" fill="#EEF2F0" stroke="#333333" stroke-width="1.02273"/>
<path d="M10.9091 17.0454L13.6364 17.0454" stroke="#333333" stroke-width="1.02273" stroke-linecap="round"/>
<path d="M19.7727 17.0454L25.2273 17.0454" stroke="#333333" stroke-width="1.02273" stroke-linecap="round"/>
<path d="M10.9091 25.2273L17.0455 25.2273" stroke="#333333" stroke-width="1.02273" stroke-linecap="round"/>
<path d="M23.1818 25.2273L25.2273 25.2273" stroke="#333333" stroke-width="1.02273" stroke-linecap="round"/>
<circle cx="42.1926" cy="39.4652" r="2.29612" stroke="#333333" stroke-width="1.02273"/>
<circle cx="34.1711" cy="31.444" r="2.29612" stroke="#333333" stroke-width="1.02273"/>
<path d="M32.9681 40.6684L44.198 29.4385" stroke="#333333" stroke-width="1.02273" stroke-linecap="round"/>
</svg>
