<svg width="88" height="88" viewBox="0 0 88 88" fill="none" xmlns="http://www.w3.org/2000/svg">
<rect x="14" y="13" width="52" height="66" rx="8" fill="#00DF82"/>
<rect x="10.75" y="8.75" width="50.5" height="64.5" rx="7.25" fill="white" stroke="#333333" stroke-width="1.5"/>
<path d="M31 41L20 41" stroke="#333333" stroke-width="1.5" stroke-linecap="square"/>
<path d="M55 41L49 41" stroke="#333333" stroke-width="1.5" stroke-linecap="square"/>
<path d="M36 31L20 31" stroke="#333333" stroke-width="1.5" stroke-linecap="square"/>
<path d="M55 31L49 31" stroke="#333333" stroke-width="1.5" stroke-linecap="square"/>
<path d="M34 21L20 21" stroke="#333333" stroke-width="1.5" stroke-linecap="square"/>
<path d="M55 21L49 21" stroke="#333333" stroke-width="1.5" stroke-linecap="square"/>
<rect x="41.75" y="49.75" width="34.5" height="34.5" rx="17.25" fill="#00DF82" stroke="#333333" stroke-width="1.5"/>
<path d="M53 67.5L58 71.5L65.5 62" stroke="#333333" stroke-width="1.5"/>
<path d="M24.5645 51.9004C25.0528 51.9004 25.4943 51.943 25.8867 52.0303H25.8857C26.2878 52.1077 26.6527 52.2288 26.9795 52.3945L27.0518 52.4316L27.0303 52.5098L26.833 53.2354L26.8018 53.3525L26.6924 53.2998C26.3712 53.1424 26.0401 53.0305 25.6982 52.9658H25.6953C25.3641 52.8919 24.9819 52.8545 24.5488 52.8545C23.6119 52.8545 22.8425 53.1107 22.2344 53.6191L22.1152 53.7246C21.5127 54.2812 21.107 54.9955 20.8936 55.8701H25.5039V56.7529H20.7393C20.7141 56.9684 20.6992 57.1913 20.6992 57.4219C20.6992 57.719 20.7184 58.0079 20.7539 58.2891H25.5039V59.1729H20.9111C21.1448 60.0829 21.566 60.8007 22.1777 61.3301L22.4287 61.5244C23.0326 61.9473 23.7653 62.1602 24.6309 62.1602C24.9969 62.1601 25.3693 62.1225 25.7471 62.0479L26.0273 61.9854C26.3062 61.9155 26.579 61.8247 26.8457 61.7129L26.9639 61.6631L26.9834 61.7891L27.0986 62.5146L27.1104 62.5869L27.0449 62.6201C26.6949 62.7959 26.3065 62.9175 25.8809 62.9854L25.8799 62.9844C25.4578 63.0611 25.0247 63.0996 24.5811 63.0996C23.2462 63.0996 22.1569 62.7386 21.3232 62.0078C20.5116 61.2963 19.9767 60.3492 19.7139 59.1729H17.9004V58.2891H19.5859C19.5603 58.0249 19.5449 57.7503 19.5449 57.4648C19.5449 57.2241 19.5601 56.9867 19.585 56.7529H17.9004V55.8701H19.7139C19.8837 55.1128 20.1723 54.4386 20.583 53.8496L20.584 53.8486L20.7529 53.626C21.1018 53.1934 21.5141 52.8367 21.9893 52.5566L22.2324 52.4229C22.9067 52.0731 23.6851 51.9004 24.5645 51.9004Z" fill="#333333" stroke="#333333" stroke-width="0.2"/>
</svg>
