<svg width="177" height="36" viewBox="0 0 177 36" fill="none" xmlns="http://www.w3.org/2000/svg">
<g clip-path="url(#clip0_4433_1596)">
<path d="M26.4662 35.3895H0V8.14745C0 3.9262 3.32472 0.5 7.42522 0.5H33.8914V27.7456C33.8914 31.9668 30.5667 35.3895 26.4662 35.3895Z" fill="#00DF82"/>
<path d="M15.1102 20.911C15.1517 20.9431 15.1968 20.9788 15.2487 21.0002C15.3457 21.0643 15.453 21.1321 15.5604 21.1855C16.395 21.6455 17.2574 21.8986 18.1128 21.9556C19.8756 22.0662 21.5934 21.3068 22.8332 19.6917C22.899 19.6026 22.951 19.5277 23.0133 19.4386C23.0653 19.3601 23.1311 19.2746 23.183 19.1854C23.2142 19.132 23.2592 19.0749 23.2904 19.0214C23.3216 18.9644 23.3666 18.9109 23.3977 18.8467C23.4393 18.7683 23.4843 18.6827 23.5363 18.5936C23.6436 18.3833 23.7406 18.1872 23.8133 17.9875C23.8341 17.9447 23.8549 17.8984 23.8653 17.8556C24.7623 15.5667 24.2705 13.3384 22.7847 11.6663C22.2722 11.0745 21.6315 10.5469 20.8834 10.1155L20.7657 10.0513L15.1691 6.96022L10.7673 15.4027L6.76373 23.0894L9.6036 24.6617L13.0634 18.0303C13.2989 19.2175 13.9915 20.1837 15.1032 20.911" fill="#333333"/>
<path d="M24.4333 28.808V27.4711C24.4333 26.6332 23.7752 25.9451 22.951 25.9451H16.3119C15.4981 25.9451 14.8297 26.6332 14.8297 27.4711V28.808H12.1491V30.1914H27.1173V28.808H24.4298H24.4333Z" fill="#333333"/>
<path d="M9.03563 14.244L9.60014 14.5399L13.7387 6.265L13.1604 5.96196C12.066 5.37369 10.7257 5.81578 10.1612 6.9424L8.0867 11.1565C7.52219 12.2831 7.95163 13.6629 9.0391 14.244" fill="#333333"/>
<path d="M40.3123 35.3895L38.8265 30.2627H39.2733L40.5824 34.926L41.9262 30.2627H42.4041L43.7409 34.9189L45.05 30.2627H45.4829L44.0041 35.3895H43.4777L42.1686 30.9294L40.8387 35.3895H40.3123Z" fill="#333333"/>
<path d="M51.8138 35.5C51.4501 35.5 51.1072 35.4323 50.7956 35.2968C50.4839 35.1613 50.2068 34.9723 49.9748 34.7299C49.7427 34.4875 49.5592 34.2058 49.4276 33.8814C49.296 33.5569 49.2336 33.204 49.2336 32.8261C49.2336 32.4482 49.2994 32.0916 49.4276 31.7672C49.5592 31.4428 49.7393 31.1611 49.9748 30.9187C50.2068 30.6762 50.4839 30.4873 50.7956 30.3554C51.1107 30.2199 51.4501 30.1557 51.8138 30.1557C52.1774 30.1557 52.5133 30.2234 52.8285 30.3625C53.1402 30.498 53.4138 30.6905 53.6493 30.9329C53.8848 31.1754 54.0683 31.4606 54.1999 31.785C54.3315 32.1095 54.3973 32.4553 54.3973 32.8296C54.3973 33.204 54.3315 33.5605 54.1999 33.8849C54.0683 34.2094 53.8848 34.4946 53.6493 34.7335C53.4138 34.9723 53.1402 35.1649 52.8285 35.3003C52.5168 35.4358 52.1774 35.5036 51.8138 35.5036V35.5ZM51.8138 35.09C52.1116 35.09 52.3921 35.0365 52.6519 34.9296C52.9116 34.8226 53.1402 34.6693 53.3376 34.4696C53.535 34.27 53.6874 34.0311 53.7982 33.753C53.909 33.4749 53.9644 33.1648 53.9644 32.8261C53.9644 32.3733 53.8675 31.974 53.6735 31.6353C53.4796 31.2966 53.2198 31.0328 52.8943 30.8438C52.5687 30.6548 52.2051 30.5621 51.8068 30.5621C51.509 30.5621 51.2285 30.6156 50.9687 30.7226C50.709 30.8295 50.4804 30.9828 50.283 31.1825C50.0856 31.3821 49.9332 31.621 49.8224 31.8955C49.7116 32.1736 49.6561 32.4802 49.6561 32.8225C49.6561 33.2753 49.7531 33.6746 49.9471 34.0133C50.141 34.352 50.4007 34.6158 50.7263 34.8048C51.0518 34.9937 51.4155 35.0864 51.8138 35.0864V35.09Z" fill="#333333"/>
<path d="M58.626 35.3895V30.2627H60.368C60.6866 30.2627 60.9602 30.3233 61.1922 30.4445C61.4243 30.5657 61.6009 30.7368 61.7256 30.9579C61.8503 31.1789 61.9126 31.4356 61.9126 31.7315C61.9126 31.9918 61.8537 32.22 61.736 32.4196C61.6182 32.6193 61.452 32.7797 61.2338 32.9045C61.0156 33.0293 60.7593 33.1042 60.4615 33.1327L62.1273 35.3895H61.6009L59.9559 33.1398H59.0381V35.3895H58.626ZM59.0416 32.7441H60.2502C60.645 32.7441 60.9533 32.6549 61.1749 32.4731C61.3931 32.2913 61.5039 32.0453 61.5039 31.7351C61.5039 31.4249 61.4104 31.154 61.2199 30.9543C61.0295 30.7547 60.7351 30.6584 60.3368 30.6584H59.0416V32.7441Z" fill="#333333"/>
<path d="M66.3179 35.3895V30.2627H66.73V33.3252L69.1543 30.2627H69.646L67.8451 32.548L69.9577 35.3895H69.4175L67.575 32.8867L66.73 33.9491V35.393H66.3179V35.3895Z" fill="#333333"/>
<path d="M74.1206 35.3895V30.2627H74.5327V35.3895H74.1206Z" fill="#333333"/>
<path d="M79.08 35.3895V30.2627H79.4367L82.4116 34.5695V30.2627H82.8237V35.3895H82.467L79.4921 31.0399V35.3895H79.08Z" fill="#333333"/>
<path d="M89.8056 35.5C89.4039 35.5 89.0333 35.4358 88.6974 35.311C88.3615 35.1827 88.0706 35.0044 87.8247 34.7691C87.5788 34.5338 87.3883 34.2557 87.2567 33.9277C87.1251 33.5997 87.0558 33.2396 87.0558 32.8439C87.0558 32.4482 87.1216 32.0809 87.2498 31.7494C87.3779 31.4178 87.5615 31.1361 87.797 30.9008C88.0325 30.662 88.313 30.4801 88.6385 30.3482C88.9641 30.2199 89.3208 30.1557 89.7156 30.1557C89.8991 30.1557 90.0792 30.17 90.2559 30.202C90.4325 30.2341 90.6022 30.2805 90.7615 30.3447C90.9208 30.4088 91.0663 30.4908 91.1944 30.5907L90.9935 30.9401C90.8031 30.8153 90.5918 30.7226 90.3632 30.6584C90.1347 30.5978 89.9061 30.5657 89.6775 30.5657C89.3485 30.5657 89.0472 30.6192 88.7771 30.7226C88.5069 30.826 88.2749 30.9793 88.0809 31.1754C87.887 31.3714 87.7381 31.6103 87.6342 31.8884C87.5303 32.1665 87.4783 32.4802 87.4783 32.8261C87.4783 33.3002 87.5753 33.7102 87.7692 34.0489C87.9632 34.3912 88.2333 34.6515 88.5831 34.8297C88.9329 35.0116 89.3416 35.1007 89.8126 35.1007C90.0758 35.1007 90.3044 35.0722 90.5018 35.0187C90.6992 34.9652 90.8481 34.9046 90.9485 34.8369V33.2682H89.7121V32.8724H91.3468V35.0472C91.236 35.1399 91.087 35.2219 90.9 35.2861C90.713 35.3538 90.5225 35.4037 90.3217 35.4394C90.1208 35.475 89.9476 35.4929 89.8022 35.4929L89.8056 35.5Z" fill="#333333"/>
<path d="M103.028 35.5C102.512 35.5 102.066 35.3895 101.685 35.1649C101.304 34.9403 101.009 34.6301 100.801 34.2272C100.594 33.8243 100.49 33.3573 100.49 32.8225C100.49 32.4375 100.552 32.0809 100.677 31.7601C100.801 31.4392 100.978 31.154 101.207 30.9151C101.435 30.6762 101.702 30.4873 102.014 30.3554C102.322 30.2234 102.661 30.1593 103.032 30.1593C103.375 30.1593 103.679 30.202 103.953 30.2912C104.223 30.3803 104.455 30.5051 104.642 30.6655L104.4 31.0078C104.227 30.8581 104.029 30.744 103.808 30.6727C103.586 30.5978 103.34 30.5621 103.07 30.5621C102.748 30.5621 102.453 30.6156 102.19 30.719C101.927 30.8224 101.698 30.9757 101.511 31.1718C101.324 31.3679 101.179 31.6068 101.075 31.8848C100.975 32.1629 100.923 32.4767 100.923 32.8261C100.923 33.3074 101.013 33.7174 101.193 34.0561C101.373 34.3948 101.629 34.6515 101.958 34.8297C102.287 35.008 102.675 35.0971 103.122 35.0971C103.399 35.0971 103.662 35.0543 103.908 34.9723C104.157 34.8868 104.386 34.7513 104.601 34.5552L104.802 34.9224C104.549 35.1292 104.279 35.2754 103.984 35.3681C103.69 35.4608 103.375 35.5071 103.035 35.5071L103.028 35.5Z" fill="#333333"/>
<path d="M108.293 35.3895L110.298 30.2627H110.654L112.746 35.3895H112.286L111.718 33.9848H109.286L108.746 35.3895H108.299H108.293ZM109.432 33.589H111.558L110.464 30.8937L109.432 33.589Z" fill="#333333"/>
<path d="M116.708 35.3895V30.2627H118.315C118.651 30.2627 118.949 30.3197 119.202 30.4374C119.458 30.555 119.655 30.7226 119.801 30.9401C119.946 31.1575 120.016 31.4214 120.016 31.7244C120.016 32.0275 119.95 32.3055 119.818 32.5195C119.687 32.7334 119.493 32.8974 119.24 33.0079C118.987 33.1184 118.675 33.1755 118.312 33.1755H117.124V35.3859H116.712L116.708 35.3895ZM117.12 32.7833H118.357C118.752 32.7833 119.06 32.6942 119.274 32.5195C119.493 32.3412 119.6 32.0845 119.6 31.7458C119.6 31.4071 119.489 31.154 119.268 30.9579C119.046 30.7618 118.745 30.662 118.36 30.662H117.117V32.7868L117.12 32.7833Z" fill="#333333"/>
<path d="M124.172 35.3895V30.2627H124.584V35.3895H124.172Z" fill="#333333"/>
<path d="M130.139 35.3895V30.6584H128.667V30.2627H132.026V30.6584H130.554V35.3895H130.142H130.139Z" fill="#333333"/>
<path d="M135.202 35.3895L137.207 30.2627H137.564L139.656 35.3895H139.195L138.627 33.9848H136.196L135.656 35.3895H135.209H135.202ZM136.341 33.589H138.468L137.373 30.8937L136.341 33.589Z" fill="#333333"/>
<path d="M143.618 35.3895V30.2627H144.03V34.9937H146.371V35.3895H143.618Z" fill="#333333"/>
<path d="M73.5838 0.5V13.014C73.5838 19.6703 69.9404 23.5065 63.3499 23.5065C60.3195 23.5065 57.826 22.6651 56.1047 20.3049C54.425 22.5796 52.0112 23.5065 48.818 23.5065C42.1894 23.5065 38.6257 19.6703 38.6257 13.014V0.5H45.0119V12.5077C45.0119 16.2584 46.1998 17.984 48.9012 17.984C51.6025 17.984 52.9116 16.2548 52.9116 12.5077V0.5H59.2944V12.5077C59.2944 16.2584 60.6035 17.984 63.3048 17.984C66.0062 17.984 67.1941 16.2548 67.1941 12.5077V0.5H73.5768H73.5838Z" fill="#333333"/>
<path d="M102.609 12.0015C102.609 5.27386 107.652 0.5 114.71 0.5C119.268 0.5 122.859 2.53575 124.431 6.19013L119.552 8.88902C118.381 6.77126 116.646 5.81578 114.672 5.81578C111.486 5.81578 108.985 8.1011 108.985 12.005C108.985 15.909 111.486 18.1943 114.672 18.1943C116.649 18.1943 118.384 17.2816 119.552 15.1211L124.431 17.8627C122.859 21.4351 119.268 23.5101 114.71 23.5101C107.652 23.5101 102.609 18.7362 102.609 12.0086" fill="#333333"/>
<path d="M149.339 10.6788C148.75 4.28985 143.829 0.5 137.619 0.5H137.36C131.264 0.614088 126.502 4.30055 125.834 10.4827C125.82 10.5647 125.817 10.6467 125.81 10.7358C125.772 11.1423 125.754 11.563 125.754 11.9943C125.754 12.1797 125.761 12.3651 125.768 12.5434C125.768 12.6717 125.775 12.7965 125.785 12.9177C125.792 13.0461 125.803 13.1673 125.81 13.285C125.827 13.4811 125.851 13.6736 125.879 13.8625C125.903 14.0551 125.934 14.244 125.965 14.4294C126.61 18.2121 128.771 21.0215 131.766 22.4476C133.211 23.1357 134.856 23.503 136.608 23.503C136.837 23.503 137.058 23.4958 137.28 23.478C137.38 23.478 137.477 23.4709 137.578 23.4637C140.03 23.2748 141.993 22.3264 143.389 20.5973V23.1714H149.398V11.9943C149.398 11.5416 149.381 11.1102 149.336 10.6788M137.702 18.1907H137.578C134.489 18.1266 132.13 15.8127 132.13 12.005C132.13 8.19736 134.489 5.88352 137.578 5.81934H137.702C140.809 5.81934 143.23 8.14032 143.23 12.005C143.23 15.8698 140.809 18.1907 137.702 18.1907Z" fill="#333333"/>
<path d="M153.225 12.0621V35.3538H159.268V20.7149C160.671 22.4548 162.648 23.4067 165.114 23.5992C165.215 23.6063 165.312 23.6135 165.412 23.6135C165.637 23.6313 165.859 23.6384 166.087 23.6384C167.854 23.6384 169.502 23.2677 170.957 22.576C173.97 21.1428 176.145 18.3191 176.789 14.515C176.82 14.3296 176.851 14.1371 176.875 13.9445C176.9 13.752 176.924 13.5595 176.945 13.3634C176.952 13.2422 176.962 13.121 176.969 12.9926C176.983 12.8714 176.986 12.743 176.986 12.6147C176.993 12.4364 177 12.251 177 12.0657C177 11.6307 176.983 11.21 176.945 10.8C176.938 10.7109 176.931 10.6289 176.92 10.5433C176.248 4.32551 171.462 0.614088 165.332 0.5H165.073C158.832 0.5 153.879 4.31125 153.291 10.7358C153.246 11.1708 153.228 11.6057 153.228 12.0585M159.431 12.0657C159.431 8.17954 161.866 5.8443 164.989 5.8443H165.114C168.221 5.90848 170.593 8.22945 170.593 12.0657C170.593 15.9019 168.221 18.2228 165.114 18.287H164.989C161.866 18.287 159.431 15.9482 159.431 12.0657Z" fill="#333333"/>
<path d="M76.2262 11.9872C76.2262 5.2703 81.2618 0.5 88.1467 0.5C95.0317 0.5 100.026 5.26673 100.026 11.9837C100.026 18.7006 95.0317 23.4673 88.1467 23.4673C81.2618 23.4673 76.2262 18.7006 76.2262 11.9837" fill="#00DF82"/>
</g>
<defs>
<clipPath id="clip0_4433_1596">
<rect width="177" height="35" fill="white" transform="translate(0 0.5)"/>
</clipPath>
</defs>
</svg>
