<svg width="402" height="255" viewBox="0 0 402 255" fill="none" xmlns="http://www.w3.org/2000/svg">
<g clip-path="url(#clip0_3560_2836)">
<path d="M48.499 164.204C48.499 150.735 37.6421 139.816 24.2495 139.816C10.8569 139.816 0 150.735 0 164.204V171.355C0 184.824 10.8569 195.743 24.2495 195.743C37.6421 195.743 48.499 184.824 48.499 171.355V164.204Z" fill="#FAFAFA" fill-opacity="0.1"/>
<path d="M402 164.204C402 150.735 391.143 139.816 377.75 139.816C364.358 139.816 353.501 150.735 353.501 164.204V171.355C353.501 184.824 364.358 195.743 377.75 195.743C391.143 195.743 402 184.824 402 171.355V164.204Z" fill="#FAFAFA" fill-opacity="0.3"/>
<path d="M119.199 136.253C119.199 122.784 108.342 111.865 94.9497 111.865C81.5571 111.865 70.7002 122.784 70.7002 136.253V199.33C70.7002 212.799 81.5571 223.718 94.9497 223.718C108.342 223.718 119.199 212.799 119.199 199.33V136.253Z" fill="#FAFAFA" fill-opacity="0.1"/>
<path d="M331.3 136.253C331.3 122.784 320.443 111.865 307.05 111.865C293.658 111.865 282.801 122.784 282.801 136.253V199.33C282.801 212.799 293.658 223.718 307.05 223.718C320.443 223.718 331.3 212.799 331.3 199.33V136.253Z" fill="#FAFAFA" fill-opacity="0.3"/>
<path d="M189.899 24.3878C189.899 10.9188 179.04 0 165.644 0C152.248 0 141.388 10.9188 141.388 24.3878V199.33C141.388 212.799 152.248 223.718 165.644 223.718C179.04 223.718 189.899 212.799 189.899 199.33V24.3878Z" fill="#FAFAFA" fill-opacity="0.1"/>
<path d="M260.311 24.3878C260.311 10.9188 249.452 0 236.056 0C222.66 0 211.8 10.9188 211.8 24.3878V31.5386C211.8 45.0076 222.66 55.9264 236.056 55.9264C249.452 55.9264 260.311 45.0076 260.311 31.5386V24.3878Z" fill="#FAFAFA" fill-opacity="0.1"/>
<path d="M260.311 134.671C260.311 121.202 249.452 110.283 236.056 110.283C222.66 110.283 211.8 121.202 211.8 134.671V309.613C211.8 323.082 222.66 334.001 236.056 334.001C249.452 334.001 260.311 323.082 260.311 309.613V134.671Z" fill="#FAFAFA" fill-opacity="0.3"/>
</g>
<defs>
<clipPath id="clip0_3560_2836">
<rect width="402" height="334" fill="white"/>
</clipPath>
</defs>
</svg>
