<svg width="60" height="60" viewBox="0 0 60 60" fill="none" xmlns="http://www.w3.org/2000/svg">
<path d="M12.2727 21.0003C12.2727 19.1928 13.799 17.7275 15.6818 17.7275H26.4773V19.9094C28.0463 19.9094 29.3182 21.1304 29.3182 22.6366C29.3182 24.1429 28.0463 25.3639 26.4773 25.3639V31.3639H22.5C22.5 29.8577 21.2281 28.6366 19.6591 28.6366C18.0901 28.6366 16.8182 29.8577 16.8182 31.3639H12.2727V21.0003Z" stroke="#333333" stroke-width="1.02273" stroke-linejoin="round"/>
<path d="M22.5818 31.3637H26.5909V34.091C25.0094 34.091 23.7273 35.3121 23.7273 36.8183C23.7273 38.3245 25.0094 39.5456 26.5909 39.5456V45.0001H15.7091C13.8112 45.0001 12.2727 43.5349 12.2727 41.7274V31.3637H16.8545C16.8545 29.8575 18.1366 28.6365 19.7182 28.6365C21.2997 28.6365 22.5818 29.8575 22.5818 31.3637Z" stroke="#333333" stroke-width="1.02273" stroke-linejoin="round"/>
<path d="M37.5 31.3638C37.5 32.87 36.279 34.091 34.7727 34.091C33.2665 34.091 32.0455 32.87 32.0455 31.3638H26.5909V34.091C25.0847 34.091 23.8636 35.3121 23.8636 36.8183C23.8636 38.3245 25.0847 39.5456 26.5909 39.5456V45.0001H36.9545C38.762 45.0001 40.2273 43.5349 40.2273 41.7274V31.3638H37.5Z" stroke="#333333" stroke-width="1.02273" stroke-linejoin="round"/>
<path d="M31.9026 14.0654L42.081 12.1849C43.8561 11.857 45.5611 13.0301 45.889 14.8053L47.7695 24.9836L45.091 25.4785C45.3643 26.9578 44.3867 28.3786 42.9074 28.6519C41.4281 28.9252 40.0073 27.9476 39.734 26.4683L34.377 27.458L33.2883 21.5653C34.7676 21.292 35.7452 19.8712 35.4719 18.3919C35.1986 16.9126 33.7778 15.9349 32.2985 16.2082L31.9026 14.0654Z" fill="#00DF82" stroke="#333333" stroke-width="1.02273" stroke-linejoin="round"/>
</svg>
