<svg width="60" height="60" viewBox="0 0 60 60" fill="none" xmlns="http://www.w3.org/2000/svg">
<path d="M12.2725 21.0003C12.2725 19.1928 13.7988 17.7275 15.6816 17.7275H26.477V19.9094C28.046 19.9094 29.3179 21.1304 29.3179 22.6366C29.3179 24.1429 28.046 25.3639 26.477 25.3639V31.3639H22.4997C22.4997 29.8577 21.2278 28.6366 19.6588 28.6366C18.0898 28.6366 16.8179 29.8577 16.8179 31.3639H12.2725V21.0003Z" stroke="#333333" stroke-width="1.02273" stroke-linejoin="round"/>
<path d="M22.5816 31.364H26.5906V34.0913C25.0091 34.0913 23.727 35.3123 23.727 36.8185C23.727 38.3248 25.0091 39.5458 26.5906 39.5458V45.0004H15.7088C13.811 45.0004 12.2725 43.5351 12.2725 41.7276V31.364H16.8543C16.8543 29.8578 18.1364 28.6367 19.7179 28.6367C21.2995 28.6367 22.5816 29.8578 22.5816 31.364Z" stroke="#333333" stroke-width="1.02273" stroke-linejoin="round"/>
<path d="M37.4996 31.3643C37.4996 32.8705 36.2786 34.0915 34.7724 34.0915C33.2661 34.0915 32.0451 32.8705 32.0451 31.3643H26.5906V34.0915C25.0843 34.0915 23.8633 35.3126 23.8633 36.8188C23.8633 38.325 25.0843 39.5461 26.5906 39.5461V45.0006H36.9542C38.7617 45.0006 40.2269 43.5354 40.2269 41.7279V31.3643H37.4996Z" stroke="#333333" stroke-width="1.02273" stroke-linejoin="round"/>
<path d="M31.9023 14.0659L42.0807 12.1854C43.8559 11.8574 45.5608 13.0306 45.8888 14.8058L47.7693 24.9841L45.0907 25.479C45.3641 26.9583 44.3864 28.3791 42.9071 28.6524C41.4278 28.9257 40.007 27.948 39.7337 26.4687L34.3767 27.4585L33.288 21.5658C34.7673 21.2924 35.7449 19.8717 35.4716 18.3924C35.1983 16.9131 33.7775 15.9354 32.2982 16.2087L31.9023 14.0659Z" fill="white" stroke="#333333" stroke-width="1.02273" stroke-linejoin="round"/>
</svg>
