<svg width="88" height="88" viewBox="0 0 88 88" fill="none" xmlns="http://www.w3.org/2000/svg">
<path d="M73.7153 41.7558C73.7153 55.8398 64.507 68.2681 51.0332 72.3691L43.1494 74.7688C42.9595 74.8266 42.7568 74.8266 42.567 74.7688L34.6831 72.3691C21.2094 68.2681 12.001 55.8398 12.001 41.7558L12.001 12.0389L42.8582 8.00028L73.7153 12.0389L73.7153 41.7558Z" fill="white" stroke="#333333" stroke-width="1.5"/>
<path d="M70.4997 37.6543L65.2769 42.1436M53.7854 46.6543L58.2638 49.2667C59.9322 50.24 62.0735 49.4328 62.6843 47.6004V47.6004C63.1224 46.286 62.6174 44.8416 61.4557 44.0865L50.5711 37.0114L49.3832 36.1232C48.3217 35.3294 46.9448 35.0905 45.6779 35.4802L37.7768 37.9111C36.2354 38.3854 34.5708 37.7314 33.7645 36.3347V36.3347C32.7686 34.6099 33.4316 32.4026 35.213 31.5119L45.0992 26.5688C45.741 26.2479 46.439 26.0546 47.1545 25.9995L53.3531 25.5227C54.0642 25.468 54.7598 25.287 55.4073 24.9881L58.6068 23.5114L61.4997 22.8686" stroke="#333333" stroke-width="1.5"/>
<path d="M23.5712 22.8689L26.8447 24.7394C27.6514 25.2004 28.554 25.4677 29.4815 25.5203L37.7373 25.989C38.8245 26.0507 39.8876 26.3337 40.8616 26.8207L42.8569 27.8184M20.1795 42.1433L17.3753 39.8989L15.2141 37.0117" stroke="#333333" stroke-width="1.5"/>
<rect x="31.8279" y="43.4424" width="10.2141" height="4.96005" rx="2.48003" transform="rotate(121.276 31.8279 43.4424)" stroke="#333333" stroke-width="1.5"/>
<rect x="35.6851" y="47.2998" width="10.2141" height="4.96005" rx="2.48003" transform="rotate(121.276 35.6851 47.2998)" stroke="#333333" stroke-width="1.5"/>
<rect x="40.8279" y="48.5859" width="10.2141" height="4.96005" rx="2.48003" transform="rotate(121.276 40.8279 48.5859)" stroke="#333333" stroke-width="1.5"/>
<rect x="45.9707" y="49.8711" width="10.2141" height="4.96005" rx="2.48003" transform="rotate(121.276 45.9707 49.8711)" stroke="#333333" stroke-width="1.5"/>
<path d="M47.9996 49.0209L52.4224 51.5744L54.6974 52.8879C55.8836 53.5728 57.4004 53.1663 58.0852 51.9802V51.9802C58.7701 50.794 58.3637 49.2772 57.1775 48.5924L54.9024 47.2789L50.4796 44.7254" stroke="#333333" stroke-width="1.5"/>
<path d="M44.7989 52.4968L49.7242 55.8607C50.9245 56.6805 52.5685 56.306 53.2953 55.0472V55.0472C53.9381 53.9338 53.6305 52.5142 52.5844 51.7667L52.1784 51.4767" stroke="#333333" stroke-width="1.5"/>
<path d="M41.8916 56.3177L45.6304 58.9428C46.8058 59.7681 48.4358 59.4078 49.1539 58.1641V58.1641C49.7758 57.0869 49.4902 55.7146 48.4902 54.9749L48.3848 54.897" stroke="#333333" stroke-width="1.5"/>
<mask id="path-11-inside-1_4629_2407" fill="white">
<rect x="19.1565" y="17" width="7.71429" height="22.0264" rx="1" transform="rotate(30 19.1565 17)"/>
</mask>
<rect x="19.1565" y="17" width="7.71429" height="22.0264" rx="1" transform="rotate(30 19.1565 17)" fill="#00DF82" stroke="#333333" stroke-width="3" mask="url(#path-11-inside-1_4629_2407)"/>
<mask id="path-12-inside-2_4629_2407" fill="white">
<rect width="7.71429" height="22.0264" rx="1" transform="matrix(-0.866025 0.5 0.5 0.866025 66.2522 17)"/>
</mask>
<rect width="7.71429" height="22.0264" rx="1" transform="matrix(-0.866025 0.5 0.5 0.866025 66.2522 17)" fill="#00DF82" stroke="#333333" stroke-width="3" mask="url(#path-12-inside-2_4629_2407)"/>
</svg>
