<svg width="89" height="88" viewBox="0 0 89 88" fill="none" xmlns="http://www.w3.org/2000/svg">
<rect x="22.25" y="21.75" width="44.5" height="44.5" rx="22.25" fill="#00DF82" stroke="#333333" stroke-width="1.5"/>
<path d="M35.019 75.6087C27.3505 73.3086 20.7797 68.299 16.5307 61.5135C12.2818 54.7279 10.6446 46.6291 11.9242 38.7259C13.2037 30.8227 17.3127 23.6542 23.4857 18.556C29.6586 13.4577 37.4744 10.7774 45.477 11.0145" stroke="#333333" stroke-width="1.5"/>
<path d="M53.041 12.1244C60.7743 14.1966 67.4906 19.0094 71.9385 25.6662C76.3864 32.323 78.2627 40.3698 77.2177 48.3074C76.1727 56.245 72.2777 63.532 66.2584 68.8107C60.2391 74.0895 52.506 77 44.5 77" stroke="#333333" stroke-width="1.5"/>
<path d="M40.5256 51.9625C39.0826 50.6041 38.1368 48.784 37.6883 46.5019H34.5V45.1979H37.5128C37.4543 44.6365 37.425 44.0479 37.425 43.4321C37.425 42.9069 37.4543 42.3907 37.5128 41.8836H34.5V40.5796H37.6883C37.9808 39.0944 38.4976 37.7814 39.2386 36.6404C39.9991 35.4994 40.9546 34.6119 42.1051 33.978C43.2751 33.326 44.6304 33 46.1709 33C47.0289 33 47.7992 33.0815 48.4817 33.2445C49.1837 33.3894 49.8175 33.6158 50.383 33.9237L50.032 35.3092C49.447 35.0013 48.8425 34.784 48.2185 34.6572C47.614 34.5123 46.9217 34.4398 46.1417 34.4398C44.3282 34.4398 42.8461 35.0103 41.6956 36.1514C40.5451 37.2924 39.7846 38.7684 39.4141 40.5796H47.6627V41.8836H39.2093C39.1508 42.3545 39.1216 42.8435 39.1216 43.3506C39.1216 43.9845 39.1606 44.6003 39.2386 45.1979H47.6627V46.5019H39.4433C39.8528 48.3855 40.6426 49.8706 41.8126 50.9573C43.0021 52.044 44.4939 52.5873 46.2879 52.5873C46.9509 52.5873 47.6237 52.5149 48.3062 52.37C48.9887 52.2251 49.6517 52.0078 50.2952 51.718L50.5 53.1035C49.8955 53.4295 49.2227 53.6559 48.4817 53.7827C47.7407 53.9276 46.9802 54 46.2002 54C43.8601 54 41.9686 53.3208 40.5256 51.9625Z" fill="#333333"/>
<path d="M48.5 82L43.5 77L48.5 72" stroke="#333333" stroke-width="1.5"/>
<path d="M40.5 16L45.5 11L40.5 6" stroke="#333333" stroke-width="1.5"/>
</svg>
