<svg width="153" height="152" viewBox="0 0 153 152" fill="none" xmlns="http://www.w3.org/2000/svg">
<path d="M75.3335 46.75H99.3335C103.338 46.75 106.583 49.9959 106.583 54V66C106.583 70.0041 103.338 73.25 99.3335 73.25H87.6841C87.3363 73.25 86.9976 73.3536 86.7104 73.5459L86.5913 73.6338L78.4897 80.1143C78.3261 80.2452 78.0835 80.1286 78.0835 79.9189V75C78.0835 74.0335 77.3 73.25 76.3335 73.25H75.3335C71.3294 73.25 68.0835 70.0041 68.0835 66V54C68.0835 49.9959 71.3294 46.75 75.3335 46.75Z" fill="#00DF82" stroke="#333333" stroke-width="1.5"/>
<path d="M91.3335 65L76.3335 65" stroke="#333333" stroke-width="1.5" stroke-linecap="square"/>
<path d="M97.3335 55L76.3335 55" stroke="#333333" stroke-width="1.5" stroke-linecap="square"/>
<path d="M47.6939 61H56.6127C57.0432 61 57.4253 61.2754 57.5614 61.6838L60.6904 71.0707C60.7814 71.3436 60.7504 71.6424 60.6055 71.8908L57.7994 76.7012C57.5038 77.208 57.4438 77.8215 57.649 78.3711C60.2496 85.337 63.5045 88.7148 71.8291 92.5463C72.4513 92.8326 73.1788 92.7698 73.7487 92.3899L78.4046 89.286C78.6737 89.1065 79.013 89.0684 79.3152 89.1835L88.6895 92.7547C89.0772 92.9024 89.3335 93.2742 89.3335 93.6892V102.671C89.3335 104.451 87.7849 105.843 86.0204 105.61C58.3521 101.959 48.3488 90.1881 44.7545 64.3422C44.5078 62.5682 45.9028 61 47.6939 61Z" fill="white" stroke="#333333" stroke-width="1.5"/>
</svg>
