<svg width="110" height="59" viewBox="0 0 110 59" fill="none" xmlns="http://www.w3.org/2000/svg">
<g clip-path="url(#clip0_4632_1631)">
<path d="M78.5893 10.7882C78.5893 11.322 78.5893 11.6872 78.1422 11.8277C77.8381 11.9421 77.5065 11.9603 77.1918 11.88C76.8771 11.7996 76.5943 11.6246 76.3814 11.3782C74.7604 9.74866 73.0275 8.23152 71.5183 6.51771C70.0091 4.8039 69.4222 4.91628 67.9968 6.51771C64.1399 10.5915 60.0593 14.4406 56.1186 18.4301C54.9447 19.6101 54.1342 19.7225 52.9604 18.4301C50.9481 16.2668 48.824 14.2158 46.7278 12.1368C46.085 11.4906 45.3304 10.7601 46.085 9.94533C46.8396 9.13057 47.6222 10.142 48.1811 10.6477C49.8022 12.1649 51.3673 13.7382 52.8765 15.3677C54.0224 16.6039 54.9168 16.7444 56.2024 15.3677C59.9755 11.4344 63.9163 7.64152 67.7452 3.73628C69.1147 2.33152 70.2047 2.07866 71.6581 3.73628C73.5306 5.81533 75.6268 7.66961 77.5832 9.66438C78.0024 9.97342 78.5614 10.2825 78.5893 10.7882Z" fill="white"/>
<path d="M63.3304 2.55564C63.2994 2.88424 63.1985 3.2023 63.0346 3.48829C62.8706 3.77428 62.6475 4.02151 62.3802 4.21325C60.3399 6.23611 58.2997 8.23087 56.2874 10.3099C56.0919 10.5939 55.8309 10.826 55.5267 10.9863C55.2224 11.1466 54.8841 11.2303 54.5406 11.2303C54.1971 11.2303 53.8587 11.1466 53.5545 10.9863C53.2502 10.826 52.9892 10.5939 52.7938 10.3099C50.8094 8.25897 48.7412 6.23611 46.701 4.21325C46.0581 3.56706 45.3874 2.7523 46.142 1.99373C46.8966 1.23516 47.6792 2.1623 48.2381 2.69611C49.8312 4.24135 51.4243 5.78659 52.9056 7.44421C54.3868 9.10183 54.8899 8.96135 56.1476 7.44421C57.4053 5.92706 59.5574 4.04468 61.2622 2.33087C61.4308 2.09818 61.6639 1.92071 61.9324 1.82074C62.2009 1.72077 62.4928 1.70276 62.7715 1.76897C63.1627 1.82516 63.2466 2.21849 63.3304 2.55564Z" fill="white"/>
<path d="M69.8671 10.3404C70.2912 10.3928 70.6802 10.6034 70.9571 10.9304L77.9164 17.898C78.4474 18.4318 79.0343 19.0218 78.2797 19.6961C77.5251 20.3704 76.9102 19.6961 76.3792 19.2747C74.6184 17.5609 72.8297 15.9314 71.2087 14.049C70.0348 12.7285 69.2802 12.9252 68.1902 14.049C66.5971 15.7909 64.8364 17.3361 63.1874 19.0218C62.5725 19.668 61.9017 20.1738 61.1751 19.4714C60.4484 18.769 61.1751 18.0947 61.6781 17.6452C63.914 15.3133 66.2338 13.0657 68.5256 10.7899C68.7071 10.6273 68.9196 10.5035 69.1503 10.4263C69.3809 10.349 69.6249 10.3198 69.8671 10.3404Z" fill="white"/>
<path d="M1.41971 18.4598V2.19262C1.41717 2.05184 1.44312 1.91201 1.49597 1.78161C1.54881 1.65121 1.62746 1.53297 1.72714 1.43405C1.92948 1.23684 2.19993 1.12608 2.48176 1.125H13.4377C14.0246 1.125 14.4718 1.37786 14.4718 1.91167V2.08024C14.4718 2.61405 14.0246 2.81071 13.4377 2.81071H3.29227V9.24452H11.3974C11.9843 9.24452 12.2638 9.49738 12.2638 10.0312C12.2638 10.565 11.9843 10.8179 11.3974 10.8179H3.29227V17.7574H13.6053C14.1923 17.7574 14.4997 18.0102 14.4997 18.516V18.6845C14.4997 19.2183 14.1923 19.4993 13.6053 19.4993H2.42586C2.28581 19.5018 2.14671 19.4758 2.017 19.4226C1.88728 19.3695 1.76965 19.2904 1.67125 19.1902C1.57439 19.0975 1.50102 18.9828 1.45726 18.8557C1.4135 18.7286 1.40063 18.5929 1.41971 18.4598Z" fill="white"/>
<path d="M16.876 19.0487V2.47251C16.876 1.88251 17.1555 1.60156 17.6865 1.60156H17.938C18.497 1.60156 18.7765 1.88251 18.7765 2.47251V18.3744H27.6362C28.2232 18.3744 28.5026 18.6554 28.5026 19.1892C28.5026 19.723 28.2232 20.0039 27.6362 20.0039H17.938C17.7018 20.0268 17.465 19.9673 17.2673 19.8354C17.0385 19.6355 16.8978 19.3526 16.876 19.0487Z" fill="white"/>
<path d="M30.9104 19.0481V2.80906C30.9075 2.66152 30.9359 2.51506 30.9938 2.37942C31.0516 2.24378 31.1375 2.12208 31.2457 2.02239C31.3431 1.92083 31.4606 1.84087 31.5905 1.78764C31.7205 1.73442 31.8601 1.70911 32.0004 1.71335H42.9562C43.5432 1.71335 43.8506 1.9662 43.8506 2.50001V2.80906C43.8506 3.34287 43.5432 3.59573 42.9562 3.59573H32.8109V9.83287H40.916C41.5029 9.83287 41.7824 10.0857 41.7824 10.6195C41.7824 11.1533 41.5029 11.4062 40.916 11.4062H32.8109V18.3457H43.096C43.6829 18.3457 43.9904 18.5986 43.9904 19.1043V19.2729C43.9904 19.8067 43.6829 20.0876 43.096 20.0876H31.9165C31.6462 20.0421 31.4049 19.8905 31.2457 19.6662C31.0574 19.5125 30.9369 19.2905 30.9104 19.0481Z" fill="white"/>
<path d="M76.2129 2.81281C76.2129 2.279 76.5203 1.99805 77.1072 1.99805H90.5506C91.1375 1.99805 91.4449 2.279 91.4449 2.81281C91.4449 3.34662 91.1375 3.59948 90.5506 3.59948H84.7931V19.3609C84.7931 19.9509 84.5137 20.2319 83.9547 20.2319H83.7031C83.1442 20.2319 82.8647 19.9509 82.8647 19.3609V3.459H77.1072C76.5203 3.48709 76.2129 3.20614 76.2129 2.81281Z" fill="white"/>
<path d="M93.5988 19.0474V2.80831C93.5963 2.66753 93.6222 2.5277 93.6751 2.3973C93.7279 2.2669 93.8065 2.14866 93.9062 2.04974C94.0036 1.94817 94.1211 1.86821 94.251 1.81499C94.381 1.76176 94.5206 1.73646 94.6608 1.74069H105.617C106.204 1.74069 106.511 1.99355 106.511 2.52736V2.80831C106.511 3.34212 106.204 3.59498 105.617 3.59498H95.5273V9.83212H103.632C104.219 9.83212 104.499 10.085 104.499 10.6188C104.499 11.1526 104.219 11.4055 103.632 11.4055H95.5273V18.345H105.812C106.399 18.345 106.707 18.5978 106.707 19.1035V19.2721C106.707 19.8059 106.399 20.0869 105.812 20.0869H94.6329C94.4892 20.0716 94.3503 20.0262 94.2251 19.9536C94.1 19.881 93.9913 19.7828 93.9062 19.6655C93.7283 19.5069 93.6182 19.2855 93.5988 19.0474Z" fill="white"/>
<path d="M0.497741 35.8508C0.477056 34.1304 0.880332 32.4317 1.67159 30.9061C2.40788 29.4617 3.54335 28.2618 4.94159 27.4504C6.39825 26.6246 8.04885 26.2073 9.72082 26.2423C10.5214 26.2337 11.3197 26.3281 12.0965 26.5232C12.7637 26.6829 13.4107 26.9186 14.0249 27.2256C14.5147 27.4817 14.9741 27.7928 15.3944 28.1527C15.7286 28.4263 16.0206 28.7483 16.2608 29.108C16.4267 29.338 16.5237 29.611 16.5403 29.8946C16.5538 30.0341 16.5356 30.1748 16.4872 30.3062C16.4388 30.4376 16.3614 30.5562 16.2608 30.6532C16.1169 30.8248 15.9202 30.9434 15.7018 30.9904H15.3944C14.8321 30.0016 13.9841 29.208 12.9629 28.7146C11.943 28.185 10.8128 27.9058 9.66492 27.8999C8.69654 27.8663 7.73249 28.0449 6.83965 28.4233C5.94681 28.8018 5.14656 29.3709 4.49441 30.0913C3.14799 31.6436 2.43866 33.6521 2.51005 35.7104C2.47255 37.1276 2.73947 38.5362 3.29261 39.8404C3.80561 40.983 4.62907 41.9568 5.66825 42.6499C6.78193 43.3489 8.07266 43.7098 9.38543 43.6894C10.8791 43.7454 12.3474 43.2897 13.5498 42.397C14.6401 41.5748 15.3633 40.353 15.5621 38.9975V37.368H10.4195C9.72082 37.368 9.35748 37.087 9.35748 36.5532C9.35748 35.9913 9.72082 35.7104 10.4195 35.7104H16.0093C16.1975 35.7022 16.3851 35.7358 16.559 35.8086C16.7328 35.8814 16.8887 35.9917 17.0154 36.1318C17.1505 36.2625 17.2574 36.4198 17.3295 36.5938C17.4016 36.7677 17.4374 36.9548 17.4347 37.1432V44.9537H17.2111H16.68C16.5228 44.9632 16.3657 44.932 16.2238 44.8631C16.0819 44.7943 15.96 44.69 15.8695 44.5604C15.6475 44.1075 15.5509 43.6028 15.59 43.0994V42.1442C14.9851 43.177 14.0907 44.0076 13.0188 44.5323C11.81 45.1257 10.479 45.4241 9.13389 45.4032C7.5208 45.4325 5.93217 45.0041 4.55031 44.167C3.2264 43.3404 2.17599 42.1379 1.53184 40.7113C0.808511 39.1965 0.454051 37.5305 0.497741 35.8508Z" fill="white"/>
<path d="M22.5228 44.2752V27.699C22.5239 27.5562 22.5542 27.4151 22.6119 27.2846C22.6696 27.1541 22.7534 27.0369 22.8582 26.9404C22.9556 26.8388 23.073 26.7589 23.203 26.7057C23.3329 26.6524 23.4725 26.6271 23.6128 26.6314H28.6715C30.4154 26.5119 32.1484 26.987 33.5905 27.9799C34.1663 28.4637 34.6207 29.0769 34.9169 29.77C35.213 30.4631 35.3427 31.2166 35.2954 31.9695C35.3348 32.7001 35.2152 33.4305 34.9449 34.1099C34.6746 34.7892 34.26 35.4011 33.7302 35.9028C32.4416 36.9123 30.8341 37.421 29.2025 37.3357L35.0718 44.2752C35.0718 44.2752 35.0718 44.4157 35.0718 44.5561C34.9617 44.7236 34.8191 44.8669 34.6525 44.9776C34.4556 45.1135 34.2205 45.1824 33.9818 45.1742C33.7445 45.1573 33.5138 45.0882 33.3061 44.9717C33.0985 44.8551 32.9188 44.6941 32.78 44.4999L26.7151 37.3357H24.4233V44.3033C24.4264 44.5298 24.3469 44.7497 24.1997 44.9214C24.1177 45.0085 24.0175 45.0763 23.9064 45.12C23.7953 45.1637 23.676 45.1822 23.5569 45.1742H23.3333C23.2181 45.1796 23.1031 45.1593 22.9967 45.1147C22.8902 45.0702 22.7948 45.0026 22.7173 44.9167C22.6399 44.8307 22.5823 44.7287 22.5487 44.6178C22.515 44.5069 22.5062 44.3899 22.5228 44.2752ZM24.4233 35.6218H28.8113C30.0013 35.7055 31.1817 35.3565 32.1372 34.6385C32.5122 34.3076 32.8077 33.8955 33.0014 33.4332C33.195 32.9709 33.2818 32.4704 33.2551 31.9695C33.3053 31.4428 33.2272 30.9118 33.0275 30.4223C32.8279 29.9329 32.5127 29.4996 32.1092 29.1599C31.1102 28.4709 29.9078 28.1439 28.6995 28.2328H24.4233V35.6218Z" fill="white"/>
<path d="M39.295 43.9426V27.6755C39.2961 27.5327 39.3264 27.3916 39.3841 27.2611C39.4418 27.1306 39.5257 27.0134 39.6304 26.9169C39.7278 26.8154 39.8453 26.7354 39.9752 26.6822C40.1052 26.629 40.2448 26.6036 40.385 26.6079H51.3409C51.9279 26.6079 52.2353 26.8607 52.2353 27.3945V27.5631C52.2353 28.0969 51.9279 28.3498 51.3409 28.3498H41.1956V34.7274H49.3007C49.8876 34.7274 50.1671 34.9803 50.1671 35.5141C50.1671 36.0479 49.8876 36.3007 49.3007 36.3007H41.1956V43.1279H51.4807C52.0676 43.1279 52.375 43.3807 52.375 43.8864V44.055C52.375 44.5888 52.0676 44.8698 51.4807 44.8698H40.3012C40.0617 44.8844 39.8245 44.8149 39.6304 44.6731C39.5235 44.5845 39.4379 44.4728 39.3798 44.3464C39.3217 44.2199 39.2928 44.0819 39.295 43.9426Z" fill="white"/>
<path d="M56.3951 43.9426V27.6755C56.3925 27.5347 56.4185 27.3949 56.4713 27.2645C56.5242 27.1341 56.6028 27.0158 56.7025 26.9169C56.7999 26.8154 56.9173 26.7354 57.0473 26.6822C57.1772 26.629 57.3168 26.6036 57.4571 26.6079H68.413C68.9999 26.6079 69.3074 26.8607 69.3074 27.3945V27.5631C69.3074 28.0969 68.9999 28.3498 68.413 28.3498H58.2117V34.7274H66.3168C66.9038 34.7274 67.1833 34.9803 67.1833 35.5141C67.1833 36.0479 66.9038 36.3007 66.3168 36.3007H58.2117V43.1279H68.4968C69.0838 43.1279 69.3912 43.3807 69.3912 43.8864V44.055C69.3912 44.5888 69.0838 44.8698 68.4968 44.8698H57.3174C57.1773 44.8723 57.0382 44.8462 56.9085 44.7931C56.7788 44.74 56.6611 44.6609 56.5627 44.5607C56.4356 44.3813 56.3761 44.1622 56.3951 43.9426Z" fill="white"/>
<path d="M72.5788 35.8474C72.5581 34.127 72.9614 32.4282 73.7526 30.9026C74.4976 29.479 75.6323 28.2994 77.0226 27.5031C79.214 26.3233 81.7601 25.9934 84.1775 26.5759C84.8448 26.7357 85.4918 26.9713 86.106 27.2783C86.5958 27.5345 87.0552 27.8455 87.4755 28.2055C87.8096 28.4791 88.1016 28.801 88.3419 29.1607C88.5078 29.3907 88.6048 29.6637 88.6213 29.9474C88.6287 30.0821 88.6076 30.2168 88.5594 30.3427C88.5113 30.4686 88.4371 30.5828 88.3419 30.6778C88.2019 30.8531 88.0189 30.9887 87.8108 31.0712C87.6431 31.0712 87.5313 31.0712 87.5034 31.0712C86.9333 30.0816 86.0882 29.2809 85.0719 28.7674C84.0488 28.2163 82.9066 27.9268 81.746 27.9245C80.7822 27.895 79.8236 28.0757 78.9359 28.4539C78.0482 28.8322 77.2525 29.3992 76.6034 30.1159C75.2369 31.658 74.5159 33.6712 74.5911 35.735C74.5236 37.8026 75.2547 39.8163 76.6313 41.354C77.2807 42.0817 78.0791 42.6593 78.9716 43.0473C79.8642 43.4353 80.8297 43.6244 81.8019 43.6017C83.0977 43.6171 84.3732 43.2772 85.4911 42.6183C86.5182 42.0249 87.3084 41.0914 87.727 39.9774C87.727 39.9774 87.727 39.9774 88.0344 39.9774C88.2648 40.0632 88.4744 40.1973 88.6493 40.3707C88.7469 40.4654 88.8244 40.5788 88.8772 40.7044C88.93 40.8299 88.9571 40.9649 88.9567 41.1012C88.9397 41.4196 88.8436 41.7287 88.6772 42.0002C88.4263 42.4019 88.1258 42.7701 87.7829 43.0959C87.338 43.5032 86.8507 43.8611 86.3296 44.1636C85.705 44.5116 85.0379 44.7761 84.3452 44.9502C83.5152 45.1685 82.6596 45.2725 81.8019 45.2593C80.5721 45.2814 79.3516 45.0426 78.2199 44.5585C77.0881 44.0744 76.0707 43.3559 75.2339 42.4497C74.3713 41.5861 73.6914 40.5559 73.2352 39.4213C72.7789 38.2867 72.5556 37.071 72.5788 35.8474Z" fill="white"/>
<path d="M93.8224 43.9426V27.6755C93.8199 27.5347 93.8458 27.3949 93.8987 27.2645C93.9515 27.1341 94.0302 27.0158 94.1299 26.9169C94.2273 26.8154 94.3447 26.7354 94.4747 26.6822C94.6046 26.629 94.7442 26.6036 94.8845 26.6079H105.84C106.427 26.6079 106.735 26.8607 106.735 27.3945V27.5631C106.735 28.0969 106.427 28.3498 105.84 28.3498H95.7229V34.7274H103.912C104.499 34.7274 104.778 34.9803 104.778 35.5141C104.778 36.0479 104.499 36.3007 103.912 36.3007H95.8068V43.1279H106.092C106.679 43.1279 106.986 43.3807 106.986 43.8864V44.055C106.986 44.5888 106.679 44.8698 106.092 44.8698H94.9124C94.7724 44.8723 94.6333 44.8462 94.5036 44.7931C94.3739 44.74 94.2562 44.6609 94.1578 44.5607C93.9695 44.407 93.849 44.185 93.8224 43.9426Z" fill="white"/>
<path d="M1.28148 52.594H2.00815V53.6054C2.25964 53.2505 2.58361 52.9535 2.95841 52.7345C3.29975 52.543 3.68554 52.446 4.07636 52.4535C4.47011 52.4518 4.8568 52.5587 5.1943 52.7626C5.5 52.9735 5.7418 53.2651 5.89302 53.6054C6.06384 54.1501 6.13949 54.7205 6.11661 55.2911V58.1007H5.38995V55.4597C5.43387 55.0301 5.43387 54.597 5.38995 54.1673C5.32554 53.8425 5.15897 53.547 4.91482 53.3245C4.65261 53.1192 4.32395 53.0191 3.99251 53.0435C3.56522 53.0474 3.15169 53.1958 2.81866 53.465C2.48895 53.7411 2.25423 54.1146 2.14789 54.5326C2.10159 55.0372 2.10159 55.5451 2.14789 56.0497V58.1007H1.22559V52.4816L1.28148 52.594Z" fill="white"/>
<path d="M13.0766 52.5972V58.2163H12.3779V57.2329C12.1055 57.575 11.7621 57.8531 11.3717 58.0477C10.9913 58.2425 10.5687 58.3391 10.142 58.3286C9.76548 58.3272 9.39317 58.2493 9.04737 58.0996C8.70158 57.95 8.38943 57.7316 8.12966 57.4577C7.85533 57.1876 7.6393 56.8636 7.49504 56.5059C7.35078 56.1482 7.28139 55.7645 7.29119 55.3786C7.29119 54.6335 7.58565 53.9189 8.10979 53.392C8.63393 52.8651 9.34482 52.5691 10.0861 52.5691C10.5128 52.5587 10.9355 52.6553 11.3158 52.8501C11.7058 53.0586 12.041 53.3571 12.294 53.721V52.7096L13.0766 52.5972ZM10.2817 53.131C9.89744 53.1344 9.52108 53.2411 9.19171 53.4401C8.85648 53.6373 8.57736 53.9179 8.38119 54.2548C8.17931 54.5946 8.07272 54.9829 8.07272 55.3786C8.07272 55.7744 8.17931 56.1627 8.38119 56.5025C8.56864 56.846 8.84321 57.1336 9.17702 57.3359C9.51083 57.5382 9.89197 57.6481 10.2817 57.6544C10.6744 57.6481 11.059 57.5418 11.3997 57.3453C11.7408 57.1559 12.0218 56.8735 12.2102 56.5306C12.4042 56.1787 12.5007 55.7808 12.4897 55.3786C12.4719 55.0659 12.3908 54.7601 12.2514 54.4799C12.1121 54.1997 11.9174 53.9511 11.6791 53.7491C11.2855 53.3724 10.7689 53.1526 10.2258 53.131H10.2817Z" fill="white"/>
<path d="M15.2009 50.5703H15.9275V52.6494H17.0734V53.2675H15.9275V58.156H15.2009V53.2113H14.2227V52.5932H15.2009V50.5703Z" fill="white"/>
<path d="M18.2731 50.2914C18.4087 50.2933 18.5395 50.3425 18.6432 50.4304C18.7469 50.5184 18.8171 50.6398 18.8418 50.7739C18.8665 50.908 18.8442 51.0466 18.7787 51.166C18.7132 51.2855 18.6086 51.3785 18.4826 51.4291C18.3567 51.4798 18.2171 51.485 18.0877 51.4439C17.9584 51.4028 17.8472 51.3179 17.7731 51.2036C17.6989 51.0894 17.6665 50.9528 17.6812 50.8173C17.6959 50.6817 17.7569 50.5554 17.8538 50.4599C17.9082 50.4041 17.9736 50.3602 18.0458 50.3312C18.118 50.3022 18.1954 50.2886 18.2731 50.2914ZM17.9097 52.5952H18.6364V58.2142H17.9097V52.5952Z" fill="white"/>
<path d="M22.6329 52.4536C23.0323 52.4465 23.4286 52.5256 23.795 52.6856C24.1614 52.8455 24.4894 53.0825 24.757 53.3807C25.0094 53.6511 25.2059 53.9691 25.3355 54.3163C25.465 54.6635 25.5248 55.033 25.5116 55.4036C25.5156 56.1669 25.2251 56.902 24.7011 57.4545C24.4317 57.7389 24.1059 57.9633 23.7449 58.1133C23.3838 58.2634 22.9955 58.3356 22.6049 58.3255C22.2144 58.3356 21.8261 58.2634 21.465 58.1133C21.104 57.9633 20.7782 57.7389 20.5088 57.4545C19.9848 56.902 19.6943 56.1669 19.6983 55.4036C19.6944 54.659 19.963 53.9391 20.4529 53.3807C20.7323 53.0825 21.0705 52.846 21.4458 52.6864C21.8211 52.5268 22.2254 52.4475 22.6329 52.4536ZM22.6329 53.1559C22.3443 53.1559 22.0588 53.2158 21.7943 53.3318C21.5298 53.4478 21.292 53.6175 21.0957 53.8302C20.6805 54.2584 20.4495 54.8337 20.4529 55.4316C20.4455 55.8245 20.5419 56.2123 20.7324 56.5555C20.9177 56.8913 21.1876 57.1723 21.515 57.3702C21.849 57.5547 22.2239 57.6514 22.6049 57.6514C22.986 57.6514 23.3609 57.5547 23.695 57.3702C24.0286 57.1803 24.3004 56.8973 24.4775 56.5555C24.668 56.2123 24.7644 55.8245 24.757 55.4316C24.7604 54.8337 24.5294 54.2584 24.1142 53.8302C23.9323 53.6147 23.7051 53.4424 23.4489 53.3258C23.1927 53.2092 22.914 53.1512 22.6329 53.1559Z" fill="white"/>
<path d="M26.7451 52.594H27.4718V53.6054C27.7233 53.2505 28.0472 52.9535 28.422 52.7345C28.7634 52.543 29.1492 52.446 29.54 52.4535C29.9337 52.4518 30.3204 52.5587 30.6579 52.7626C30.9636 52.9735 31.2054 53.2651 31.3567 53.6054C31.5275 54.1501 31.6031 54.7205 31.5802 55.2911V58.1007H30.8536V55.4597C30.8975 55.0301 30.8975 54.597 30.8536 54.1673C30.7892 53.8425 30.6226 53.547 30.3784 53.3245C30.1162 53.1192 29.7876 53.0191 29.4561 53.0435C29.0289 53.0474 28.6153 53.1958 28.2823 53.465C27.9526 53.7411 27.7179 54.1146 27.6115 54.5326C27.5652 55.0372 27.5652 55.5451 27.6115 56.0497V58.1007H26.7451V52.594Z" fill="white"/>
<path d="M38.5361 52.5972V58.2163H37.8373V57.2329C37.565 57.575 37.2216 57.8531 36.8312 58.0477C36.4508 58.2425 36.0282 58.3391 35.6014 58.3286C35.225 58.3272 34.8526 58.2493 34.5068 58.0996C34.1611 57.95 33.8489 57.7316 33.5891 57.4577C33.3148 57.1876 33.0988 56.8636 32.9545 56.5059C32.8103 56.1482 32.7409 55.7645 32.7507 55.3786C32.7507 54.6335 33.0451 53.9189 33.5693 53.392C34.0934 52.8651 34.8043 52.5691 35.5455 52.5691C35.9723 52.5587 36.3949 52.6553 36.7753 52.8501C37.1652 53.0586 37.5005 53.3571 37.7535 53.721V52.7096L38.5361 52.5972ZM35.7412 53.131C35.3569 53.1344 34.9805 53.2411 34.6512 53.4401C34.316 53.6373 34.0368 53.9179 33.8407 54.2548C33.6388 54.5946 33.5322 54.9829 33.5322 55.3786C33.5322 55.7744 33.6388 56.1627 33.8407 56.5025C34.0281 56.846 34.3027 57.1336 34.6365 57.3359C34.9703 57.5382 35.3514 57.6481 35.7412 57.6544C36.1338 57.6481 36.5185 57.5418 36.8591 57.3453C37.2003 57.1559 37.4812 56.8735 37.6696 56.5306C37.8637 56.1787 37.9602 55.7808 37.9491 55.3786C37.9568 54.7715 37.7258 54.1859 37.3063 53.7491C37.0907 53.5428 36.8362 53.3818 36.5578 53.2757C36.2795 53.1696 35.9828 53.1204 35.6853 53.131H35.7412Z" fill="white"/>
<path d="M39.9336 50.5703H40.6603V58.156H39.9336V50.5703Z" fill="white"/>
<path d="M47.5929 53.1869L47.1457 53.6646C46.8572 53.3417 46.4577 53.1409 46.0277 53.1026C45.8115 53.1038 45.603 53.1836 45.4408 53.3274C45.3628 53.3927 45.3 53.4743 45.2565 53.5664C45.2131 53.6586 45.1901 53.7592 45.1893 53.8612C45.1875 54.0488 45.2575 54.2299 45.3849 54.3669C45.6342 54.6167 45.9282 54.8169 46.2513 54.9569C46.6629 55.144 47.0334 55.4114 47.3413 55.7436C47.5286 55.9944 47.627 56.301 47.6208 56.6146C47.6223 56.8287 47.581 57.041 47.4994 57.2389C47.4178 57.4368 47.2975 57.6162 47.1457 57.7665C46.9868 57.922 46.7987 58.0443 46.5924 58.1263C46.3861 58.2083 46.1657 58.2483 45.9439 58.2441C45.6276 58.2315 45.3157 58.165 45.0216 58.0474C44.7383 57.9082 44.4899 57.7065 44.2949 57.4574L44.7421 56.9517C44.8795 57.1362 45.0563 57.2875 45.2594 57.3944C45.4625 57.5014 45.6868 57.5613 45.9159 57.5698C46.0498 57.5755 46.1833 57.5534 46.3083 57.5051C46.4333 57.4568 46.5471 57.3832 46.6426 57.2888C46.7365 57.2092 46.8125 57.1104 46.8655 56.999C46.9185 56.8876 46.9473 56.7661 46.9501 56.6426C46.9525 56.4381 46.8833 56.2391 46.7544 56.0807C46.4969 55.828 46.1932 55.6277 45.86 55.4907C45.4649 55.3159 45.1121 55.0571 44.8259 54.7322C44.6346 54.4835 44.5358 54.1754 44.5465 53.8612C44.541 53.664 44.5754 53.4678 44.6474 53.2843C44.7195 53.1008 44.8277 52.9339 44.9657 52.7936C45.1095 52.6528 45.2803 52.5428 45.4676 52.4703C45.655 52.3979 45.8551 52.3645 46.0557 52.3722C46.6412 52.4727 47.1796 52.758 47.5929 53.1869Z" fill="white"/>
<path d="M49.3835 50.5703H50.1101V52.6494H51.256V53.2675H50.1101V58.156H49.3835V53.2113H48.4053V52.5932H49.3835V50.5703Z" fill="white"/>
<path d="M57.7394 52.5972V58.2163H57.0407V57.2329C56.7684 57.575 56.425 57.8531 56.0346 58.0477C55.6542 58.2425 55.2316 58.3391 54.8048 58.3286C54.4283 58.3272 54.056 58.2493 53.7102 58.0996C53.3644 57.95 53.0523 57.7316 52.7925 57.4577C52.5182 57.1876 52.3021 56.8636 52.1579 56.5059C52.0136 56.1482 51.9442 55.7645 51.954 55.3786C51.954 54.6335 52.2485 53.9189 52.7726 53.392C53.2968 52.8651 54.0077 52.5691 54.7489 52.5691C55.1757 52.5587 55.5983 52.6553 55.9787 52.8501C56.3686 53.0586 56.7038 53.3571 56.9569 53.721V52.7096L57.7394 52.5972ZM54.9445 53.131C54.5603 53.1344 54.1839 53.2411 53.8546 53.4401C53.5193 53.6373 53.2402 53.9179 53.044 54.2548C52.8422 54.5946 52.7356 54.9829 52.7356 55.3786C52.7356 55.7744 52.8422 56.1627 53.044 56.5025C53.2315 56.846 53.5061 57.1336 53.8399 57.3359C54.1737 57.5382 54.5548 57.6481 54.9445 57.6544C55.3372 57.6481 55.7219 57.5418 56.0625 57.3453C56.4036 57.1559 56.6846 56.8735 56.873 56.5306C57.0671 56.1787 57.1636 55.7808 57.1525 55.3786C57.1641 55.0827 57.1151 54.7876 57.0086 54.5115C56.9021 54.2354 56.7404 53.9842 56.5334 53.7735C56.3264 53.5628 56.0786 53.3971 55.8053 53.2866C55.532 53.176 55.239 53.1231 54.9445 53.131Z" fill="white"/>
<path d="M58.9677 52.5951H59.6943V53.3818C59.8813 53.0977 60.118 52.8502 60.393 52.6513C60.6134 52.4923 60.8765 52.4041 61.1477 52.3984C61.3762 52.4012 61.5992 52.4694 61.7905 52.5951L61.4271 53.3818H61.0638C60.8035 53.381 60.5531 53.4817 60.3651 53.6627C60.1102 53.9152 59.9352 54.2378 59.862 54.5899C59.7916 55.2341 59.7916 55.8842 59.862 56.5284V58.4108H59.1353V52.7918L58.9677 52.5951Z" fill="white"/>
<path d="M62.8807 50.5703H63.6074V52.6494H64.7812V53.2675H63.6353V58.156H62.9086V53.2113H61.9863V52.5932H62.9645L62.8807 50.5703Z" fill="white"/>
<path d="M65.6221 52.5957H66.3488V55.2086C66.288 55.6466 66.288 56.091 66.3488 56.529C66.4505 56.8579 66.6567 57.1441 66.9357 57.3438C67.2413 57.5497 67.6019 57.6575 67.9698 57.6528C68.3262 57.6673 68.6781 57.569 68.976 57.3719C69.2455 57.1868 69.4507 56.9215 69.5629 56.6133C69.6279 56.1568 69.6279 55.6932 69.5629 55.2367V52.6238H70.2896V55.4333C70.3241 56.0275 70.2287 56.6221 70.0101 57.1752C69.8339 57.556 69.5525 57.8778 69.1996 58.1024C68.7747 58.349 68.2927 58.4788 67.8021 58.4788C67.3115 58.4788 66.8296 58.349 66.4047 58.1024C66.045 57.8858 65.7617 57.5616 65.5942 57.1752C65.3874 56.6091 65.2924 56.0079 65.3147 55.4052V52.5957H65.6221Z" fill="white"/>
<path d="M71.9664 52.5944H72.6931V53.6058C72.9461 53.2419 73.2813 52.9434 73.6713 52.7348C74.0517 52.54 74.4743 52.4435 74.901 52.4539C75.2755 52.4517 75.6466 52.5252 75.9923 52.67C76.338 52.8147 76.6512 53.0279 76.9134 53.2967C77.4511 53.8482 77.7522 54.5896 77.7522 55.3617C77.7522 56.1339 77.4511 56.8753 76.9134 57.4267C76.6536 57.7007 76.3414 57.919 75.9956 58.0687C75.6498 58.2184 75.2775 58.2963 74.901 58.2977C74.4752 58.2994 74.0546 58.2034 73.6713 58.0167C73.2869 57.8127 72.9453 57.536 72.6651 57.202V60.2082H71.9385V52.5944H71.9664ZM74.7613 53.1282C74.4705 53.124 74.1819 53.1791 73.9129 53.2902C73.6439 53.4012 73.4001 53.5659 73.1962 53.7744C72.8491 54.1446 72.6271 54.6155 72.5619 55.12C72.4966 55.6245 72.5915 56.1368 72.8328 56.5839C73.0212 56.9268 73.3022 57.2092 73.6434 57.3986C73.984 57.5951 74.3686 57.7015 74.7613 57.7077C75.151 57.7014 75.5322 57.5915 75.866 57.3892C76.1998 57.1869 76.4744 56.8993 76.6618 56.5558C76.8637 56.2161 76.9703 55.8277 76.9703 55.432C76.9703 55.0363 76.8637 54.6479 76.6618 54.3082C76.5214 53.9386 76.279 53.617 75.9631 53.381C75.6165 53.1792 75.216 53.0908 74.8172 53.1282H74.7613Z" fill="white"/>
<path d="M81.775 52.5944H82.5017V53.6058C82.7547 53.2419 83.0899 52.9434 83.4799 52.7348C83.8603 52.54 84.2829 52.4435 84.7096 52.4539C85.0841 52.4517 85.4552 52.5252 85.8009 52.67C86.1466 52.8147 86.4598 53.0279 86.7219 53.2967C87.2596 53.8482 87.5608 54.5896 87.5608 55.3617C87.5608 56.1339 87.2596 56.8753 86.7219 57.4267C86.4622 57.7007 86.15 57.919 85.8042 58.0687C85.4584 58.2184 85.0861 58.2963 84.7096 58.2977C84.2838 58.2994 83.8632 58.2034 83.4799 58.0167C83.0955 57.8127 82.7539 57.536 82.4737 57.202V60.2082H81.7471V52.5944H81.775ZM84.5699 53.1282C84.2791 53.124 83.9905 53.1791 83.7215 53.2902C83.4525 53.4012 83.2087 53.5659 83.0048 53.7744C82.6577 54.1446 82.4357 54.6155 82.3705 55.12C82.3052 55.6245 82.4001 56.1368 82.6414 56.5839C82.8298 56.9268 83.1108 57.2092 83.4519 57.3986C83.7926 57.5951 84.1772 57.7015 84.5699 57.7077C84.9596 57.7014 85.3408 57.5915 85.6746 57.3892C86.0084 57.1869 86.283 56.8993 86.4704 56.5558C86.6723 56.2161 86.7789 55.8277 86.7789 55.432C86.7789 55.0363 86.6723 54.6479 86.4704 54.3082C86.282 53.9652 86.001 53.6828 85.6599 53.4934C85.3576 53.2737 84.9984 53.1468 84.6258 53.1282H84.5699Z" fill="white"/>
<path d="M91.4174 52.4542C91.8168 52.4471 92.2131 52.5263 92.5795 52.6862C92.9459 52.8461 93.274 53.0832 93.5416 53.3813C93.7939 53.6518 93.9905 53.9697 94.12 54.3169C94.2495 54.6641 94.3094 55.0336 94.2962 55.4042C94.3001 56.1675 94.0096 56.9026 93.4857 57.4551C93.2194 57.736 92.8982 57.9583 92.5423 58.1082C92.1863 58.2581 91.8033 58.3323 91.4174 58.3261C91.0269 58.3362 90.6386 58.264 90.2775 58.114C89.9165 57.9639 89.5907 57.7395 89.3213 57.4551C88.7973 56.9026 88.5068 56.1675 88.5108 55.4042C88.5069 54.6597 88.7755 53.9397 89.2654 53.3813C89.5361 53.0795 89.8687 52.8404 90.2402 52.6803C90.6117 52.5202 91.0134 52.4431 91.4174 52.4542ZM91.4174 53.1566C91.1289 53.1565 90.8434 53.2164 90.5788 53.3324C90.3143 53.4484 90.0765 53.6181 89.8803 53.8308C89.465 54.259 89.2341 54.8343 89.2375 55.4323C89.23 55.8251 89.3265 56.2129 89.5169 56.5561C89.7023 56.8919 89.9721 57.1729 90.2995 57.3708C90.6335 57.5553 91.0084 57.652 91.3895 57.652C91.7706 57.652 92.1455 57.5553 92.4795 57.3708C92.8132 57.181 93.085 56.898 93.2621 56.5561C93.4525 56.2129 93.549 55.8251 93.5416 55.4323C93.5449 54.8343 93.314 54.259 92.8987 53.8308C92.7209 53.6105 92.4945 53.4348 92.2373 53.3178C91.9802 53.2007 91.6995 53.1455 91.4174 53.1566Z" fill="white"/>
<path d="M95.7496 50.291C95.8853 50.293 96.0161 50.3421 96.1198 50.4301C96.2235 50.5181 96.2936 50.6394 96.3183 50.7735C96.343 50.9076 96.3208 51.0462 96.2553 51.1657C96.1898 51.2851 96.0852 51.3781 95.9592 51.4288C95.8332 51.4794 95.6937 51.4846 95.5643 51.4435C95.4349 51.4024 95.3237 51.3175 95.2496 51.2033C95.1755 51.089 95.143 50.9525 95.1578 50.8169C95.1725 50.6813 95.2335 50.5551 95.3304 50.4596C95.4466 50.3564 95.5947 50.2968 95.7496 50.291ZM95.4142 52.5948H96.1409V58.2139H95.526L95.4142 52.5948Z" fill="white"/>
<path d="M97.5067 52.594H98.3172V53.6054C98.5687 53.2505 98.8927 52.9535 99.2675 52.7345C99.6088 52.543 99.9946 52.446 100.385 52.4535C100.779 52.4518 101.166 52.5587 101.503 52.7626C101.809 52.9735 102.051 53.2651 102.202 53.6054C102.373 54.1501 102.449 54.7205 102.426 55.2911V58.1007H101.699V55.4597C101.743 55.0301 101.743 54.597 101.699 54.1673C101.594 53.8479 101.388 53.5717 101.112 53.3807C100.85 53.1754 100.521 53.0753 100.19 53.0997C99.7625 53.1035 99.349 53.252 99.0159 53.5211C98.6862 53.7972 98.4515 54.1708 98.3452 54.5888C98.2843 55.1204 98.2749 55.6567 98.3172 56.1902V58.2411H97.5906V52.6221L97.5067 52.594Z" fill="white"/>
<path d="M104.385 50.5703H105.112V52.6494H106.258V53.2675H105.112V58.156H104.385V53.2113H103.407V52.5932H104.385V50.5703Z" fill="white"/>
</g>
<defs>
<clipPath id="clip0_4632_1631">
<rect width="109" height="59" fill="white" transform="translate(0.5)"/>
</clipPath>
</defs>
</svg>
