<svg width="72" height="72" viewBox="0 0 72 72" fill="none" xmlns="http://www.w3.org/2000/svg">
<g clip-path="url(#clip0_4433_1318)">
<path d="M48.7655 72H0V23.2345C0 10.4015 10.4015 0 23.2345 0H72V48.7655C72 61.5985 61.5985 72 48.7655 72Z" fill="#00DF82"/>
<path d="M32.1096 42.1193C32.2041 42.1869 32.2852 42.2544 32.4068 42.2949C32.6094 42.43 32.839 42.5651 33.0687 42.6867C34.8383 43.6458 36.6754 44.1591 38.4856 44.2807C42.2274 44.5103 45.8882 42.9434 48.5088 39.6068C48.6439 39.4312 48.752 39.2691 48.9006 39.0799C49.0086 38.9178 49.1437 38.7422 49.2653 38.5531C49.3328 38.445 49.4274 38.3235 49.4949 38.2154C49.5625 38.1073 49.657 37.9858 49.7246 37.8507C49.8191 37.6886 49.9002 37.513 50.0218 37.3238C50.2514 36.8916 50.454 36.4863 50.6161 36.0811C50.6567 35.9865 50.7107 35.9055 50.7242 35.8109C52.6289 31.0965 51.5887 26.4901 48.4278 23.0319C47.3336 21.8026 45.9827 20.722 44.3887 19.8304L44.1456 19.6953L32.2582 13.3193L22.9103 30.7452L14.4 46.6041L20.4383 49.8462L27.7869 36.1621C28.2867 38.6071 29.7591 40.6064 32.1231 42.1058L32.1096 42.1193Z" fill="#333333"/>
<path d="M51.9129 58.4105V55.6548C51.9129 53.9257 50.5081 52.5073 48.7655 52.5073H34.6627C32.9336 52.5073 31.5152 53.9257 31.5152 55.6548V58.4105H25.8281V61.2608H57.627V58.4105H51.9129Z" fill="#333333"/>
<path d="M19.1955 28.3675L20.3977 28.9754L29.1917 11.9007L27.9625 11.2793C25.639 10.0635 22.7887 10.9821 21.5865 13.3056L17.1827 22.005C15.9805 24.3285 16.8991 27.1787 19.209 28.381L19.1955 28.3675Z" fill="#333333"/>
</g>
<defs>
<clipPath id="clip0_4433_1318">
<rect width="72" height="72" fill="white"/>
</clipPath>
</defs>
</svg>
