<svg width="238" height="88" viewBox="0 0 238 88" fill="none" xmlns="http://www.w3.org/2000/svg">
<rect x="8.75" y="18.75" width="50.5" height="50.5" rx="25.25" stroke="#333333" stroke-width="1.5"/>
<rect x="15.75" y="18.75" width="50.5" height="50.5" rx="25.25" stroke="#333333" stroke-width="1.5"/>
<rect x="23.75" y="18.75" width="50.5" height="50.5" rx="25.25" fill="#00DF82" stroke="#333333" stroke-width="1.5"/>
<path d="M45.5256 51.9625C44.0826 50.6041 43.1368 48.784 42.6883 46.5019H39.5V45.1979H42.5128C42.4543 44.6365 42.425 44.0479 42.425 43.4321C42.425 42.9069 42.4543 42.3907 42.5128 41.8836H39.5V40.5796H42.6883C42.9808 39.0944 43.4976 37.7814 44.2386 36.6404C44.9991 35.4994 45.9546 34.6119 47.1051 33.978C48.2751 33.326 49.6304 33 51.1709 33C52.0289 33 52.7992 33.0815 53.4817 33.2445C54.1837 33.3894 54.8175 33.6158 55.383 33.9237L55.032 35.3092C54.447 35.0013 53.8425 34.784 53.2185 34.6572C52.614 34.5123 51.9217 34.4398 51.1417 34.4398C49.3282 34.4398 47.8461 35.0103 46.6956 36.1514C45.5451 37.2924 44.7846 38.7684 44.4141 40.5796H52.6627V41.8836H44.2093C44.1508 42.3545 44.1216 42.8435 44.1216 43.3506C44.1216 43.9845 44.1606 44.6003 44.2386 45.1979H52.6627V46.5019H44.4433C44.8528 48.3855 45.6426 49.8706 46.8126 50.9573C48.0021 52.044 49.4939 52.5873 51.2879 52.5873C51.9509 52.5873 52.6237 52.5149 53.3062 52.37C53.9887 52.2251 54.6517 52.0078 55.2952 51.718L55.5 53.1035C54.8955 53.4295 54.2227 53.6559 53.4817 53.7827C52.7407 53.9276 51.9802 54 51.2002 54C48.8601 54 46.9686 53.3208 45.5256 51.9625Z" fill="black"/>
<path d="M109 44H127" stroke="#333333" stroke-width="1.5"/>
<path d="M193.5 14L201.066 20.2134L210.84 19.634L213.309 29.1081L221.556 34.384L217.985 43.5L221.556 52.616L213.309 57.8919L210.84 67.366L201.066 66.7866L193.5 73L185.934 66.7866L176.16 67.366L173.691 57.8919L165.444 52.616L169.015 43.5L165.444 34.384L173.691 29.1081L176.16 19.634L185.934 20.2134L193.5 14Z" fill="#00DF82" stroke="#333333" stroke-width="1.5" stroke-linejoin="round"/>
<circle cx="200.061" cy="50.2668" r="3.74678" stroke="#333333" stroke-width="1.5"/>
<circle cx="187.213" cy="37.4187" r="3.74678" stroke="#333333" stroke-width="1.5"/>
<path d="M185.286 52.1917L203.273 34.2046" stroke="#333333" stroke-width="1.5" stroke-linecap="round"/>
</svg>
