<svg width="240" height="70" viewBox="0 0 240 70" fill="none" xmlns="http://www.w3.org/2000/svg">
<path d="M91.5112 29.7358C84.9356 29.7358 80.3223 25.1662 80.3223 18.1438C80.3223 11.1214 85.1077 6.55176 91.9932 6.55176C97.9836 6.55176 102.459 9.74376 102.459 14.7502V15.0526H99.8083V14.7502C99.8083 11.0206 97.0541 8.87016 91.9588 8.87016C86.1405 8.87016 82.9043 12.0286 82.9043 18.1438C82.9043 24.259 86.1061 27.4174 91.8555 27.4174C97.3295 27.4174 100.015 25.4014 100.015 21.0334V20.1934H90.8571V18.3118H102.494V29.3998H100.29V24.4942H100.118C98.9476 28.123 95.6081 29.7358 91.5112 29.7358ZM114.942 29.7358C109.468 29.7358 105.991 26.3758 105.991 21.1006C105.991 16.0606 109.434 12.4654 114.908 12.4654C119.9 12.4654 123.446 15.2878 123.446 20.227C123.446 20.8318 123.377 21.3358 123.274 21.7726H108.298C108.435 25.5022 110.398 27.7534 114.908 27.7534C118.901 27.7534 120.76 26.3086 120.76 23.8894V23.6542H123.205V23.8894C123.205 27.3502 119.693 29.7358 114.942 29.7358ZM114.873 14.4478C110.467 14.4478 108.47 16.6654 108.298 20.2942H121.139C121.139 20.1262 121.139 19.9582 121.139 19.7902C121.139 16.2958 118.867 14.4478 114.873 14.4478ZM129.821 29.3998H127.376V12.8014H129.58V18.0094H129.752C130.337 15.187 132.747 12.4654 136.982 12.4654C141.767 12.4654 144.142 15.7918 144.142 19.723V29.3998H141.698V20.059C141.698 16.6318 140.011 14.6494 136.121 14.6494C131.99 14.6494 129.821 17.1022 129.821 21.3694V29.3998ZM156.899 29.7358C151.425 29.7358 147.948 26.3758 147.948 21.1006C147.948 16.0606 151.391 12.4654 156.865 12.4654C161.857 12.4654 165.403 15.2878 165.403 20.227C165.403 20.8318 165.334 21.3358 165.231 21.7726H150.255C150.392 25.5022 152.355 27.7534 156.865 27.7534C160.858 27.7534 162.718 26.3086 162.718 23.8894V23.6542H165.162V23.8894C165.162 27.3502 161.65 29.7358 156.899 29.7358ZM156.83 14.4478C152.424 14.4478 150.427 16.6654 150.255 20.2942H163.096C163.096 20.1262 163.096 19.9582 163.096 19.7902C163.096 16.2958 160.824 14.4478 156.83 14.4478ZM176.804 29.7358C171.571 29.7358 168.542 27.6862 168.542 23.8558V23.7886H170.986V23.9902C170.986 26.779 172.673 27.7534 176.839 27.7534C180.66 27.7534 181.968 26.8798 181.968 24.9646C181.968 23.2174 180.901 22.6462 178.078 22.2094L173.534 21.571C170.435 21.1678 168.473 19.9918 168.473 17.2366C168.473 14.3134 171.33 12.4654 176.012 12.4654C180.901 12.4654 184.068 14.4814 184.068 18.379V18.4462H181.624V18.2782C181.624 15.7918 180.281 14.4478 175.943 14.4478C172.363 14.4478 170.883 15.2878 170.883 17.2702C170.883 18.9838 171.778 19.5886 174.601 19.9918L178.767 20.563C182.416 21.067 184.378 22.2766 184.378 24.9646C184.378 28.0894 181.211 29.7358 176.804 29.7358ZM190.723 10.6846H188.279V6.88776H190.723V10.6846ZM190.723 29.3998H188.279V12.8014H190.723V29.3998ZM202.993 29.7358C197.76 29.7358 194.731 27.6862 194.731 23.8558V23.7886H197.175V23.9902C197.175 26.779 198.862 27.7534 203.028 27.7534C206.849 27.7534 208.158 26.8798 208.158 24.9646C208.158 23.2174 207.09 22.6462 204.267 22.2094L199.723 21.571C196.624 21.1678 194.662 19.9918 194.662 17.2366C194.662 14.3134 197.52 12.4654 202.202 12.4654C207.09 12.4654 210.258 14.4814 210.258 18.379V18.4462H207.813V18.2782C207.813 15.7918 206.471 14.4478 202.133 14.4478C198.552 14.4478 197.072 15.2878 197.072 17.2702C197.072 18.9838 197.967 19.5886 200.79 19.9918L204.956 20.563C208.605 21.067 210.568 22.2766 210.568 24.9646C210.568 28.0894 207.4 29.7358 202.993 29.7358Z" fill="#D42727"/>
<path d="M94.013 62.9998H90.6046L80.4485 40.4878H83.3404L92.2572 60.5806H92.4293L101.312 40.4878H104.169L94.013 62.9998ZM114.897 63.3358C109.423 63.3358 105.946 59.9758 105.946 54.7006C105.946 49.6606 109.389 46.0654 114.863 46.0654C119.855 46.0654 123.401 48.8878 123.401 53.827C123.401 54.4318 123.332 54.9358 123.229 55.3726H108.253C108.39 59.1022 110.353 61.3534 114.863 61.3534C118.856 61.3534 120.716 59.9086 120.716 57.4894V57.2542H123.16V57.4894C123.16 60.9502 119.648 63.3358 114.897 63.3358ZM114.828 48.0478C110.422 48.0478 108.425 50.2654 108.253 53.8942H121.094C121.094 53.7262 121.094 53.5582 121.094 53.3902C121.094 49.8958 118.822 48.0478 114.828 48.0478ZM129.776 62.9998H127.332V46.4014H129.535V51.6094H129.707C130.292 48.787 132.702 46.0654 136.937 46.0654C141.722 46.0654 144.098 49.3918 144.098 53.323V62.9998H141.653V53.659C141.653 50.2318 139.966 48.2494 136.076 48.2494C131.945 48.2494 129.776 50.7022 129.776 54.9694V62.9998ZM159.196 62.9998H155.512C152.138 62.9998 149.969 61.6222 149.969 57.7246V48.451H146.94V46.4014H149.969V42.4366H152.448V46.4014H159.196V48.451H152.448V57.859C152.448 60.1774 153.619 60.8158 156.097 60.8158H159.196V62.9998ZM169.691 63.3358C164.836 63.3358 162.461 60.043 162.461 56.1118V46.4014H164.905V55.7422C164.905 59.203 166.626 61.1854 170.551 61.1854C174.717 61.1854 176.886 58.7326 176.886 54.4654V46.4014H179.33V62.9998H177.127V57.8254H176.955C176.369 60.6478 173.925 63.3358 169.691 63.3358ZM186.576 62.9998H184.131V46.4014H186.335V50.9374H186.507C187.023 48.283 188.951 46.0654 192.497 46.0654C196.422 46.0654 198.144 48.8878 198.144 51.979V53.6254H195.699V52.3486C195.699 49.5262 194.494 48.1486 191.533 48.1486C188.091 48.1486 186.576 50.2654 186.576 53.995V62.9998ZM209.754 63.3358C204.28 63.3358 200.803 59.9758 200.803 54.7006C200.803 49.6606 204.246 46.0654 209.72 46.0654C214.712 46.0654 218.258 48.8878 218.258 53.827C218.258 54.4318 218.189 54.9358 218.086 55.3726H203.11C203.247 59.1022 205.21 61.3534 209.72 61.3534C213.713 61.3534 215.572 59.9086 215.572 57.4894V57.2542H218.017V57.4894C218.017 60.9502 214.505 63.3358 209.754 63.3358ZM209.685 48.0478C205.279 48.0478 203.282 50.2654 203.11 53.8942H215.951C215.951 53.7262 215.951 53.5582 215.951 53.3902C215.951 49.8958 213.679 48.0478 209.685 48.0478ZM229.661 63.3358C224.428 63.3358 221.398 61.2862 221.398 57.4558V57.3886H223.842V57.5902C223.842 60.379 225.529 61.3534 229.695 61.3534C233.516 61.3534 234.825 60.4798 234.825 58.5646C234.825 56.8174 233.757 56.2462 230.934 55.8094L226.39 55.171C223.291 54.7678 221.329 53.5918 221.329 50.8366C221.329 47.9134 224.187 46.0654 228.869 46.0654C233.757 46.0654 236.925 48.0814 236.925 51.979V52.0462H234.48V51.8782C234.48 49.3918 233.138 48.0478 228.8 48.0478C225.219 48.0478 223.739 48.8878 223.739 50.8702C223.739 52.5838 224.634 53.1886 227.457 53.5918L231.623 54.163C235.272 54.667 237.235 55.8766 237.235 58.5646C237.235 61.6894 234.067 63.3358 229.661 63.3358Z" fill="#D42727"/>
<mask id="mask0_4629_2392" style="mask-type:luminance" maskUnits="userSpaceOnUse" x="0" y="0" width="55" height="70">
<path d="M54.2888 0H0.220703V70H54.2888V0Z" fill="white"/>
</mask>
<g mask="url(#mask0_4629_2392)">
<path d="M54.2888 26.9608C54.2888 26.108 53.578 25.4143 52.7043 25.4143H26.1615C25.7675 25.4143 25.4507 25.7281 25.4507 26.108C25.4507 31.2201 29.6021 35.3822 34.7948 35.5677C35.0076 36.2173 35.2882 36.8403 35.6278 37.4234V44.1438C35.6278 48.5754 31.8295 52.1851 27.1665 52.1851C22.5035 52.1851 18.7052 48.5754 18.7052 44.1438V26.2406C18.7052 21.8091 22.4989 17.7397 27.1665 17.7397H38.3939C40.7209 17.7397 42.835 16.5512 44.3561 14.6336C45.4155 13.3037 46.1943 11.6159 46.57 9.72922C48.2314 9.23878 49.7164 8.35512 50.9116 7.18866C52.7949 5.34621 53.9629 2.81008 53.9629 0H27.2525C12.349 0 0.220703 12.1063 0.220703 26.9874V43.0171C0.220703 57.8938 12.349 70 27.2525 70C42.1559 70 54.2888 57.8938 54.2888 43.0171V39.8756C54.2888 39.6768 54.1214 39.5133 53.9175 39.5133H44.7047C44.4241 39.5133 44.148 39.4957 43.8763 39.4647C43.8446 39.4647 43.8175 39.4604 43.7902 39.4559C41.7305 39.2041 39.9377 38.0995 38.7968 36.5221C38.5704 36.2216 38.3804 35.908 38.2128 35.5767C38.2038 35.5634 38.1948 35.5501 38.1902 35.5369H52.7043C53.578 35.5369 54.2888 34.8432 54.2888 33.9905C54.2888 33.1377 53.578 32.444 52.7043 32.444H34.4417C32.0196 32.1877 29.9914 30.6324 29.1042 28.5072H52.7043C53.578 28.5072 54.2888 27.8135 54.2888 26.9608ZM46.9774 44.6564V44.6475C46.982 44.4884 46.982 44.3338 46.982 44.1748L46.9729 42.6062H51.1197V43.0171C51.1197 56.1926 40.413 66.9071 27.2525 66.9071C14.092 66.9071 3.38973 56.1926 3.38973 43.0171V26.9874C3.38973 13.8118 14.092 3.09285 27.2525 3.09285H50.065C49.653 3.91467 49.078 4.66578 48.3492 5.29761C46.9864 6.47731 45.1892 7.06937 43.3648 7.06937H27.2525C23.5764 7.06937 20.1312 8.08559 17.184 9.85293C17.0257 9.94571 16.8672 10.0429 16.7086 10.1401C16.6408 10.1843 16.5729 10.2241 16.505 10.2727C11.7469 13.3258 8.40585 18.3229 7.69056 23.9564C7.6815 24.0093 7.67244 24.0624 7.66792 24.1109C7.5321 25.052 7.4642 26.0109 7.4642 26.9874V43.0171C7.4642 43.6843 7.49588 44.3426 7.56379 44.9921C7.88975 51.9334 12.2313 57.8981 18.429 60.8363C21.0865 62.1751 24.0835 62.9307 27.2525 62.9307C31.2681 62.9307 35.0076 61.72 38.1314 59.6434C38.154 59.6345 38.1721 59.6212 38.1902 59.6081C43.3375 56.3473 46.8054 50.8817 46.9774 44.6564ZM38.7968 44.1438V40.8079C40.2411 41.7844 41.9522 42.4117 43.8039 42.5664C43.8265 42.5664 43.8492 42.5664 43.8763 42.5664V43.0126C43.8763 43.5163 43.8536 44.0157 43.8085 44.5105C43.7178 48.4915 41.9976 52.2382 38.9371 55.1013C38.0951 55.8877 37.1806 56.5859 36.2073 57.1735H36.2027C33.5226 58.8171 30.408 59.6919 27.1665 59.6919C24.5 59.6919 21.9828 59.0911 19.7555 58.0219C19.7328 58.0131 19.7057 57.9998 19.6785 57.9865C14.5492 55.5034 10.9773 50.5415 10.7238 44.7889C10.7147 44.5724 10.7102 44.3559 10.7102 44.1393V26.2361C10.7102 25.6662 10.7419 25.0963 10.8098 24.5395C10.8098 24.4997 10.8098 24.46 10.8234 24.4247C11.43 19.3568 14.5674 14.9031 18.9859 12.3891C19.1127 12.314 19.2394 12.2477 19.3662 12.177C21.2268 11.1829 23.3048 10.5245 25.5095 10.3036C26.0529 10.2506 26.6096 10.2241 27.1665 10.2241H43.1746C42.8667 11.1652 42.4186 12.0223 41.8527 12.7337C41.2868 13.4495 40.0825 14.6425 38.3939 14.6425H27.1665C20.8602 14.6425 15.5361 19.9534 15.5361 26.2361V44.1393C15.5361 50.2765 20.7514 55.2737 27.1665 55.2737C33.5815 55.2737 38.7968 50.2765 38.7968 44.1393V44.1438Z" fill="#D42727"/>
</g>
</svg>
