<svg width="252" height="20" viewBox="0 0 252 20" fill="none" xmlns="http://www.w3.org/2000/svg">
<circle cx="2" cy="10" r="2" fill="#2463EB" fill-opacity="0.2"/>
<circle cx="10" cy="10" r="2" fill="#2463EB" fill-opacity="0.3"/>
<circle cx="18" cy="10" r="2" fill="#2463EB" fill-opacity="0.4"/>
<circle cx="26" cy="10" r="2" fill="#2463EB" fill-opacity="0.5"/>
<circle cx="34" cy="10" r="2" fill="#2463EB" fill-opacity="0.7"/>
<circle cx="42" cy="10" r="2" fill="#2463EB"/>
<circle cx="50" cy="10" r="2" fill="#2463EB"/>
<circle cx="58" cy="10" r="2" fill="#2463EB"/>
<circle cx="66" cy="10" r="2" fill="#2463EB"/>
<rect x="72" y="6" width="4" height="8" rx="2" fill="#2463EB"/>
<rect x="80" y="4" width="4" height="12" rx="2" fill="#2463EB"/>
<rect x="88" y="7" width="4" height="6" rx="2" fill="#2463EB"/>
<rect x="96" y="8" width="4" height="4" rx="2" fill="#2463EB"/>
<rect x="104" y="8" width="4" height="4" rx="2" fill="#2463EB"/>
<rect x="112" y="8" width="4" height="4" rx="2" fill="#2463EB"/>
<rect x="120" y="6" width="4" height="8" rx="2" fill="#2463EB"/>
<rect x="128" y="4" width="4" height="12" rx="2" fill="#2463EB"/>
<rect x="136" y="2" width="4" height="10" rx="2" fill="#2463EB"/>
<rect x="136" y="14" width="4" height="4" rx="2" fill="#2463EB"/>
<rect x="144" y="6" width="4" height="8" rx="2" fill="#2463EB"/>
<rect x="152" width="4" height="20" rx="2" fill="#2463EB"/>
<rect x="160" y="4" width="4" height="4" rx="2" fill="#2463EB"/>
<rect x="160" y="10" width="4" height="6" rx="2" fill="#2463EB"/>
<rect x="168" y="6" width="4" height="8" rx="2" fill="#2463EB"/>
<circle cx="178" cy="10" r="2" fill="#2463EB"/>
<circle cx="186" cy="10" r="2" fill="#2463EB"/>
<circle cx="194" cy="10" r="2" fill="#2463EB"/>
<rect x="200" y="6" width="4" height="8" rx="2" fill="#2463EB"/>
<rect x="208" y="4" width="4" height="12" rx="2" fill="#2463EB"/>
<rect x="216" y="7" width="4" height="6" rx="2" fill="#2463EB" fill-opacity="0.7"/>
<rect x="224" y="8" width="4" height="4" rx="2" fill="#2463EB" fill-opacity="0.5"/>
<rect x="232" y="8" width="4" height="4" rx="2" fill="#2463EB" fill-opacity="0.4"/>
<rect x="240" y="8" width="4" height="4" rx="2" fill="#2463EB" fill-opacity="0.3"/>
<rect x="248" y="8" width="4" height="4" rx="2" fill="#2463EB" fill-opacity="0.2"/>
</svg>
