<svg width="59" height="59" viewBox="0 0 59 59" fill="none" xmlns="http://www.w3.org/2000/svg">
<g clip-path="url(#clip0_4632_1668)">
<path fill-rule="evenodd" clip-rule="evenodd" d="M12.8727 36.8471C13.8394 38.2971 14.9994 39.5537 16.3527 40.6171C18.4794 40.0371 20.7027 39.6504 23.2161 39.3604C22.9261 38.5871 22.7327 37.7171 22.4427 36.8471H23.6994C23.8927 37.7171 24.1827 38.4904 24.3761 39.2637C26.0194 39.1671 27.6627 39.0704 29.4027 39.0704C31.2394 39.0704 32.9794 39.1671 34.7194 39.2637C35.0094 38.4904 35.2027 37.7171 35.4927 36.8471H36.8461C36.6527 37.7171 36.3627 38.5871 36.0727 39.4571C38.4894 39.7471 40.8094 40.1337 42.8394 40.7137C44.1927 39.5537 45.3527 38.2971 46.3194 36.8471H47.8661C43.9994 42.9371 37.2327 46.9004 29.4994 46.9004C21.7661 46.9004 14.9994 42.8404 11.1327 36.8471H12.8727ZM29.4994 40.3271C27.9527 40.3271 26.4061 40.4237 24.9561 40.5204C26.3094 43.7104 28.0494 45.7404 29.6927 45.7404C31.3361 45.7404 33.0761 43.8071 34.4294 40.6171C32.7861 40.4237 31.1427 40.3271 29.4994 40.3271ZM35.6861 40.7137C34.9127 42.7437 33.8494 44.3871 32.7861 45.4504C35.9761 44.9671 39.0694 43.5171 41.5827 41.6804C39.8427 41.1971 37.8127 40.9071 35.6861 40.7137ZM23.6027 40.6171C21.4761 40.8104 19.4461 41.1971 17.6094 41.5837C20.1227 43.4204 23.2161 44.8704 26.5027 45.3537C25.4394 44.3871 24.3761 42.6471 23.6027 40.6171ZM25.6327 15.3871C26.8894 15.3871 28.1461 15.4837 29.8861 15.6771H34.3327V21.3804H29.7894V20.2204C29.1127 19.8337 27.5661 19.4471 25.9227 19.4471C23.7961 19.4471 23.0227 20.0271 23.0227 20.8971C23.0227 24.1837 35.2027 20.4137 35.2027 28.7271C35.2027 32.2071 32.8827 35.0104 26.0194 35.0104C24.7627 35.0104 23.2161 34.8171 21.5727 34.6237H17.4161V29.5004H21.5727V30.2737C22.2494 30.6604 23.7961 31.0471 25.6327 31.0471C27.9527 31.0471 28.9194 30.4671 28.9194 29.5971C28.9194 26.5037 16.9327 30.0804 16.9327 21.7671C16.7394 17.2237 20.3161 15.3871 25.6327 15.3871ZM46.2227 15.3871C52.3127 15.3871 56.5661 18.8671 56.5661 25.1504C56.5661 31.4337 52.2161 34.9137 46.2227 34.9137C40.2294 34.9137 35.8794 31.4337 35.8794 25.1504C35.8794 18.8671 40.2294 15.3871 46.2227 15.3871ZM15.5794 15.8704V20.4137H12.4861V29.8871H15.5794V34.4304H3.39941V29.8871H6.49275V20.4137H3.39941V15.8704H15.5794ZM46.2227 19.7371C43.8061 19.7371 42.3561 21.2837 42.3561 25.0537C42.3561 28.8237 43.9027 30.3704 46.2227 30.3704C48.6394 30.3704 50.0894 28.8237 50.0894 25.0537C50.0894 21.2837 48.6394 19.7371 46.2227 19.7371ZM29.6927 3.40039C37.4261 3.40039 44.1927 7.46039 48.0594 13.4537H46.5127C45.5461 12.0037 44.3861 10.7471 43.0327 9.68372C41.0027 10.2637 38.6827 10.6504 36.1694 10.9404C36.4594 11.7137 36.6527 12.5837 36.9427 13.4537H35.5894C35.3961 12.5837 35.1061 11.8104 34.9127 11.0371C33.2694 11.1337 31.6261 11.2304 29.8861 11.2304C28.0494 11.2304 26.3094 11.1337 24.5694 11.0371C24.2794 11.8104 24.0861 12.5837 23.7961 13.4537H22.4427C22.6361 12.5837 22.9261 11.7137 23.2161 10.8437C20.7994 10.5537 18.4794 10.1671 16.4494 9.58706C15.0961 10.7471 13.9361 12.0037 12.9694 13.4537H11.4227C15.1927 7.46039 21.9594 3.40039 29.6927 3.40039ZM29.6927 4.65706C28.0494 4.65706 26.3094 6.59039 24.9561 9.78039C26.5027 9.87706 28.1461 9.97372 29.7894 9.97372C31.3361 9.97372 32.8827 9.87706 34.3327 9.78039C32.9794 6.59039 31.3361 4.65706 29.6927 4.65706ZM32.7861 4.85039C33.8494 5.91372 34.9127 7.55706 35.6861 9.68372C37.8127 9.49039 39.8427 9.10372 41.6794 8.71706C39.1661 6.78372 36.0727 5.43039 32.7861 4.85039ZM26.5027 4.85039C23.3127 5.33372 20.2194 6.78372 17.7061 8.62039C19.5427 9.10372 21.5727 9.39372 23.6027 9.68372C24.3761 7.55706 25.4394 5.91372 26.5027 4.85039Z" fill="white"/>
<path d="M26.7282 54.6655V54.2789H25.0848C24.9882 54.2789 24.8915 54.2789 24.6982 54.3755V54.2789C24.8915 54.1822 24.8915 54.0855 24.9882 54.0855L25.5682 53.6022C26.1482 53.1189 26.5348 52.6355 26.5348 52.0555C26.5348 51.3789 26.0515 50.9922 25.3748 50.9922C24.6015 50.9922 24.2148 51.4755 24.1182 52.2489H24.6015C24.6015 51.6689 24.8915 51.3789 25.3748 51.3789C25.8582 51.3789 26.0515 51.6689 26.0515 52.0555C26.0515 52.5389 25.7615 52.9255 25.2782 53.3122L24.1182 54.2789V54.6655H26.7282Z" fill="white"/>
<path d="M27.7919 54.6655L29.5319 51.3789V50.9922H26.9219V51.3789H28.6619C28.8552 51.3789 28.9519 51.3789 29.1452 51.2822V51.3789C28.9519 51.4755 28.9519 51.5722 28.8552 51.7655L27.3085 54.7622H27.7919V54.6655Z" fill="white"/>
<path d="M31.2714 54.6665C32.0448 54.6665 32.5281 54.0865 32.5281 52.8298C32.5281 51.5732 32.0448 50.8965 31.2714 50.8965C30.4981 50.8965 30.0148 51.4765 30.0148 52.8298C30.0148 54.0865 30.4981 54.6665 31.2714 54.6665ZM31.2714 54.2798C30.7881 54.2798 30.4014 53.7965 30.4014 52.8298C30.4014 51.8632 30.6914 51.3798 31.1748 51.3798C31.6581 51.3798 32.0448 51.8632 32.0448 52.9265C32.1414 53.7965 31.7548 54.2798 31.2714 54.2798Z" fill="white"/>
<path d="M34.4617 54.6665C35.2351 54.6665 35.7184 54.0865 35.7184 52.8298C35.7184 51.5732 35.2351 50.8965 34.4617 50.8965C33.6884 50.8965 33.2051 51.4765 33.2051 52.8298C33.2051 54.0865 33.6884 54.6665 34.4617 54.6665ZM34.4617 54.2798C33.9784 54.2798 33.5917 53.7965 33.5917 52.8298C33.5917 51.8632 33.8817 51.3798 34.3651 51.3798C34.8484 51.3798 35.2351 51.8632 35.2351 52.9265C35.3317 53.7965 34.9451 54.2798 34.4617 54.2798Z" fill="white"/>
<path d="M37.6512 54.6655V50.9922H37.1678C36.9745 51.2822 36.5878 51.6689 36.1045 51.7655V52.2489C36.2978 52.1522 36.5878 52.0555 36.8778 51.8622C36.9745 51.7655 37.0712 51.6689 37.1678 51.5722H37.2645C37.2645 51.6689 37.2645 51.7655 37.2645 51.8622V54.7622H37.6512V54.6655Z" fill="white"/>
</g>
<defs>
<clipPath id="clip0_4632_1668">
<rect width="58" height="58" fill="white" transform="translate(0.5 0.5)"/>
</clipPath>
</defs>
</svg>
