<svg width="200" height="80" viewBox="0 0 200 80" fill="none" xmlns="http://www.w3.org/2000/svg">
<rect x="0.5" y="0.5" width="199" height="79" fill="white"/>
<rect x="0.5" y="0.5" width="199" height="79" stroke="#EEF2F0"/>
<path d="M63.0188 30.76H66.8828V45.832H75.0668V49H63.0188V30.76ZM77.3798 43.672C76.8998 42.504 76.6598 41.24 76.6598 39.88C76.6598 38.536 76.8998 37.288 77.3798 36.136C77.8758 34.984 78.5638 33.976 79.4438 33.112C80.3398 32.248 81.3718 31.576 82.5398 31.096C83.7238 30.616 84.9958 30.376 86.3558 30.376C87.7478 30.376 89.0278 30.616 90.1958 31.096C91.3798 31.56 92.4118 32.224 93.2918 33.088C94.1718 33.936 94.8518 34.936 95.3318 36.088C95.8118 37.24 96.0518 38.504 96.0518 39.88C96.0518 41.224 95.8038 42.472 95.3078 43.624C94.8278 44.776 94.1398 45.784 93.2438 46.648C92.3638 47.512 91.3398 48.184 90.1718 48.664C89.0038 49.144 87.7318 49.384 86.3558 49.384C84.9638 49.384 83.6758 49.152 82.4918 48.688C81.3078 48.208 80.2758 47.544 79.3958 46.696C78.5318 45.832 77.8598 44.824 77.3798 43.672ZM92.0438 39.88C92.0438 38.696 91.7958 37.648 91.2998 36.736C90.8198 35.824 90.1478 35.112 89.2838 34.6C88.4358 34.072 87.4598 33.808 86.3558 33.808C85.2518 33.808 84.2678 34.072 83.4038 34.6C82.5558 35.112 81.8838 35.824 81.3878 36.736C80.9078 37.648 80.6678 38.696 80.6678 39.88C80.6678 41.048 80.9078 42.096 81.3878 43.024C81.8838 43.936 82.5558 44.656 83.4038 45.184C84.2678 45.696 85.2518 45.952 86.3558 45.952C87.4598 45.952 88.4358 45.696 89.2838 45.184C90.1478 44.656 90.8198 43.936 91.2998 43.024C91.7958 42.112 92.0438 41.064 92.0438 39.88ZM115.472 47.896C114.416 48.344 113.288 48.688 112.088 48.928C110.904 49.152 109.696 49.264 108.464 49.264C106.448 49.264 104.688 48.888 103.184 48.136C101.696 47.368 100.536 46.296 99.7041 44.92C98.8881 43.544 98.4801 41.928 98.4801 40.072C98.4801 38.168 98.9121 36.496 99.7761 35.056C100.656 33.616 101.872 32.496 103.424 31.696C104.976 30.896 106.784 30.496 108.848 30.496C109.936 30.496 111.032 30.624 112.136 30.88C113.24 31.12 114.232 31.472 115.112 31.936L114.488 35.056C113.592 34.64 112.648 34.328 111.656 34.12C110.68 33.896 109.704 33.784 108.728 33.784C107.448 33.784 106.328 34.04 105.368 34.552C104.424 35.064 103.688 35.784 103.16 36.712C102.632 37.624 102.368 38.696 102.368 39.928C102.368 41.816 102.928 43.304 104.048 44.392C105.168 45.48 106.72 46.024 108.704 46.024C109.792 46.024 110.864 45.88 111.92 45.592V41.728H108.392V38.848H115.472V47.896ZM119.286 43.672C118.806 42.504 118.566 41.24 118.566 39.88C118.566 38.536 118.806 37.288 119.286 36.136C119.782 34.984 120.47 33.976 121.35 33.112C122.246 32.248 123.278 31.576 124.446 31.096C125.63 30.616 126.902 30.376 128.262 30.376C129.654 30.376 130.934 30.616 132.102 31.096C133.286 31.56 134.318 32.224 135.198 33.088C136.078 33.936 136.758 34.936 137.238 36.088C137.718 37.24 137.958 38.504 137.958 39.88C137.958 41.224 137.71 42.472 137.214 43.624C136.734 44.776 136.046 45.784 135.15 46.648C134.27 47.512 133.246 48.184 132.078 48.664C130.91 49.144 129.638 49.384 128.262 49.384C126.87 49.384 125.582 49.152 124.398 48.688C123.214 48.208 122.182 47.544 121.302 46.696C120.438 45.832 119.766 44.824 119.286 43.672ZM133.95 39.88C133.95 38.696 133.702 37.648 133.206 36.736C132.726 35.824 132.054 35.112 131.19 34.6C130.342 34.072 129.366 33.808 128.262 33.808C127.158 33.808 126.174 34.072 125.31 34.6C124.462 35.112 123.79 35.824 123.294 36.736C122.814 37.648 122.574 38.696 122.574 39.88C122.574 41.048 122.814 42.096 123.294 43.024C123.79 43.936 124.462 44.656 125.31 45.184C126.174 45.696 127.158 45.952 128.262 45.952C129.366 45.952 130.342 45.696 131.19 45.184C132.054 44.656 132.726 43.936 133.206 43.024C133.702 42.112 133.95 41.064 133.95 39.88Z" fill="#333333"/>
</svg>
