<svg width="108" height="51" viewBox="0 0 108 51" fill="none" xmlns="http://www.w3.org/2000/svg">
<rect x="0.5" y="0.5" width="107" height="50" fill="#F0F0F0"/>
<rect x="0.5" y="0.5" width="107" height="50" stroke="#EEF2F0"/>
<path d="M25 18.303H27.9906V30.197H34.3247V32.697H25V18.303Z" fill="#333333"/>
<path d="M36.1148 28.4924C35.7433 27.5707 35.5576 26.5732 35.5576 25.5C35.5576 24.4394 35.7433 23.4545 36.1148 22.5455C36.4987 21.6364 37.0312 20.8409 37.7123 20.1591C38.4058 19.4773 39.2045 18.947 40.1085 18.5682C41.0248 18.1894 42.0093 18 43.0619 18C44.1393 18 45.1299 18.1894 46.0339 18.5682C46.9503 18.9343 47.749 19.4583 48.4301 20.1402C49.1112 20.8093 49.6375 21.5985 50.009 22.5076C50.3805 23.4167 50.5662 24.4141 50.5662 25.5C50.5662 26.5606 50.3743 27.5455 49.9904 28.4545C49.6189 29.3636 49.0864 30.1591 48.3929 30.8409C47.7119 31.5227 46.9193 32.053 46.0153 32.4318C45.1114 32.8106 44.1269 33 43.0619 33C41.9846 33 40.9877 32.8169 40.0713 32.4508C39.155 32.072 38.3562 31.548 37.6751 30.8788C37.0064 30.197 36.4863 29.4015 36.1148 28.4924ZM47.4642 25.5C47.4642 24.5657 47.2723 23.7386 46.8884 23.0189C46.5169 22.2992 45.9968 21.7374 45.3281 21.3333C44.6717 20.9167 43.9164 20.7083 43.0619 20.7083C42.2075 20.7083 41.4459 20.9167 40.7772 21.3333C40.1209 21.7374 39.6008 22.2992 39.2169 23.0189C38.8454 23.7386 38.6596 24.5657 38.6596 25.5C38.6596 26.4217 38.8454 27.2487 39.2169 27.9811C39.6008 28.7008 40.1209 29.2689 40.7772 29.6856C41.4459 30.0896 42.2075 30.2917 43.0619 30.2917C43.9164 30.2917 44.6717 30.0896 45.3281 29.6856C45.9968 29.2689 46.5169 28.7008 46.8884 27.9811C47.2723 27.2614 47.4642 26.4343 47.4642 25.5Z" fill="#333333"/>
<path d="M65.5968 31.8258C64.7795 32.1793 63.9064 32.4508 62.9777 32.6402C62.0613 32.8169 61.1264 32.9053 60.1729 32.9053C58.6126 32.9053 57.2504 32.6086 56.0864 32.0152C54.9347 31.4091 54.0369 30.5631 53.393 29.4773C52.7614 28.3914 52.4456 27.1162 52.4456 25.6515C52.4456 24.149 52.78 22.8295 53.4487 21.6932C54.1298 20.5568 55.0709 19.673 56.2721 19.0417C57.4733 18.4104 58.8726 18.0947 60.4701 18.0947C61.3121 18.0947 62.1604 18.1957 63.0148 18.3977C63.8693 18.5871 64.6371 18.8649 65.3181 19.2311L64.8352 21.6932C64.1417 21.3649 63.4111 21.1187 62.6433 20.9545C61.888 20.7778 61.1326 20.6894 60.3772 20.6894C59.3865 20.6894 58.5197 20.8914 57.7767 21.2955C57.0461 21.6995 56.4764 22.2677 56.0678 23C55.6591 23.7197 55.4548 24.5657 55.4548 25.5379C55.4548 27.0278 55.8882 28.202 56.7551 29.0606C57.6219 29.9192 58.8231 30.3485 60.3586 30.3485C61.2007 30.3485 62.0304 30.2348 62.8477 30.0076V26.9583H60.1171V24.6856H65.5968V31.8258Z" fill="#333333"/>
<path d="M68.5486 28.4924C68.1771 27.5707 67.9914 26.5732 67.9914 25.5C67.9914 24.4394 68.1771 23.4545 68.5486 22.5455C68.9325 21.6364 69.465 20.8409 70.1461 20.1591C70.8395 19.4773 71.6383 18.947 72.5422 18.5682C73.4586 18.1894 74.4431 18 75.4957 18C76.573 18 77.5637 18.1894 78.4677 18.5682C79.3841 18.9343 80.1828 19.4583 80.8639 20.1402C81.545 20.8093 82.0712 21.5985 82.4427 22.5076C82.8142 23.4167 83 24.4141 83 25.5C83 26.5606 82.8081 27.5455 82.4242 28.4545C82.0527 29.3636 81.5202 30.1591 80.8267 30.8409C80.1456 31.5227 79.3531 32.053 78.4491 32.4318C77.5451 32.8106 76.5606 33 75.4957 33C74.4183 33 73.4215 32.8169 72.5051 32.4508C71.5887 32.072 70.79 31.548 70.1089 30.8788C69.4402 30.197 68.9201 29.4015 68.5486 28.4924ZM79.898 25.5C79.898 24.5657 79.706 23.7386 79.3221 23.0189C78.9506 22.2992 78.4305 21.7374 77.7618 21.3333C77.1055 20.9167 76.3501 20.7083 75.4957 20.7083C74.6412 20.7083 73.8797 20.9167 73.2109 21.3333C72.5546 21.7374 72.0345 22.2992 71.6506 23.0189C71.2791 23.7386 71.0934 24.5657 71.0934 25.5C71.0934 26.4217 71.2791 27.2487 71.6506 27.9811C72.0345 28.7008 72.5546 29.2689 73.2109 29.6856C73.8797 30.0896 74.6412 30.2917 75.4957 30.2917C76.3501 30.2917 77.1055 30.0896 77.7618 29.6856C78.4305 29.2689 78.9506 28.7008 79.3221 27.9811C79.706 27.2614 79.898 26.4343 79.898 25.5Z" fill="#333333"/>
</svg>
