<svg width="153" height="24" viewBox="0 0 153 24" fill="none" xmlns="http://www.w3.org/2000/svg">
<path d="M3.37908 11.7983C3.37908 10.8305 2.62265 10.0459 1.68954 10.0459C0.756433 10.0459 0 10.8305 0 11.7983V12.3113C0 13.2791 0.756433 14.0637 1.68954 14.0637C2.62265 14.0637 3.37908 13.2791 3.37908 12.3113V11.7983Z" fill="white"/>
<path d="M28.0017 11.7983C28.0017 10.8305 27.2452 10.0459 26.3121 10.0459C25.379 10.0459 24.6226 10.8305 24.6226 11.7983V12.3113C24.6226 13.2791 25.379 14.0637 26.3121 14.0637C27.2452 14.0637 28.0017 13.2791 28.0017 12.3113V11.7983Z" fill="white"/>
<path d="M8.30462 9.7905C8.30462 8.82267 7.54818 8.03809 6.61508 8.03809C5.68197 8.03809 4.92554 8.82267 4.92554 9.7905V14.3239C4.92554 15.2917 5.68197 16.0763 6.61508 16.0763C7.54818 16.0763 8.30462 15.2917 8.30462 14.3239V9.7905Z" fill="white"/>
<path d="M23.0787 9.7905C23.0787 8.82267 22.3222 8.03809 21.3891 8.03809C20.456 8.03809 19.6996 8.82267 19.6996 9.7905V14.3239C19.6996 15.2917 20.456 16.0763 21.3891 16.0763C22.3222 16.0763 23.0787 15.2917 23.0787 14.3239V9.7905Z" fill="white"/>
<path d="M13.2276 1.75241C13.2276 0.784583 12.4712 0 11.5381 0C10.605 0 9.84854 0.784583 9.84854 1.75241V14.324C9.84854 15.2918 10.605 16.0764 11.5381 16.0764C12.4712 16.0764 13.2276 15.2918 13.2276 14.324V1.75241Z" fill="white"/>
<path d="M18.133 1.75241C18.133 0.784582 17.3766 0 16.4435 0C15.5104 0 14.754 0.784582 14.754 1.75241V2.26538C14.754 3.23321 15.5104 4.01779 16.4435 4.01779C17.3766 4.01779 18.133 3.23321 18.133 2.26538V1.75241Z" fill="white"/>
<path d="M18.133 9.67575C18.133 8.70792 17.3766 7.92334 16.4435 7.92334C15.5104 7.92334 14.754 8.70792 14.754 9.67575V22.2473C14.754 23.2151 15.5104 23.9997 16.4435 23.9997C17.3766 23.9997 18.133 23.2151 18.133 22.2473V9.67575Z" fill="white"/>
<path d="M44.3849 7.48118C44.3849 6.33807 45.2561 5.76782 46.082 5.76782C46.9757 5.76782 47.6862 6.07768 47.6862 7.19475H47.7314C48.3515 6.24433 49.0142 5.76782 50.046 5.76782C50.8494 5.76782 51.6502 6.36411 51.6502 7.59835C51.6502 8.73885 50.6661 8.76489 49.6795 9.26223C48.6954 9.71531 47.6862 10.2127 47.6862 11.5458V16.8031C47.6862 17.9436 47.0209 18.7065 46.0368 18.7065C45.0527 18.7065 44.3875 17.9436 44.3875 16.8031V7.48118H44.3849Z" fill="white"/>
<path d="M63.7807 12.2618C63.7807 15.8291 61.4209 18.8522 57.8686 18.8522C54.3163 18.8522 51.9565 15.8317 51.9565 12.2618C51.9565 8.69189 54.3841 5.62451 57.8686 5.62451C61.3531 5.62451 63.7807 8.7648 63.7807 12.2618ZM55.2552 12.2618C55.2552 13.9049 56.1038 15.7094 57.8661 15.7094C59.6284 15.7094 60.477 13.9023 60.477 12.2618C60.477 10.6214 59.6987 8.7674 57.8661 8.7674C56.0335 8.7674 55.2552 10.6448 55.2552 12.2618Z" fill="white"/>
<path d="M76.9481 12.2618C76.9481 15.8291 74.5883 18.8522 71.036 18.8522C67.4837 18.8522 65.1238 15.8317 65.1238 12.2618C65.1238 8.69189 67.5515 5.62451 71.036 5.62451C74.5205 5.62451 76.9481 8.7648 76.9481 12.2618ZM68.4226 12.2618C68.4226 13.9049 69.2711 15.7094 71.0335 15.7094C72.7958 15.7094 73.6443 13.9023 73.6443 12.2618C73.6443 10.6214 72.8661 8.7674 71.0335 8.7674C69.2008 8.7674 68.4226 10.6448 68.4226 12.2618Z" fill="white"/>
<path d="M78.8184 7.67116C78.8184 6.53066 79.4837 5.76773 80.4678 5.76773C81.3163 5.76773 81.8661 6.2208 81.9791 7.05144C82.7824 6.12446 83.8343 5.62451 85.0494 5.62451C86.4477 5.62451 87.5699 6.19737 88.4636 7.3613C89.3799 6.24424 90.8234 5.62451 91.9456 5.62451C94.6268 5.62451 96.4594 7.21809 96.4594 10.2386V16.803C96.4594 17.9435 95.7941 18.7064 94.81 18.7064C93.8259 18.7064 93.1607 17.9435 93.1607 16.803V10.8349C93.1607 9.43139 92.4276 8.47837 91.2351 8.47837C90.0427 8.47837 89.287 9.42879 89.287 10.8349V16.803C89.287 17.9435 88.6217 18.7064 87.6376 18.7064C86.6535 18.7064 85.9883 17.9435 85.9883 16.803V10.8349C85.9883 9.43139 85.2552 8.47837 84.0627 8.47837C82.687 8.47837 82.1146 9.42879 82.1146 10.8349V16.803C82.1146 17.9435 81.4494 18.7064 80.4653 18.7064C79.4812 18.7064 78.8159 17.9435 78.8159 16.803V7.67116H78.8184Z" fill="white"/>
<path d="M98.9297 7.67116C98.9297 6.53066 99.595 5.76773 100.579 5.76773C101.495 5.76773 102.023 6.26767 102.228 7.19465C102.849 6.14789 104.106 5.62451 105.369 5.62451C108.919 5.62451 110.684 9.07466 110.684 12.4024C110.684 15.7302 108.575 18.8496 105.254 18.8496C104.222 18.8496 103.122 18.446 102.228 17.6597V21.8467C102.228 22.9872 101.563 23.7502 100.579 23.7502C99.595 23.7502 98.9297 22.9872 98.9297 21.8467V7.67116ZM104.817 15.7094C106.534 15.7094 107.382 13.8788 107.382 12.2618C107.382 10.6448 106.534 8.7674 104.817 8.7674C103.1 8.7674 102.228 10.5016 102.228 12.1446C102.228 13.7877 103.009 15.712 104.817 15.712V15.7094Z" fill="white"/>
<path d="M112.554 7.67126C112.554 6.53076 113.219 5.76782 114.203 5.76782C115.187 5.76782 115.853 6.53076 115.853 7.67126V13.7826C115.853 15.2095 116.885 15.9959 117.984 15.9959C119.084 15.9959 120.115 15.2095 120.115 13.7826V7.67126C120.115 6.53076 120.781 5.76782 121.767 5.76782C122.754 5.76782 123.417 6.53076 123.417 7.67126V13.8555C123.417 16.9255 121.491 18.8497 117.987 18.8497C114.482 18.8497 112.556 16.9229 112.556 13.8555V7.67126H112.554Z" fill="white"/>
<path d="M125.819 2.15368C125.819 1.01318 126.485 0.250244 127.469 0.250244C128.453 0.250244 129.118 1.01318 129.118 2.15368V16.8057C129.118 17.9462 128.453 18.7092 127.469 18.7092C126.485 18.7092 125.819 17.9462 125.819 16.8057V2.15368Z" fill="white"/>
<path d="M138.482 9.62164C137.839 9.62164 136.627 8.62435 135.525 8.62435C134.907 8.62435 134.403 8.90817 134.403 9.57477C134.403 11.1918 140.131 10.9314 140.131 14.8294C140.131 17.113 138.276 18.8498 135.434 18.8498C133.579 18.8498 130.83 17.7562 130.83 16.2095C130.83 15.7095 131.335 14.6862 132.251 14.6862C133.534 14.6862 134.106 15.8501 135.665 15.8501C136.674 15.8501 136.971 15.5168 136.971 14.8763C136.971 13.3061 131.242 13.5431 131.242 9.61903C131.242 7.24169 133.097 5.62207 135.71 5.62207C137.36 5.62207 139.835 6.40844 139.835 8.09576C139.835 8.88213 139.285 9.61903 138.485 9.61903L138.482 9.62164Z" fill="white"/>
<path d="M144.522 13.379C144.773 15.0924 146.081 15.8527 147.638 15.8527C149.335 15.8527 150.502 14.4727 151.373 14.4727C152.084 14.4727 152.726 15.2096 152.726 15.9465C152.726 17.3968 149.817 18.8498 147.341 18.8498C143.628 18.8498 141.156 16.0428 141.156 12.2594C141.156 8.76496 143.586 5.62207 147.068 5.62207C150.55 5.62207 153.003 8.99931 153.003 11.8532C153.003 12.8765 152.568 13.3764 151.559 13.3764H144.525L144.522 13.379ZM149.701 11.098C149.518 9.57477 148.624 8.48113 147.065 8.48113C145.599 8.48113 144.613 9.64767 144.454 11.098H149.701Z" fill="white"/>
</svg>
