<svg width="559" height="462" viewBox="0 0 559 462" fill="none" xmlns="http://www.w3.org/2000/svg">
<g clip-path="url(#clip0_63_49)">
<g style="mix-blend-mode:multiply">
<path d="M42.3467 245.156C65.455 245.156 84.1933 264.008 84.1933 287.27V299.765C84.1933 323.027 65.455 341.879 42.3467 341.879C19.2383 341.879 0.5 323.027 0.5 299.765V287.27C0.5 264.008 19.2383 245.156 42.3467 245.156Z" stroke="#f6e1b9"/>
</g>
<g style="mix-blend-mode:multiply">
<path d="M166.129 196.946C189.241 196.946 207.976 215.674 207.976 238.776V348.259C207.976 371.361 189.241 390.089 166.129 390.089C143.018 390.089 124.282 371.361 124.282 348.259V238.776C124.282 215.674 143.018 196.946 166.129 196.946Z" stroke="#f6e1b9"/>
</g>
<g style="mix-blend-mode:multiply">
<path d="M534.871 196.946C557.982 196.946 576.717 215.674 576.717 238.776V348.259C576.717 371.361 557.982 390.089 534.871 390.089C511.759 390.089 493.024 371.361 493.024 348.259V238.776C493.024 215.674 511.759 196.946 534.871 196.946Z" stroke="#f6e1b9"/>
</g>
<g style="mix-blend-mode:multiply">
<path d="M288.69 1.5C311.719 1.5 330.456 20.15891 330.456 43.4697V348.12C330.456 371.3 311.719 390.089 288.609 390.089C265.499 390.089 246.762 371.3 246.762 348.12V43.4697C246.762 20.15891 265.499 1.5 288.609 1.5Z" stroke="#f6e1b9"/>
</g>
<g style="mix-blend-mode:multiply">
<path d="M411.088 1.5C434.197 1.5 452.935 20.3521 452.935 43.614V56.109C452.935 79.3709 434.197 98.223 411.088 98.223C387.98 98.223 369.242 79.3709 369.242 56.109V43.614C369.242 20.3521 387.98 1.5 411.088 1.5Z" stroke="#f6e1b9"/>
</g>
<g style="mix-blend-mode:multiply">
<path d="M411.088 194.34C434.198 194.34 452.935 213.129 452.935 236.31V540.96C452.935 564.14 434.198 582.929 411.088 582.929C387.978 582.929 369.242 564.14 369.242 540.96V236.31C369.242 213.129 387.978 194.34 411.088 194.34Z" stroke="#f6e1b9"/>
</g>
</g>
<defs>
<clipPath id="clip0_63_49">
<rect width="559" height="462" fill="white"/>
</clipPath>
</defs>
</svg>
