<svg width="177" height="36" viewBox="0 0 177 36" fill="none" xmlns="http://www.w3.org/2000/svg">
<g clip-path="url(#clip0_4632_1255)">
<path d="M26.4662 35.3895H0V8.14745C0 3.9262 3.32472 0.5 7.42522 0.5H33.8914V27.7456C33.8914 31.9668 30.5667 35.3895 26.4662 35.3895Z" fill="#00DF82"/>
<path d="M15.1101 20.9108C15.1517 20.9428 15.1967 20.9785 15.2486 20.9999C15.3456 21.0641 15.453 21.1318 15.5603 21.1853C16.395 21.6452 17.2573 21.8983 18.1128 21.9554C19.8756 22.0659 21.5933 21.3065 22.8332 19.6914C22.899 19.6023 22.9509 19.5274 23.0133 19.4383C23.0652 19.3599 23.131 19.2743 23.183 19.1852C23.2141 19.1317 23.2592 19.0747 23.2903 19.0212C23.3215 18.9641 23.3665 18.9107 23.3977 18.8465C23.4392 18.768 23.4843 18.6825 23.5362 18.5934C23.6436 18.383 23.7405 18.1869 23.8133 17.9873C23.8341 17.9445 23.8548 17.8981 23.8652 17.8553C24.7622 15.5665 24.2704 13.3382 22.7847 11.6661C22.2721 11.0743 21.6314 10.5466 20.8834 10.1152L20.7656 10.051L15.169 6.95996L10.7672 15.4025L6.76367 23.0891L9.60354 24.6614L13.0633 18.03C13.2988 19.2173 13.9915 20.1835 15.1032 20.9108" fill="#333333"/>
<path d="M24.4336 28.8082V27.4712C24.4336 26.6334 23.7756 25.9453 22.9513 25.9453H16.3122C15.4984 25.9453 14.83 26.6334 14.83 27.4712V28.8082H12.1494V30.1915H27.1176V28.8082H24.4301H24.4336Z" fill="#333333"/>
<path d="M9.03559 14.2441L9.6001 14.54L13.7387 6.26504L13.1603 5.962C12.0659 5.37373 10.7257 5.81582 10.1611 6.94244L8.08665 11.1566C7.52214 12.2832 7.95159 13.6629 9.03905 14.2441" fill="#333333"/>
<path d="M40.3119 35.3895L38.8262 30.2627H39.2729L40.582 34.926L41.9258 30.2627H42.4037L43.7405 34.9189L45.0496 30.2627H45.4825L44.0037 35.3895H43.4773L42.1682 30.9294L40.8383 35.3895H40.3119Z" fill="white"/>
<path d="M51.8135 35.4996C51.4499 35.4996 51.107 35.4318 50.7953 35.2964C50.4836 35.1609 50.2066 34.9719 49.9745 34.7295C49.7425 34.487 49.5589 34.2054 49.4273 33.881C49.2957 33.5565 49.2334 33.2036 49.2334 32.8256C49.2334 32.4477 49.2992 32.0912 49.4273 31.7668C49.5589 31.4423 49.739 31.1607 49.9745 30.9182C50.2066 30.6758 50.4836 30.4868 50.7953 30.3549C51.1105 30.2194 51.4499 30.1553 51.8135 30.1553C52.1772 30.1553 52.5131 30.223 52.8283 30.3621C53.1399 30.4975 53.4135 30.6901 53.649 30.9325C53.8845 31.1749 54.0681 31.4602 54.1997 31.7846C54.3313 32.109 54.3971 32.4549 54.3971 32.8292C54.3971 33.2036 54.3313 33.5601 54.1997 33.8845C54.0681 34.209 53.8845 34.4942 53.649 34.733C53.4135 34.9719 53.1399 35.1644 52.8283 35.2999C52.5166 35.4354 52.1772 35.5031 51.8135 35.5031V35.4996ZM51.8135 35.0896C52.1114 35.0896 52.3919 35.0361 52.6516 34.9291C52.9114 34.8222 53.1399 34.6689 53.3374 34.4692C53.5348 34.2696 53.6871 34.0307 53.798 33.7526C53.9088 33.4745 53.9642 33.1643 53.9642 32.8256C53.9642 32.3729 53.8672 31.9735 53.6733 31.6349C53.4793 31.2962 53.2196 31.0323 52.8941 30.8434C52.5685 30.6544 52.2049 30.5617 51.8066 30.5617C51.5088 30.5617 51.2282 30.6152 50.9685 30.7221C50.7087 30.8291 50.4802 30.9824 50.2828 31.1821C50.0854 31.3817 49.933 31.6206 49.8222 31.8951C49.7113 32.1732 49.6559 32.4798 49.6559 32.8221C49.6559 33.2749 49.7529 33.6742 49.9468 34.0129C50.1408 34.3516 50.4005 34.6154 50.7261 34.8044C51.0516 34.9933 51.4152 35.086 51.8135 35.086V35.0896Z" fill="white"/>
<path d="M58.626 35.3895V30.2627H60.368C60.6866 30.2627 60.9602 30.3233 61.1922 30.4445C61.4243 30.5657 61.6009 30.7369 61.7256 30.9579C61.8503 31.179 61.9126 31.4357 61.9126 31.7316C61.9126 31.9918 61.8537 32.22 61.736 32.4197C61.6182 32.6193 61.452 32.7798 61.2338 32.9045C61.0156 33.0293 60.7593 33.1042 60.4615 33.1327L62.1273 35.3895H61.6009L59.9559 33.1398H59.0381V35.3895H58.626ZM59.0416 32.7441H60.2502C60.6451 32.7441 60.9533 32.655 61.1749 32.4731C61.3931 32.2913 61.5039 32.0453 61.5039 31.7351C61.5039 31.425 61.4104 31.154 61.22 30.9544C61.0295 30.7547 60.7351 30.6584 60.3368 30.6584H59.0416V32.7441Z" fill="white"/>
<path d="M66.3174 35.3895V30.2627H66.7295V33.3252L69.1538 30.2627H69.6456L67.8447 32.548L69.9573 35.3895H69.417L67.5745 32.8867L66.7295 33.9492V35.3931H66.3174V35.3895Z" fill="white"/>
<path d="M74.1201 35.3895V30.2627H74.5322V35.3895H74.1201Z" fill="white"/>
<path d="M79.0791 35.3895V30.2627H79.4358L82.4108 34.5695V30.2627H82.8229V35.3895H82.4662L79.4912 31.0399V35.3895H79.0791Z" fill="white"/>
<path d="M89.8055 35.4996C89.4038 35.4996 89.0332 35.4354 88.6972 35.3106C88.3613 35.1823 88.0704 35.004 87.8245 34.7687C87.5786 34.5334 87.3881 34.2553 87.2565 33.9273C87.1249 33.5993 87.0557 33.2392 87.0557 32.8435C87.0557 32.4477 87.1215 32.0805 87.2496 31.7489C87.3777 31.4174 87.5613 31.1357 87.7968 30.9004C88.0323 30.6615 88.3128 30.4797 88.6384 30.3478C88.9639 30.2194 89.3206 30.1553 89.7154 30.1553C89.899 30.1553 90.0791 30.1695 90.2557 30.2016C90.4323 30.2337 90.602 30.2801 90.7614 30.3442C90.9207 30.4084 91.0661 30.4904 91.1943 30.5902L90.9934 30.9396C90.8029 30.8148 90.5917 30.7221 90.3631 30.658C90.1345 30.5974 89.9059 30.5653 89.6774 30.5653C89.3483 30.5653 89.047 30.6188 88.7769 30.7221C88.5068 30.8255 88.2747 30.9788 88.0808 31.1749C87.8868 31.371 87.7379 31.6099 87.634 31.888C87.5301 32.1661 87.4782 32.4798 87.4782 32.8256C87.4782 33.2998 87.5752 33.7098 87.7691 34.0485C87.963 34.3908 88.2332 34.651 88.583 34.8293C88.9327 35.0111 89.3414 35.1003 89.8124 35.1003C90.0756 35.1003 90.3042 35.0717 90.5016 35.0183C90.699 34.9648 90.8479 34.9042 90.9484 34.8364V33.2677H89.712V32.872H91.3466V35.0468C91.2358 35.1395 91.0869 35.2215 90.8999 35.2857C90.7129 35.3534 90.5224 35.4033 90.3215 35.439C90.1206 35.4746 89.9475 35.4924 89.802 35.4924L89.8055 35.4996Z" fill="white"/>
<path d="M103.028 35.4999C102.512 35.4999 102.065 35.3894 101.684 35.1648C101.303 34.9402 101.009 34.63 100.801 34.2271C100.593 33.8242 100.489 33.3572 100.489 32.8224C100.489 32.4374 100.552 32.0808 100.676 31.76C100.801 31.4391 100.978 31.1539 101.206 30.915C101.435 30.6761 101.701 30.4872 102.013 30.3553C102.321 30.2234 102.661 30.1592 103.031 30.1592C103.374 30.1592 103.679 30.202 103.953 30.2911C104.223 30.3802 104.455 30.505 104.642 30.6654L104.399 31.0077C104.226 30.858 104.029 30.7439 103.807 30.6726C103.585 30.5977 103.34 30.5621 103.069 30.5621C102.747 30.5621 102.453 30.6155 102.19 30.7189C101.927 30.8223 101.698 30.9756 101.511 31.1717C101.324 31.3678 101.178 31.6067 101.075 31.8848C100.974 32.1628 100.922 32.4766 100.922 32.826C100.922 33.3073 101.012 33.7173 101.192 34.056C101.372 34.3947 101.629 34.6514 101.958 34.8296C102.287 35.0079 102.675 35.097 103.121 35.097C103.398 35.097 103.662 35.0543 103.907 34.9723C104.157 34.8867 104.385 34.7512 104.6 34.5551L104.801 34.9223C104.548 35.1291 104.278 35.2753 103.984 35.368C103.689 35.4607 103.374 35.507 103.035 35.507L103.028 35.4999Z" fill="white"/>
<path d="M108.292 35.3895L110.297 30.2627H110.654L112.746 35.3895H112.285L111.717 33.9848H109.286L108.746 35.3895H108.299H108.292ZM109.431 33.5891H111.558L110.463 30.8937L109.431 33.5891Z" fill="white"/>
<path d="M116.708 35.3895V30.2627H118.315C118.651 30.2627 118.949 30.3197 119.202 30.4374C119.458 30.555 119.655 30.7226 119.801 30.9401C119.946 31.1576 120.015 31.4214 120.015 31.7244C120.015 32.0275 119.95 32.3056 119.818 32.5195C119.686 32.7334 119.492 32.8974 119.24 33.0079C118.987 33.1185 118.675 33.1755 118.311 33.1755H117.124V35.3859H116.711L116.708 35.3895ZM117.12 32.7833H118.357C118.751 32.7833 119.06 32.6942 119.274 32.5195C119.492 32.3412 119.6 32.0845 119.6 31.7458C119.6 31.4071 119.489 31.154 119.267 30.9579C119.046 30.7618 118.744 30.662 118.36 30.662H117.117V32.7869L117.12 32.7833Z" fill="white"/>
<path d="M124.171 35.3895V30.2627H124.583V35.3895H124.171Z" fill="white"/>
<path d="M130.138 35.3895V30.6584H128.666V30.2627H132.025V30.6584H130.553V35.3895H130.141H130.138Z" fill="white"/>
<path d="M135.201 35.3895L137.206 30.2627H137.563L139.655 35.3895H139.194L138.626 33.9848H136.195L135.655 35.3895H135.208H135.201ZM136.341 33.5891H138.467L137.373 30.8937L136.341 33.5891Z" fill="white"/>
<path d="M143.617 35.3895V30.2627H144.029V34.9938H146.37V35.3895H143.617Z" fill="white"/>
<path d="M73.5841 0.5V13.014C73.5841 19.6703 69.9407 23.5065 63.3502 23.5065C60.3198 23.5065 57.8263 22.6651 56.105 20.3049C54.4253 22.5796 52.0115 23.5065 48.8183 23.5065C42.1897 23.5065 38.626 19.6703 38.626 13.014V0.5H45.0122V12.5077C45.0122 16.2584 46.2001 17.984 48.9015 17.984C51.6028 17.984 52.9119 16.2548 52.9119 12.5077V0.5H59.2947V12.5077C59.2947 16.2584 60.6038 17.984 63.3051 17.984C66.0065 17.984 67.1944 16.2548 67.1944 12.5077V0.5H73.5771H73.5841Z" fill="white"/>
<path d="M102.609 12.0015C102.609 5.27386 107.652 0.5 114.71 0.5C119.268 0.5 122.859 2.53575 124.431 6.19013L119.552 8.88902C118.381 6.77126 116.646 5.81578 114.672 5.81578C111.486 5.81578 108.985 8.1011 108.985 12.005C108.985 15.909 111.486 18.1943 114.672 18.1943C116.649 18.1943 118.385 17.2816 119.552 15.1211L124.431 17.8627C122.859 21.4351 119.268 23.5101 114.71 23.5101C107.652 23.5101 102.609 18.7362 102.609 12.0086" fill="white"/>
<path d="M149.34 10.6788C148.751 4.28985 143.83 0.5 137.62 0.5H137.36C131.265 0.614088 126.503 4.30055 125.835 10.4827C125.821 10.5647 125.817 10.6467 125.81 10.7358C125.772 11.1423 125.755 11.563 125.755 11.9943C125.755 12.1797 125.762 12.3651 125.769 12.5434C125.769 12.6717 125.776 12.7965 125.786 12.9177C125.793 13.0461 125.803 13.1673 125.81 13.285C125.828 13.4811 125.852 13.6736 125.88 13.8625C125.904 14.0551 125.935 14.244 125.966 14.4294C126.61 18.2121 128.771 21.0215 131.767 22.4476C133.211 23.1357 134.856 23.503 136.609 23.503C136.837 23.503 137.059 23.4958 137.281 23.478C137.381 23.478 137.478 23.4709 137.578 23.4637C140.03 23.2748 141.994 22.3264 143.39 20.5973V23.1714H149.399V11.9943C149.399 11.5416 149.381 11.1102 149.336 10.6788M137.703 18.1907H137.578C134.489 18.1266 132.131 15.8127 132.131 12.005C132.131 8.19736 134.489 5.88352 137.578 5.81934H137.703C140.81 5.81934 143.23 8.14032 143.23 12.005C143.23 15.8698 140.81 18.1907 137.703 18.1907Z" fill="white"/>
<path d="M153.225 12.0621V35.3538H159.268V20.7149C160.671 22.4548 162.648 23.4067 165.114 23.5992C165.214 23.6063 165.311 23.6135 165.412 23.6135C165.637 23.6313 165.859 23.6384 166.087 23.6384C167.853 23.6384 169.502 23.2677 170.956 22.576C173.97 21.1428 176.144 18.3191 176.789 14.515C176.82 14.3296 176.851 14.1371 176.875 13.9445C176.899 13.752 176.924 13.5595 176.944 13.3634C176.951 13.2422 176.962 13.121 176.969 12.9926C176.983 12.8714 176.986 12.743 176.986 12.6147C176.993 12.4364 177 12.251 177 12.0657C177 11.6307 176.983 11.21 176.944 10.8C176.938 10.7109 176.931 10.6289 176.92 10.5433C176.248 4.32551 171.462 0.614088 165.332 0.5H165.072C158.832 0.5 153.879 4.31125 153.29 10.7358C153.245 11.1708 153.228 11.6057 153.228 12.0585M159.431 12.0657C159.431 8.17954 161.865 5.8443 164.989 5.8443H165.114C168.221 5.90848 170.593 8.22945 170.593 12.0657C170.593 15.9019 168.221 18.2228 165.114 18.287H164.989C161.865 18.287 159.431 15.9482 159.431 12.0657Z" fill="white"/>
<path d="M76.2266 11.9872C76.2266 5.2703 81.2621 0.5 88.1471 0.5C95.032 0.5 100.026 5.26673 100.026 11.9837C100.026 18.7006 95.032 23.4673 88.1471 23.4673C81.2621 23.4673 76.2266 18.7006 76.2266 11.9837" fill="#00DF82"/>
</g>
<defs>
<clipPath id="clip0_4632_1255">
<rect width="177" height="35" fill="white" transform="translate(0 0.5)"/>
</clipPath>
</defs>
</svg>
