<svg width="60" height="60" viewBox="0 0 60 60" fill="none" xmlns="http://www.w3.org/2000/svg">
<circle cx="30" cy="30.682" r="16.3636" fill="white"/>
<path d="M31.0227 26.9316L39.2995 35.4754C39.9523 36.1493 39.9438 37.2223 39.2804 37.8857V37.8857C38.6094 38.5566 37.5216 38.5566 36.8507 37.8857L29.8695 30.9045" stroke="#333333" stroke-width="1.02273"/>
<path d="M47.7273 25.8407L37.062 25.8407C36.3876 25.8407 35.7373 25.5909 35.2363 25.1395L31.3353 21.6245C30.3626 20.748 28.9044 20.6864 27.8613 21.4777L19.7726 27.614L21.1597 29.1552C22.1095 30.2106 23.7103 30.3606 24.8397 29.5001L28.2636 26.8915C29.2291 26.1558 30.6053 26.3252 31.3635 27.2731V27.2731" stroke="#333333" stroke-width="1.02273" stroke-linejoin="round"/>
<path d="M29.8695 30.9048L37.8244 38.8597C38.4901 39.5254 38.4901 40.6047 37.8244 41.2703V41.2703C37.1588 41.936 36.0795 41.936 35.4139 41.2703L27.4589 33.3154" stroke="#333333" stroke-width="1.02273"/>
<path d="M27.4588 33.3154L34.4495 40.3061C35.1152 40.9718 35.1152 42.0511 34.4495 42.7167V42.7167C33.7839 43.3824 32.7046 43.3824 32.039 42.7167L25.0482 35.726" stroke="#333333" stroke-width="1.02273"/>
<path d="M25.048 35.7256L30.0777 40.7553C30.7613 41.4389 30.7613 42.5473 30.0777 43.2309V43.2309C29.42 43.8886 28.3628 43.917 27.6707 43.2957L21.2318 37.5158C20.7313 37.0665 20.0824 36.818 19.4099 36.818L12.2727 36.8183" stroke="#333333" stroke-width="1.02273"/>
<path d="M12.2727 25.9092L19.0909 25.9092" stroke="#333333" stroke-width="1.02273"/>
<path d="M42.2727 36.8184L47.7273 36.8184" stroke="#333333" stroke-width="1.02273"/>
</svg>
