<svg width="42" height="42" viewBox="0 0 42 42" fill="none" xmlns="http://www.w3.org/2000/svg">
<path d="M7.39501 21.2391C7.39501 19.989 6.41115 18.9756 5.19751 18.9756C3.98386 18.9756 3 19.989 3 21.2391V21.9017C3 23.1518 3.98386 24.1652 5.19751 24.1652C6.41115 24.1652 7.39501 23.1518 7.39501 21.9017V21.2391Z" fill="#060606"/>
<path d="M39.4204 21.2391C39.4204 19.989 38.4365 18.9756 37.2229 18.9756C36.0092 18.9756 35.0254 19.989 35.0254 21.2391V21.9017C35.0254 23.1518 36.0092 24.1652 37.2229 24.1652C38.4365 24.1652 39.4204 23.1518 39.4204 21.9017V21.2391Z" fill="#2463EB"/>
<path d="M13.8013 18.6463C13.8013 17.3962 12.8174 16.3828 11.6038 16.3828C10.3901 16.3828 9.40625 17.3962 9.40625 18.6463V24.5019C9.40625 25.7521 10.3901 26.7655 11.6038 26.7655C12.8174 26.7655 13.8013 25.7521 13.8013 24.5019V18.6463Z" fill="#060606"/>
<path d="M33.0171 18.6463C33.0171 17.3962 32.0332 16.3828 30.8196 16.3828C29.6059 16.3828 28.6221 17.3962 28.6221 18.6463V24.5019C28.6221 25.7521 29.6059 26.7655 30.8196 26.7655C32.0332 26.7655 33.0171 25.7521 33.0171 24.5019V18.6463Z" fill="#2463EB"/>
<path d="M20.2046 8.26353C20.2046 7.01342 19.2207 6 18.0071 6C16.7934 6 15.8096 7.01342 15.8096 8.26353V24.5018C15.8096 25.7519 16.7934 26.7653 18.0071 26.7653C19.2207 26.7653 20.2046 25.7519 20.2046 24.5018V8.26353Z" fill="#060606"/>
<path d="M26.5845 8.26353C26.5845 7.01342 25.6006 6 24.387 6C23.1733 6 22.1895 7.01342 22.1895 8.26353V8.92611C22.1895 10.1762 23.1733 11.1896 24.387 11.1896C25.6006 11.1896 26.5845 10.1762 26.5845 8.92611V8.26353Z" fill="#060606"/>
<path d="M26.5845 18.4979C26.5845 17.2478 25.6006 16.2344 24.387 16.2344C23.1733 16.2344 22.1895 17.2478 22.1895 18.4979V34.7362C22.1895 35.9863 23.1733 36.9997 24.387 36.9997C25.6006 36.9997 26.5845 35.9863 26.5845 34.7362V18.4979Z" fill="#2463EB"/>
</svg>
